<svg width="173" height="53" viewBox="0 0 173 53" fill="none" xmlns="http://www.w3.org/2000/svg">
<path d="M0 26.5C0 11.8645 11.8645 0 26.5 0H146.5C161.136 0 173 11.8645 173 26.5V26.5C173 41.1355 161.136 53 146.5 53H26.5C11.8645 53 0 41.1355 0 26.5V26.5Z" fill="#F67DF9"/>
<path d="M43.641 35.7H43.791C43.951 35.7 44.091 35.65 44.211 35.55C44.331 35.43 44.431 35.29 44.511 35.13C44.611 34.97 44.681 34.8 44.721 34.62C44.781 34.44 44.811 34.27 44.811 34.11V18.06C44.811 17.92 44.781 17.76 44.721 17.58C44.681 17.4 44.611 17.23 44.511 17.07C44.431 16.91 44.331 16.78 44.211 16.68C44.091 16.56 43.951 16.5 43.791 16.5H43.641V16.2H47.961V16.5H47.811C47.651 16.5 47.511 16.56 47.391 16.68C47.271 16.78 47.171 16.91 47.091 17.07C47.011 17.23 46.941 17.4 46.881 17.58C46.841 17.76 46.821 17.92 46.821 18.06V34.89H53.391C53.771 34.89 54.101 34.8 54.381 34.62C54.661 34.44 54.891 34.22 55.071 33.96C55.271 33.68 55.411 33.39 55.491 33.09C55.591 32.77 55.641 32.48 55.641 32.22H55.941V36H43.641V35.7ZM66.4659 15.9C68.0259 15.9 69.4259 16.18 70.6659 16.74C71.9059 17.28 72.9559 18.02 73.8159 18.96C74.6959 19.88 75.3659 20.96 75.8259 22.2C76.3059 23.42 76.5459 24.7 76.5459 26.04C76.5459 27.54 76.2659 28.92 75.7059 30.18C75.1659 31.44 74.4159 32.52 73.4559 33.42C72.4959 34.32 71.3759 35.03 70.0959 35.55C68.8359 36.05 67.4859 36.3 66.0459 36.3C64.5059 36.3 63.1159 36.02 61.8759 35.46C60.6559 34.9 59.6159 34.16 58.7559 33.24C57.9159 32.32 57.2659 31.26 56.8059 30.06C56.3459 28.86 56.1159 27.61 56.1159 26.31C56.1159 25.03 56.3459 23.77 56.8059 22.53C57.2659 21.27 57.9359 20.15 58.8159 19.17C59.7159 18.19 60.8059 17.4 62.0859 16.8C63.3659 16.2 64.8259 15.9 66.4659 15.9ZM66.4359 35.25C67.7759 35.19 68.9459 34.89 69.9459 34.35C70.9659 33.79 71.8159 33.09 72.4959 32.25C73.1759 31.39 73.6759 30.45 73.9959 29.43C74.3359 28.41 74.5059 27.4 74.5059 26.4C74.5059 25.3 74.3059 24.19 73.9059 23.07C73.5059 21.95 72.9359 20.94 72.1959 20.04C71.4559 19.12 70.5659 18.38 69.5259 17.82C68.5059 17.24 67.3559 16.95 66.0759 16.95C64.8359 16.95 63.7259 17.23 62.7459 17.79C61.7659 18.33 60.9259 19.03 60.2259 19.89C59.5459 20.75 59.0259 21.71 58.6659 22.77C58.3059 23.83 58.1259 24.87 58.1259 25.89C58.1259 26.99 58.3359 28.1 58.7559 29.22C59.1759 30.32 59.7559 31.32 60.4959 32.22C61.2359 33.12 62.1059 33.85 63.1059 34.41C64.1259 34.97 65.2359 35.25 66.4359 35.25ZM91.3164 25.56H95.6064V25.86H95.4564C95.2964 25.86 95.1564 25.92 95.0364 26.04C94.9164 26.14 94.8164 26.27 94.7364 26.43C94.6564 26.59 94.5864 26.76 94.5264 26.94C94.4864 27.12 94.4664 27.28 94.4664 27.42V35.46C94.1064 35.6 93.6964 35.72 93.2364 35.82C92.7764 35.92 92.2964 36 91.7964 36.06C91.2964 36.14 90.7864 36.2 90.2664 36.24C89.7464 36.28 89.2664 36.3 88.8264 36.3C87.0264 36.3 85.4564 36 84.1164 35.4C82.7764 34.8 81.6664 34.02 80.7864 33.06C79.9064 32.08 79.2464 30.98 78.8064 29.76C78.3864 28.54 78.1764 27.31 78.1764 26.07C78.1764 24.83 78.3864 23.6 78.8064 22.38C79.2464 21.16 79.9064 20.07 80.7864 19.11C81.6864 18.15 82.8064 17.38 84.1464 16.8C85.5064 16.2 87.1164 15.9 88.9764 15.9C89.6764 15.9 90.3264 15.96 90.9264 16.08C91.5264 16.2 92.0564 16.31 92.5164 16.41C92.7764 16.47 92.9964 16.53 93.1764 16.59C93.3764 16.63 93.5464 16.65 93.6864 16.65H93.9564V19.83H93.6564C93.5364 19.21 93.2964 18.71 92.9364 18.33C92.5964 17.95 92.1964 17.66 91.7364 17.46C91.2764 17.26 90.7864 17.13 90.2664 17.07C89.7664 16.99 89.2964 16.95 88.8564 16.95C87.3564 16.95 86.0564 17.22 84.9564 17.76C83.8564 18.28 82.9564 18.96 82.2564 19.8C81.5564 20.64 81.0364 21.59 80.6964 22.65C80.3564 23.69 80.1864 24.73 80.1864 25.77C80.1864 26.93 80.4064 28.08 80.8464 29.22C81.2864 30.34 81.9064 31.35 82.7064 32.25C83.5064 33.13 84.4664 33.85 85.5864 34.41C86.7264 34.95 87.9864 35.22 89.3664 35.22C89.7464 35.22 90.2164 35.18 90.7764 35.1C91.3364 35 91.8964 34.79 92.4564 34.47V27.42C92.4564 27.28 92.4364 27.12 92.3964 26.94C92.3564 26.76 92.2864 26.59 92.1864 26.43C92.1064 26.27 92.0064 26.14 91.8864 26.04C91.7664 25.92 91.6264 25.86 91.4664 25.86H91.3164V25.56ZM106.046 16.2H110.336V16.5H110.186C110.046 16.5 109.916 16.56 109.796 16.68C109.676 16.78 109.576 16.91 109.496 17.07C109.416 17.21 109.346 17.38 109.286 17.58C109.246 17.76 109.226 17.92 109.226 18.06V34.05C109.226 34.21 109.246 34.39 109.286 34.59C109.326 34.77 109.386 34.94 109.466 35.1C109.566 35.26 109.666 35.4 109.766 35.52C109.886 35.64 110.026 35.7 110.186 35.7H110.336V36H106.046V35.7H106.196C106.356 35.7 106.496 35.65 106.616 35.55C106.736 35.43 106.836 35.29 106.916 35.13C107.016 34.95 107.086 34.77 107.126 34.59C107.166 34.39 107.186 34.21 107.186 34.05V18.06C107.186 17.92 107.166 17.76 107.126 17.58C107.086 17.4 107.016 17.23 106.916 17.07C106.836 16.91 106.736 16.78 106.616 16.68C106.496 16.56 106.356 16.5 106.196 16.5H106.046V16.2ZM116.371 35.7H116.521V36H113.191V35.7H113.341C113.481 35.7 113.611 35.64 113.731 35.52C113.871 35.4 113.981 35.26 114.061 35.1C114.141 34.94 114.201 34.77 114.241 34.59C114.301 34.39 114.331 34.21 114.331 34.05V18.06C114.331 17.92 114.311 17.76 114.271 17.58C114.251 17.4 114.201 17.23 114.121 17.07C114.041 16.91 113.931 16.78 113.791 16.68C113.651 16.56 113.481 16.5 113.281 16.5H113.131V16.2H116.161L127.051 33.36V18.06C127.051 17.92 127.021 17.76 126.961 17.58C126.921 17.4 126.851 17.23 126.751 17.07C126.671 16.91 126.571 16.78 126.451 16.68C126.331 16.56 126.191 16.5 126.031 16.5H125.881V16.2H129.241V16.5H129.091C128.931 16.5 128.791 16.56 128.671 16.68C128.551 16.78 128.441 16.91 128.341 17.07C128.261 17.23 128.201 17.4 128.161 17.58C128.121 17.76 128.101 17.92 128.101 18.06V36H126.241L115.381 18.78V34.05C115.381 34.21 115.401 34.39 115.441 34.59C115.481 34.77 115.541 34.94 115.621 35.1C115.721 35.26 115.831 35.4 115.951 35.52C116.071 35.64 116.211 35.7 116.371 35.7Z" fill="black"/>
</svg>
