<svg width="249" height="178" viewBox="0 0 249 178" fill="none" xmlns="http://www.w3.org/2000/svg">
<path d="M249 132C249 127.789 245.565 124 241 124H8C3.85 124 0 127.368 0 132V140C0 144.211 3.435 148 8 148H241C245.15 148 249 144.632 249 140V132Z" fill="#B2C1C0"/>
<path d="M43 178C58.1878 178 70 165.912 70 151C70 136.088 58.1878 124 43 124C27.8122 124 15 136.088 15 151C15 165.912 27.8122 178 43 178Z" fill="#3E4347"/>
<path d="M43 167C51.8366 167 59 160.56 59 152C59 143.44 51.8366 136 43 136C34.1634 136 27 143.44 27 152C27 160.56 34.1634 167 43 167Z" fill="#B2C1C0"/>
<path d="M202 178C217.188 178 230 165.912 230 151C230 136.088 217.188 124 202 124C186.812 124 175 136.088 175 151C175 165.912 186.812 178 202 178Z" fill="#3E4347"/>
<path d="M203 167C211.837 167 219 160.56 219 152C219 143.44 211.837 136 203 136C194.163 136 187 143.44 187 152C187 160.56 194.163 167 203 167Z" fill="#B2C1C0"/>
<path d="M218 0H108C95.104 0 85 10.1438 85 23V124H241V23C241 10.1438 230.896 0 218 0Z" fill="#62727A"/>
<path d="M54 31C35.3298 31 31 30.8616 31 62C31 85.25 8 85.75 8 109V124H86V31H54" fill="#F15744"/>
<path d="M16 101H24V116H16V101Z" fill="#FFCE31"/>
<path d="M45.0001 85C40.448 85 38.3448 87.8667 40.0001 92L46.0001 109C47.6554 113.133 52.448 116 57.0001 116H70.0001C74.5521 116 78.0001 112.547 78.0001 108V93C78.0001 88.8667 74.5521 85 70.0001 85H45.0001Z" fill="#D33B23"/>
<path d="M78 38H47C47 38 39 39.2128 39 50V68C39 68 39.117 77 47 77H78V38" fill="#3E4347"/>
<path d="M43 138C45.2091 138 47 136.933 47 135C47 133.067 45.2091 131 43 131C40.7909 131 39 133.067 39 135C39 136.933 40.7909 138 43 138Z" fill="#3E4347"/>
<path d="M29 146C31.2091 146 33 143.933 33 142C33 140.067 31.2091 139 29 139C26.7909 139 25 140.067 25 142C25 143.933 26.7909 146 29 146Z" fill="#3E4347"/>
<path d="M26.9998 155C28.6724 153.729 30.7453 154.306 31.9998 156C33.2542 157.694 32.6724 159.729 30.9998 161C29.3272 162.271 27.2542 161.694 25.9998 160C24.7453 157.882 24.909 156.271 26.9998 155Z" fill="#3E4347"/>
<path d="M43 170C45.2091 170 47 168.933 47 167C47 165.067 45.2091 163 43 163C40.7909 163 39 165.067 39 167C39 168.933 40.7909 170 43 170Z" fill="#3E4347"/>
<path d="M56 162C58.2091 162 60 159.933 60 158C60 156.067 58.2091 155 56 155C53.7909 155 52 156.067 52 158C52 159.933 53.7909 162 56 162Z" fill="#3E4347"/>
<path d="M56 146C58.2091 146 60 143.933 60 142C60 140.067 58.2091 139 56 139C53.7909 139 52 140.067 52 142C52 143.933 53.7909 146 56 146Z" fill="#3E4347"/>
<path d="M43 159C47.4183 159 51 155.418 51 151C51 146.582 47.4183 143 43 143C38.5817 143 35 146.582 35 151C35 155.418 38.5817 159 43 159Z" fill="#62727A"/>
<path d="M203 139C205.209 139 207 137.933 207 136C207 134.067 205.209 132 203 132C200.791 132 199 134.067 199 136C199 137.933 200.791 139 203 139Z" fill="#3E4347"/>
<path d="M189 147C191.209 147 193 144.933 193 143C193 141.067 191.209 140 189 140C186.791 140 185 141.067 185 143C185 144.933 186.791 147 189 147Z" fill="#3E4347"/>
<path d="M187 156C188.694 154.729 190.73 155.306 192 157C193.271 158.694 192.694 160.729 191 162C189.306 163.271 187.271 162.694 186 161C184.73 158.882 185.306 157.271 187 156Z" fill="#3E4347"/>
<path d="M203 170C205.209 170 207 168.933 207 167C207 165.067 205.209 163 203 163C200.791 163 199 165.067 199 167C199 168.933 200.791 170 203 170Z" fill="#3E4347"/>
<path d="M216 162C218.209 162 220 159.933 220 158C220 156.067 218.209 155 216 155C213.791 155 212 156.067 212 158C212 159.933 213.791 162 216 162Z" fill="#3E4347"/>
<path d="M216 147C218.209 147 220 144.933 220 143C220 141.067 218.209 140 216 140C213.791 140 212 141.067 212 143C212 144.933 213.791 147 216 147Z" fill="#3E4347"/>
<path d="M203 159C207.418 159 211 155.418 211 151C211 146.582 207.418 143 203 143C198.582 143 195 146.582 195 151C195 155.418 198.582 159 203 159Z" fill="#62727A"/>
<path d="M110 56C107.925 54.3572 105.149 54 101 54C98.5104 54 95.6597 53.5893 94 54V77C95.2448 77 97.5104 77 100 77C104.564 77 107.51 76.0536 110 74C112.075 71.9464 114 69.1072 114 65C113.17 61.3036 112.075 58.0536 110 56V56ZM100 74H98V58C98.4149 58 99.7552 57 101 57C106.394 57 109 60.0714 109 65C109 70.75 105.394 74 100 74V74ZM130 67H121V73H131V77H117V54H130V58H121V63H130V67V67ZM138 73V54H134V77H148V73H138ZM151 54H155V77H151V54ZM173 54L170 64C169.17 66.875 167.83 69.125 167 72C166.585 69.125 165.83 66.875 165 64L162 54H158L165 77H170L178 54H173V54ZM184 73V67H193V63H184V58H194V54H180V77H194V73H184ZM212 70C211.585 67.9464 210.66 66.8214 209 66C211.075 65.1786 213 62.875 213 60C213 57.9464 212.245 57.2322 211 56C209.34 54.7679 207.319 54 204 54C201.51 54 199.66 53.5893 198 54V77H202V67H204C206.49 67 207.17 67.7143 208 71C208.83 73.875 209.585 76.1786 210 77H214C213.585 76.1786 212.83 72.875 212 70ZM204 64H202V57H204C206.904 57 209 58.5357 209 61C209 63.0536 206.904 64 204 64V64ZM229 54L226 60C225.17 61.6429 224.83 62.3572 224 64C223.585 62.3572 222.83 61.6429 222 60L219 54H214L221 67V77H226V67L233 54H229" fill="white"/>
<path d="M105 47V24C105 21.9218 106.925 20 109 20H217C219.075 20 221 21.9218 221 24V47H229V24C229 17.7654 223.226 12 217 12H109C102.358 12 97 17.7654 97 24V47H105V47ZM222 86V101C222 103.078 220.075 105 218 105H109C106.925 105 105 103.078 105 101V86H97V101C97 107.235 102.774 113 109 113H217C223.642 113 229 107.235 229 101V86H222" fill="#3E4347"/>
<path d="M113 30C114.933 30 116 28.933 116 27C116 25.067 114.933 23 113 23C111.067 23 109 25.067 109 27C109 28.933 111.067 30 113 30Z" fill="#B2C1C0"/>
<path d="M214 30C215.933 30 218 28.933 218 27C218 25.067 215.933 23 214 23C212.067 23 211 25.067 211 27C211 28.933 212.067 30 214 30Z" fill="#B2C1C0"/>
<path d="M113 100C114.933 100 116 98.933 116 97C116 95.067 114.933 93 113 93C111.067 93 109 95.067 109 97C109 98.933 111.067 100 113 100Z" fill="#B2C1C0"/>
<path d="M214 100C215.933 100 218 98.933 218 97C218 95.067 215.933 93 214 93C212.067 93 211 95.067 211 97C211 98.933 212.067 100 214 100Z" fill="#B2C1C0"/>
<path d="M148 151C148 155.211 144.575 159 140 159H109C104.841 159 101 155.632 101 151V143C101 138.789 104.425 135 109 135H140C144.159 135 148 138.368 148 143V151Z" fill="#62727A"/>
<path d="M110 140C107.511 140 105 141.056 105 143C105 144.944 107.096 147 110 147H139C141.489 147 144 144.944 144 143C144 141.056 141.904 140 139 140H110Z" fill="#B2C1C0"/>
</svg>
