<svg width="385" height="375" viewBox="0 0 385 375" fill="none" xmlns="http://www.w3.org/2000/svg">
<path d="M246 221C251.514 218.038 257.081 214.837 262 211C266.87 207.199 270.822 203.532 275 199C279.227 194.42 283.575 189.192 287 184C290.401 178.844 293.486 173.623 296 168C298.514 162.377 300.47 155.959 302 150C302.194 149.257 301.83 148.743 302 148C302.085 147.664 303.073 147.664 303 148C301.591 154.055 299.441 160.257 297 166C294.583 171.695 292.316 177.772 289 183C285.684 188.24 281.117 192.348 277 197C272.846 201.676 268.858 206.055 264 210C259.166 213.921 253.429 217.931 248 221C247.332 221.384 246.692 221.64 246 222C245.696 222.156 245.696 221.168 246 221Z" fill="#E4E4F9"/>
<path d="M301 152C304.999 150.284 309.142 144.946 310 140C310.24 138.639 310.341 137.408 310 136C309.659 134.58 308.135 133.71 307 133C305.827 132.266 305.148 131.515 304 132C301.111 133.207 299.252 137.308 299 141C298.773 144.68 299.928 148.32 301 152Z" fill="#E4E4F9"/>
<path d="M296 166C299.749 168.012 306.406 167.4 311 165C312.262 164.345 313.032 164.139 314 163C314.98 161.873 316.086 160.309 316 159C315.914 157.642 315.066 156.582 314 156C311.305 154.533 307.197 154.915 304 157C300.827 159.085 298.413 162.909 296 166Z" fill="#E4E4F9"/>
<path d="M296 166C297.358 162.07 296.253 155.966 293 152C292.103 150.908 291.321 149.736 290 149C288.679 148.264 287.308 147.691 286 148C284.641 148.309 283.386 149.884 283 151C281.99 153.826 284.32 157.317 287 160C289.667 162.672 292.436 164.231 296 166Z" fill="#E4E4F9"/>
<path d="M286 184C289.421 186.551 296.059 187.688 301 186C302.359 185.538 303.851 184.972 305 184C306.149 183.028 306.876 181.312 307 180C307.123 178.652 305.976 177.729 305 177C302.542 175.129 298.508 175.421 295 177C291.517 178.579 288.89 181.303 286 184Z" fill="#E4E4F9"/>
<path d="M287 184C288.884 180.362 288.468 174.342 286 170C285.321 168.803 284.133 166.904 283 166C281.868 165.096 280.288 164.894 279 165C277.677 165.106 277.548 165.979 277 167C275.617 169.617 275.878 172.996 278 176C280.134 179.016 283.901 181.759 287 184Z" fill="#E4E4F9"/>
<path d="M273 200C275.968 202.883 281.961 204.934 287 204C288.381 203.743 289.752 202.77 291 202C292.248 201.23 293.697 200.226 294 199C294.315 197.728 293.836 196.829 293 196C290.88 193.899 286.622 193.961 283 195C279.39 196.039 276.186 197.817 273 200Z" fill="#E4E4F9"/>
<path d="M274 201C276.387 197.622 276.826 191.682 275 187C274.499 185.708 273.991 184.067 273 183C271.997 181.933 270.289 181.071 269 181C267.663 180.929 266.68 182.052 266 183C264.257 185.418 265.329 188.705 267 192C268.671 195.307 271.255 198.333 274 201Z" fill="#E4E4F9"/>
<path d="M258 214C259.857 216.787 264.842 218.94 269 219C270.144 219.012 270.881 218.417 272 218C273.131 217.583 274.545 216.929 275 216C275.467 215.035 274.529 214.786 274 214C272.671 211.976 270.05 210.75 267 211C263.949 211.25 260.903 212.773 258 214Z" fill="#E4E4F9"/>
<path d="M258 214C260.386 211.672 262.647 207.092 262 203C261.824 201.873 261.6 200.029 261 199C260.401 197.971 258.987 197.27 258 197C256.989 196.718 256.682 197.338 256 198C254.26 199.666 253.236 203.047 254 206C254.752 208.94 256.307 211.378 258 214Z" fill="#E4E4F9"/>
<path d="M331.841 310.474L331.839 310.474C320.617 306.67 308.702 305.223 297.096 307.491C285.482 309.76 274.206 315.647 265.328 323.377L265.328 323.377C264.949 323.708 264.52 324.073 264.058 324.466C262.971 325.392 261.705 326.471 260.491 327.598C258.884 329.09 257.426 330.616 256.622 331.924C260.828 336.214 266.189 339.225 272.106 340.511C278.157 341.827 284.723 341.384 290.93 340.505C309.612 337.85 327.258 328.296 339.327 314.023C337.632 312.358 335.447 311.649 333.023 310.862C332.635 310.736 332.24 310.608 331.841 310.474Z" fill="#E3E1FF" stroke="#D4D4D4"/>
<mask id="path-12-inside-1_18_37" fill="white">
<path d="M335 315C325.055 316.693 314.703 319.247 305 322C295.297 324.765 285.824 327.698 276 330C270.513 331.291 264.596 332.233 259 333C258.503 333.073 258.503 332.073 259 332C268.982 330.624 279.285 328.692 289 326C298.739 323.308 308.212 320.485 318 318C323.475 316.611 329.44 314.95 335 314C335.497 313.927 335.497 314.915 335 315Z"/>
</mask>
<path d="M335 315C325.055 316.693 314.703 319.247 305 322C295.297 324.765 285.824 327.698 276 330C270.513 331.291 264.596 332.233 259 333C258.503 333.073 258.503 332.073 259 332C268.982 330.624 279.285 328.692 289 326C298.739 323.308 308.212 320.485 318 318C323.475 316.611 329.44 314.95 335 314C335.497 313.927 335.497 314.915 335 315Z" fill="white"/>
<path d="M335 315L335.169 315.986L335.168 315.986L335 315ZM305 322L304.726 321.038L304.727 321.038L305 322ZM276 330L275.771 329.027L275.772 329.026L276 330ZM259 333L258.854 332.011L258.864 332.009L259 333ZM259 332L258.854 331.011L258.863 331.009L259 332ZM289 326L288.733 325.036L288.734 325.036L289 326ZM318 318L317.754 317.031L317.754 317.031L318 318ZM335 314L334.832 313.014L334.843 313.012L334.854 313.011L335 314ZM335.168 315.986C325.27 317.671 314.955 320.215 305.273 322.962L304.727 321.038C314.451 318.279 324.84 315.715 334.832 314.014L335.168 315.986ZM305.274 322.962C295.6 325.719 286.083 328.664 276.228 330.974L275.772 329.026C285.565 326.731 294.995 323.812 304.726 321.038L305.274 322.962ZM276.229 330.973C270.696 332.275 264.743 333.222 259.136 333.991L258.864 332.009C264.449 331.243 270.329 330.307 275.771 329.027L276.229 330.973ZM259.146 333.989C258.627 334.066 258.178 333.836 257.914 333.476C257.69 333.17 257.628 332.821 257.628 332.555C257.628 332.279 257.693 331.964 257.864 331.681C258.044 331.384 258.37 331.082 258.854 331.011L259.146 332.989C259.382 332.955 259.522 332.805 259.577 332.714C259.624 332.636 259.628 332.581 259.628 332.555C259.628 332.539 259.627 332.43 259.527 332.293C259.47 332.216 259.377 332.126 259.24 332.066C259.099 332.004 258.961 331.995 258.854 332.011L259.146 333.989ZM258.863 331.009C268.814 329.637 279.072 327.713 288.733 325.036L289.267 326.964C279.498 329.671 269.149 331.61 259.137 332.991L258.863 331.009ZM288.734 325.036C298.446 322.351 307.954 319.519 317.754 317.031L318.246 318.969C308.471 321.451 299.032 324.265 289.266 326.964L288.734 325.036ZM317.754 317.031C323.195 315.651 329.22 313.973 334.832 313.014L335.169 314.986C329.66 315.927 323.756 317.572 318.246 318.969L317.754 317.031ZM334.854 313.011C335.367 312.935 335.816 313.158 336.082 313.518C336.31 313.824 336.373 314.174 336.373 314.441C336.373 314.717 336.306 315.03 336.137 315.312C335.96 315.606 335.642 315.904 335.169 315.986L334.831 314.014C334.606 314.053 334.474 314.196 334.422 314.283C334.377 314.358 334.373 314.412 334.373 314.441C334.373 314.459 334.373 314.571 334.476 314.709C334.534 314.787 334.628 314.877 334.765 314.936C334.905 314.997 335.041 315.005 335.146 314.989L334.854 313.011Z" fill="#D4D4D4" mask="url(#path-12-inside-1_18_37)"/>
<path d="M273 330C275.914 331.458 278.905 332.947 282 334C284.299 334.782 286.374 335.155 288.608 335.555C289.381 335.694 290.173 335.836 291 336C292.826 336.359 295.151 336.78 297 337L296.869 337.488C296.874 337.506 296.876 337.526 296.876 337.546C296.877 337.568 296.874 337.585 296.871 337.594C296.87 337.597 296.87 337.599 296.87 337.599C296.87 337.599 296.872 337.593 296.879 337.583C296.89 337.568 296.915 337.541 296.956 337.522C296.999 337.503 297.037 337.501 297.057 337.503L297 338L297.059 337.504C297.02 337.499 296.982 337.494 296.943 337.49C296.943 337.49 296.942 337.489 296.942 337.489C296.928 337.488 296.913 337.486 296.899 337.484M273 330L272.784 330.451C272.785 330.451 272.785 330.452 272.785 330.451M273 330C272.807 329.907 272.133 329.815 272 330L276.411 332.229M273 330L272.776 330.447C272.779 330.449 272.782 330.45 272.785 330.451M272.785 330.451C273.975 331.047 275.183 331.65 276.411 332.229M272.785 330.451C272.785 330.451 272.784 330.451 272.782 330.451C272.773 330.448 272.741 330.437 272.681 330.425C272.611 330.411 272.529 330.399 272.45 330.395C272.433 330.394 272.416 330.394 272.401 330.393M276.411 332.229C276.667 332.327 276.927 332.429 277.19 332.538M276.411 332.229C276.022 332.08 275.64 331.941 275.266 331.804C275.059 331.729 274.854 331.654 274.651 331.579C273.888 331.296 273.144 331.004 272.385 330.633M277.19 332.538C277.19 332.538 277.19 332.538 277.19 332.538L277.172 332.583C277.172 332.583 277.172 332.583 277.172 332.583L277.191 332.538C277.191 332.538 277.191 332.538 277.19 332.538ZM277.19 332.538C278.668 333.145 280.296 333.669 281.951 334.143C283.395 334.557 284.86 334.934 286.266 335.295C286.555 335.369 286.842 335.443 287.125 335.516C288.364 335.836 289.634 336.146 290.915 336.429C290.915 336.429 290.916 336.429 290.916 336.429C292.9 336.867 294.91 337.239 296.867 337.48M296.867 337.48C296.863 337.465 296.858 337.456 296.856 337.453C296.856 337.453 296.856 337.453 296.856 337.453C296.856 337.453 296.862 337.461 296.876 337.471C296.883 337.476 296.891 337.481 296.899 337.484M296.867 337.48C296.878 337.482 296.888 337.483 296.899 337.484M296.867 337.48L296.899 337.484M272.401 330.393C272.394 330.441 272.389 330.494 272.386 330.546C272.385 330.578 272.384 330.608 272.385 330.633M272.401 330.393C272.406 330.364 272.41 330.337 272.416 330.312C272.423 330.28 272.429 330.258 272.433 330.248C272.433 330.247 272.434 330.246 272.434 330.245M272.401 330.393C272.344 330.392 272.302 330.396 272.277 330.4C272.274 330.401 272.271 330.402 272.27 330.402C272.272 330.401 272.279 330.399 272.288 330.394C272.307 330.386 272.358 330.358 272.405 330.293L272.434 330.245M272.385 330.633C272.332 330.607 272.278 330.58 272.225 330.553L272.216 330.549L272.216 330.549C272.219 330.55 272.222 330.552 272.225 330.553C272.323 330.603 272.367 330.675 272.381 330.701C272.391 330.72 272.395 330.733 272.395 330.733C272.395 330.733 272.394 330.731 272.393 330.726C272.389 330.707 272.386 330.676 272.385 330.633ZM272.434 330.245C272.431 330.252 272.422 330.269 272.406 330.292L272.434 330.245ZM272.434 330.245C272.435 330.243 272.435 330.242 272.435 330.242C272.435 330.242 272.435 330.243 272.434 330.245Z" fill="white" stroke="#D4D4D4"/>
<path d="M293.715 317.589C294.057 317.352 294.401 317.117 294.748 316.885C294.662 316.933 294.575 316.981 294.489 317.029C294.032 317.282 293.579 317.534 293.136 317.788C291.779 318.565 290.484 319.376 289.328 320.378C287.031 322.375 285.052 324.611 283.471 327.189C283.472 327.191 283.473 327.194 283.474 327.197C283.506 327.272 283.572 327.372 283.662 327.463C283.68 327.481 283.697 327.497 283.713 327.511C284.578 326.114 285.508 324.895 286.631 323.663L286.631 323.662C288.749 321.348 291.15 319.365 293.715 317.589ZM299.219 313.944C299.042 314.092 298.863 314.243 298.677 314.394C299.621 313.822 300.568 313.261 301.509 312.708C301.497 312.695 301.484 312.682 301.47 312.667C301.38 312.577 301.28 312.509 301.204 312.477C301.198 312.474 301.192 312.472 301.187 312.47C300.484 312.892 299.91 313.365 299.312 313.865C299.281 313.892 299.25 313.918 299.219 313.944ZM301.151 312.46C301.151 312.46 301.153 312.461 301.158 312.461C301.153 312.46 301.151 312.46 301.151 312.46Z" fill="white" stroke="#D4D4D4"/>
<path d="M302.444 324.121C302.554 324.144 302.665 324.167 302.776 324.19C302.143 323.968 301.506 323.732 300.86 323.482C300.847 323.486 300.825 323.493 300.794 323.508C300.722 323.542 300.639 323.598 300.562 323.667C301.02 323.811 301.545 323.931 302.095 324.047C302.21 324.072 302.327 324.096 302.444 324.121Z" fill="white" stroke="#D4D4D4"/>
<path d="M312.732 319.536C312.992 319.196 313.201 318.814 313.431 318.392C313.463 318.335 313.494 318.277 313.527 318.218C313.612 318.062 313.702 317.901 313.799 317.74C313.34 318.222 312.894 318.719 312.461 319.229C312.491 319.287 312.543 319.362 312.617 319.437C312.659 319.479 312.698 319.511 312.732 319.536ZM312.438 319.171C312.437 319.168 312.437 319.166 312.437 319.166C312.437 319.166 312.437 319.167 312.438 319.171ZM322.22 311.449C320.506 312.297 318.887 313.323 317.372 314.5C319.845 312.856 322.633 311.674 325.353 310.699C325.022 310.774 324.676 310.836 324.342 310.897C324.251 310.913 324.162 310.93 324.073 310.946C323.34 311.081 322.689 311.221 322.22 311.449ZM312.832 319.591C312.833 319.591 312.833 319.591 312.833 319.591L312.832 319.591Z" fill="white" stroke="#D4D4D4"/>
<path d="M90.6517 298.359L90.6514 298.359C66.8695 275.239 33.6901 261.756 0.417259 260.515C-0.423317 265.638 0.783066 270.8 2.47399 275.841C9.06921 295.479 21.6727 313.947 37.3289 327.623C52.9832 341.298 71.6548 350.519 92.0951 354.509C94.9749 355.067 99.2606 355.799 103.546 356.275C107.669 356.732 111.743 356.946 114.564 356.56C116.208 345.978 114.111 334.956 109.547 325.212C104.92 315.332 98.4882 305.967 90.6517 298.359Z" fill="#DFDDFB" stroke="#C4C4C4"/>
<path d="M7 267C19.9882 278.936 33.7968 289.516 48 300C62.2032 310.484 77.295 320.88 91 332C98.6544 338.214 105.953 345.115 113 352C113.632 352.612 112.632 353.624 112 353C99.4127 340.681 85.106 329.568 71 319C56.8576 308.408 42.9116 297.892 29 287C21.2241 280.918 13.2656 274.67 6 268C5.35606 267.4 6.35606 266.4 7 267Z" fill="#A4A4ED"/>
<path d="M94.9999 337C93.9991 331.34 91.8037 326.467 89.9999 321C88.1961 315.533 86.5698 310.166 83.9999 305C82.542 302.074 80.6802 298.806 78.9999 296C78.5428 295.241 79.5428 294.229 79.9999 295C83.0269 300.034 85.7266 305.593 87.9999 311C90.2732 316.383 92.5297 322.364 93.9999 328C94.8401 331.203 95.4192 333.737 95.9999 337C96.0617 337.361 95.3458 337.988 94.9999 338C94.5922 338.024 95.0617 337.361 94.9999 337Z" fill="#A4A4ED"/>
<path d="M80 326C74.4386 326.635 69.476 326.109 64 325C58.4386 323.879 52.3174 321.993 47 320C43.9876 318.867 40.988 317.221 38 316C37.1707 315.664 38.1707 314.664 39 315C44.1955 317.118 49.6582 319.306 55 321C60.2809 322.682 65.4752 323.539 71 324C74.0978 324.262 76.9144 324.361 80 324C80.8903 323.9 80.8903 325.888 80 326Z" fill="#A4A4ED"/>
<path d="M55 307C52.7134 299.578 49.2023 291.573 45 285C43.8258 283.157 42.3101 281.746 41 280C40.4685 279.284 41.4685 278.284 42 279C46.7214 285.307 51.1201 292.699 54 300C54.8157 302.074 55.3449 303.878 56 306C56.2595 306.837 55.2595 307.849 55 307Z" fill="#A4A4ED"/>
<path d="M37 294C29.2209 293.466 21.9312 291.603 15 288C13.046 286.981 10.8189 285.243 9.00003 284C8.25038 283.491 9.25038 282.491 10 283C16.2676 287.274 23.5773 290.608 31 292C33.1261 292.398 34.8371 292.851 37 293C37.9094 293.062 37.8972 294.062 37 294Z" fill="#A4A4ED"/>
<path d="M251 206C252.739 199.958 254.329 193.249 255 187C255.658 180.824 255.373 175.212 255 169C254.627 162.727 254.404 156.14 253 150C251.609 143.909 249.385 137.787 247 132C244.615 126.213 241.329 120.313 238 115C237.59 114.344 237.422 113.644 237 113C236.801 112.708 237.801 112.708 238 113C241.49 118.301 244.491 124.201 247 130C249.497 135.763 251.485 141.909 253 148C254.515 154.091 255.503 159.751 256 166C256.509 172.285 256.546 178.715 256 185C255.466 191.237 253.602 197.946 252 204C251.801 204.754 252.211 205.258 252 206C251.901 206.353 250.901 206.34 251 206Z" fill="#D9EAFB"/>
<path d="M239 118C240.39 113.937 239.97 107.211 237 103C236.187 101.836 235.225 100.793 234 100C232.774 99.1949 231.249 98.7151 230 99C228.715 99.2849 227.412 100.848 227 102C225.974 104.923 227.537 108.139 230 111C232.475 113.849 235.676 116.068 239 118Z" fill="#D9EAFB"/>
<path d="M247 131C250.933 129.725 254.578 124.978 256 120C256.391 118.627 257.142 117.496 257 116C256.87 114.504 255.96 112.871 255 112C253.993 111.105 253.114 110.657 252 111C249.156 111.895 246.687 115.236 246 119C245.301 122.752 246.467 127.089 247 131Z" fill="#D9EAFB"/>
<path d="M247 130C245.02 126.391 239.178 122.537 234 122C232.573 121.848 231.451 121.615 230 122C228.548 122.385 226.676 123.914 226 125C225.299 126.121 225.446 126.972 226 128C227.402 130.616 231.162 131.965 235 132C238.837 132.047 243.236 131.18 247 130Z" fill="#D9EAFB"/>
<path d="M252 150C256.235 149.355 261.784 145.748 264 141C264.615 139.698 264.901 137.512 265 136C265.086 134.488 264.862 133.029 264 132C263.114 130.946 261.206 130.826 260 131C256.935 131.434 255.28 134.356 254 138C252.695 141.644 252.049 146.008 252 150Z" fill="#D9EAFB"/>
<path d="M253 150C251.637 146.036 246.975 141.321 242 140C240.625 139.64 239.484 139.832 238 140C236.516 140.168 234.827 141.003 234 142C233.136 143.033 232.623 143.871 233 145C233.961 147.871 237.253 150.387 241 151C244.746 151.625 249.144 150.637 253 150Z" fill="#D9EAFB"/>
<path d="M255 171C259.308 170.964 265.115 168.247 268 164C268.792 162.836 269.703 161.44 270 160C270.309 158.56 269.706 157.092 269 156C268.257 154.872 267.225 154 266 154C262.892 154 259.795 156.689 258 160C256.205 163.311 255.606 167.173 255 171Z" fill="#D9EAFB"/>
<path d="M256 171C255.22 166.964 250.754 161.959 246 160C244.695 159.457 243.487 159.035 242 159C240.5 158.965 238.975 159.138 238 160C237 160.885 236.793 162.843 237 164C237.536 166.915 240.379 168.891 244 170C247.633 171.098 252.074 171.094 256 171Z" fill="#D9EAFB"/>
<path d="M254 191C257.382 191.673 262.039 189.91 265 187C265.818 186.193 267.517 185.1 268 184C268.483 182.9 268.384 181.99 268 181C267.616 179.973 266.966 179.208 266 179C263.571 178.499 259.957 180.64 258 183C256.042 185.348 255.115 188.053 254 191Z" fill="#D9EAFB"/>
<path d="M255 191C255.07 187.64 253.24 183.345 250 181C249.111 180.359 248.123 179.278 247 179C245.888 178.734 243.865 178.468 243 179C242.099 179.556 242.023 181.045 242 182C241.93 184.43 243.45 186.525 246 188C248.538 189.475 252.04 190.444 255 191Z" fill="#D9EAFB"/>
<path d="M50.0135 229.316C50.4608 229.626 50.9066 229.937 51.351 230.246C51.998 230.697 52.6421 231.145 53.2841 231.589C54.9624 232.748 56.6682 233.971 58.3616 235.243C56.1828 233.528 53.9545 231.897 51.7234 230.417C51.1614 230.044 50.591 229.677 50.0135 229.316Z" fill="#D9EAFB" stroke="#D4D4D4"/>
<path d="M22.3611 213.346L22.3589 213.348C21.9716 213.747 21.6877 214.357 21.5354 215.032C21.3835 215.704 21.3755 216.385 21.488 216.892L21.488 216.892C21.784 218.228 22.7695 219.39 24.1805 220.354C25.5867 221.314 27.3634 222.041 29.1301 222.517L29.1321 222.518C32.4792 223.435 35.7988 223.759 39.3607 223.543C38.8094 221.71 37.6241 219.719 36.0417 217.946C34.2958 215.99 32.1013 214.338 29.8221 213.467C29.6842 213.415 29.5487 213.363 29.4149 213.312C28.2497 212.864 27.2212 212.469 26.0125 212.5C25.9776 212.501 25.9428 212.502 25.908 212.502C25.1974 212.52 24.5046 212.537 23.8782 212.65C23.2235 212.768 22.7105 212.981 22.3611 213.346Z" fill="#D9EAFB" stroke="#D4D4D4"/>
<path d="M51.9725 230.213C53.0596 228.669 53.7913 226.471 54.1002 224.061C54.4409 221.404 54.2593 218.551 53.5219 216.147L53.5219 216.147C53.112 214.809 52.497 213.423 51.6094 212.312C51.1472 211.734 50.7635 211.325 50.3552 211.036C49.9583 210.756 49.5202 210.577 48.9324 210.495C48.2985 210.411 47.5552 210.427 46.8868 210.571C46.2069 210.717 45.6753 210.978 45.3816 211.323C44.4946 212.377 44.138 213.854 44.2003 215.545C44.2625 217.233 44.7415 219.082 45.4614 220.808L45.4619 220.809C46.8252 224.099 49.4609 227.35 51.9725 230.213Z" fill="#D9EAFB" stroke="#D4D4D4"/>
<path d="M33.4993 236.977L33.4994 236.978C33.5502 238.123 34.2932 239.007 35.2508 239.568C37.6949 240.975 41.627 240.572 44.7297 238.579L44.7309 238.579C47.6948 236.687 49.9157 234.068 52.2308 231.164C50.5148 230.342 48.2321 229.867 45.8318 229.837C43.1816 229.804 40.442 230.315 38.2272 231.445L37.9999 231L38.2278 231.445C37.9865 231.569 37.7683 231.675 37.567 231.774C36.6737 232.211 36.1168 232.484 35.376 233.329C34.8956 233.878 34.405 234.517 34.0443 235.169C33.6789 235.829 33.4751 236.45 33.4993 236.977Z" fill="#D9EAFB" stroke="#D4D4D4"/>
<path d="M68.0958 243.209C69.3962 241.863 70.6041 239.889 71.4447 237.67C72.3773 235.208 72.8386 232.495 72.5046 230.068L72.5045 230.067C72.4806 229.891 72.4583 229.719 72.4365 229.549C72.2804 228.339 72.1447 227.287 71.5632 226.243C71.2159 225.62 70.7954 224.997 70.3247 224.492C69.8502 223.983 69.3534 223.626 68.8584 223.48L68.8584 223.48L68.8537 223.478C68.345 223.322 67.6669 223.357 66.9856 223.543C66.3066 223.728 65.6986 224.044 65.3342 224.372L65.3342 224.372C64.3294 225.275 63.646 226.741 63.3273 228.47C63.01 230.191 63.0652 232.119 63.4863 233.884L63.4866 233.885C64.2361 237.058 65.9437 239.779 67.7708 242.691C67.8788 242.863 67.9872 243.036 68.0958 243.209Z" fill="#D9EAFB" stroke="#D4D4D4"/>
<path d="M68.2087 244.044C66.6298 242.984 64.4252 242.232 62.027 241.902C59.3784 241.537 56.5495 241.695 54.1549 242.475L54.1536 242.476C52.8046 242.911 51.4138 243.48 50.3198 244.384C49.1773 245.34 48.6216 245.953 48.497 247.055C48.4395 247.586 48.6456 248.288 49.0243 248.987C49.3985 249.677 49.8952 250.28 50.3102 250.608L50.3117 250.609C52.4928 252.348 55.3185 252.056 58.7999 250.542C62.0665 249.11 65.3982 246.578 68.2087 244.044Z" fill="#D9EAFB" stroke="#D4D4D4"/>
<path d="M82.2783 240.415L82.2779 240.416C80.0101 241.932 79.1457 245.238 79.4978 248.953L79.4979 248.954C79.8195 252.452 80.7793 255.885 82.2104 259.232C83.7031 258.088 85.1971 256.339 86.3569 254.299C87.6433 252.036 88.4942 249.456 88.5 246.999C88.4999 245.701 88.0746 244.575 87.5338 243.181C87.3917 242.814 87.268 242.407 87.1487 242.014L87.146 242.005C87.0254 241.607 86.9083 241.221 86.7733 240.862C86.4904 240.11 86.1827 239.636 85.7908 239.454C85.3556 239.255 84.7513 239.296 84.0663 239.52C83.3971 239.74 82.7427 240.104 82.2783 240.415Z" fill="#D9EAFB" stroke="#D4D4D4"/>
<path d="M82.1981 258.932C80.8193 257.722 78.8561 256.703 76.6567 256.052C74.2113 255.329 71.5185 255.075 69.0846 255.493L69.083 255.493C68.4717 255.596 67.8485 255.873 67.1999 256.238C66.8038 256.461 66.4331 256.695 66.0562 256.933C65.7965 257.097 65.5338 257.263 65.2578 257.428M65.2578 257.428C65.2581 257.428 65.2585 257.428 65.2588 257.428L65 257L65.257 257.429C65.2573 257.429 65.2575 257.429 65.2578 257.428Z" fill="#D9EAFB" stroke="#D4D4D4"/>
<path d="M99.5116 267.892L99.5117 267.892C99.7351 266.88 99.7142 265.191 99.5085 264.092C99.428 263.662 99.2336 263.419 98.9472 263.199C98.7924 263.08 98.6144 262.971 98.3999 262.843C98.3845 262.834 98.3689 262.824 98.3532 262.815C98.157 262.698 97.9353 262.566 97.7134 262.41C97.2611 262.095 96.7805 261.786 96.3145 261.594C95.8415 261.399 95.4646 261.36 95.1758 261.468L95.1731 261.469C94.147 261.848 93.3115 262.738 92.683 263.944C92.0567 265.147 91.6627 266.616 91.4967 268.056C91.1984 270.739 91.7038 273.488 92.3526 276.309C93.7557 275.665 95.2532 274.559 96.5315 273.18C97.9727 271.626 99.099 269.765 99.5116 267.892Z" fill="#D9EAFB" stroke="#D4D4D4"/>
<path d="M92.2198 275.782C91.3229 274.69 89.8813 273.705 88.176 272.951C86.2283 272.09 83.9979 271.557 81.9858 271.5L81.9845 271.5C81.6738 271.49 81.3951 271.459 81.1422 271.426C81.0661 271.416 80.9941 271.406 80.9248 271.396C80.7566 271.373 80.6042 271.352 80.4477 271.337C80.031 271.298 79.6444 271.307 79.1656 271.472C78.7142 271.633 78.1492 272.079 77.6144 272.647C77.0876 273.206 76.653 273.817 76.4462 274.226L76.4461 274.226C76.1975 274.717 76.1318 274.913 76.1302 275.059C76.1289 275.181 76.1733 275.334 76.4228 275.733C76.986 276.615 78.1005 277.361 79.5028 277.862C80.8944 278.359 82.5027 278.592 83.9681 278.501C85.4231 278.405 86.8884 277.972 88.3718 277.403C89.2416 277.069 90.0799 276.705 90.9226 276.339C91.3523 276.153 91.7831 275.966 92.2198 275.782Z" fill="#D9EAFB" stroke="#D4D4D4"/>
<path d="M369.292 272.406C368.272 273.139 367.237 273.875 366.187 274.605C367.556 273.791 368.899 272.921 370.216 271.958C370.208 271.962 370.201 271.965 370.193 271.968L370.187 271.97C369.832 272.11 369.546 272.223 369.292 272.406L369.292 272.406ZM370.703 271.245C370.703 271.244 370.702 271.244 370.702 271.244L370.703 271.245Z" fill="#D9EAFB" stroke="#D4D4D4"/>
<path d="M367.713 273.66C369.523 274.029 371.707 273.841 373.914 273.196C376.355 272.483 378.775 271.224 380.677 269.618L380.679 269.617C380.912 269.421 381.136 269.242 381.355 269.068C381.68 268.809 381.993 268.56 382.307 268.278C382.811 267.825 383.246 267.345 383.56 266.763C383.908 266.117 384.226 265.467 384.417 264.837C384.608 264.208 384.659 263.639 384.519 263.137C384.362 262.595 383.962 262.003 383.442 261.496C382.921 260.988 382.333 260.619 381.859 260.48L367.713 273.66ZM367.713 273.66C367.723 273.639 367.733 273.618 367.743 273.598C369.322 270.248 370.933 266.83 373.357 264.35L373.359 264.348C374.649 263.016 376.123 261.842 377.612 261.108C379.104 260.371 380.561 260.099 381.859 260.48L367.713 273.66Z" fill="#D9EAFB" stroke="#D4D4D4"/>
<path d="M365.937 279.496L365.936 279.496C362.493 279.052 359.246 279.612 355.689 280.364C356.47 282.139 357.832 284.063 359.552 285.709C361.449 287.524 363.742 288.966 366.111 289.512C367.394 289.8 369.499 289.735 370.92 289.506C371.577 289.401 372.058 289.193 372.46 288.903C372.869 288.609 373.219 288.215 373.597 287.703C373.963 287.206 374.289 286.544 374.473 285.88C374.661 285.205 374.683 284.598 374.53 284.172C374.058 282.897 372.869 281.841 371.271 281.038C369.682 280.239 367.757 279.725 365.937 279.496Z" fill="#D9EAFB" stroke="#D4D4D4"/>
<path d="M352.499 269.973C352.696 273.482 353.891 276.797 355.237 280.237C356.733 279.149 358.177 277.416 359.305 275.364C360.558 273.087 361.398 270.463 361.5 267.979L361.5 267.979C361.543 266.952 361.225 266.083 360.835 265.02C360.735 264.749 360.631 264.465 360.527 264.163C360.428 263.874 360.333 263.559 360.239 263.248C360.214 263.168 360.19 263.087 360.166 263.007C360.046 262.613 359.923 262.228 359.783 261.873C359.493 261.136 359.171 260.648 358.773 260.446L358.773 260.446L358.768 260.443C358.365 260.232 357.786 260.272 357.092 260.511C356.419 260.744 355.753 261.125 355.261 261.426C354.122 262.126 353.379 263.303 352.945 264.807C352.511 266.314 352.4 268.11 352.499 269.973Z" fill="#D9EAFB" stroke="#D4D4D4"/>
<path d="M354.511 295.105L354.51 295.103C354.235 293.792 353.256 292.645 351.838 291.682C350.425 290.723 348.636 289.987 346.863 289.481C343.513 288.525 340.225 288.305 336.636 288.468C337.165 290.269 338.346 292.238 339.933 294.007C341.687 295.962 343.899 297.63 346.183 298.535C346.224 298.551 346.265 298.567 346.306 298.583C347.571 299.079 348.672 299.511 349.996 299.5C350.735 299.494 351.459 299.471 352.108 299.345C352.755 299.22 353.278 299.002 353.651 298.642C354.038 298.261 354.318 297.659 354.467 296.979C354.616 296.303 354.62 295.612 354.511 295.105Z" fill="#D9EAFB" stroke="#D4D4D4"/>
<path d="M334.497 278.05C334.151 281.487 334.529 284.814 335.347 288.304C337.118 287.465 339.071 285.884 340.74 283.937C342.578 281.794 344.023 279.266 344.51 276.899L344.511 276.897C344.782 275.609 344.772 274.469 344.509 273.094L344.509 273.093C344.382 272.426 344.179 271.932 343.897 271.525C343.613 271.115 343.233 270.767 342.717 270.412C342.188 270.05 341.521 269.712 340.864 269.519C340.194 269.323 339.606 269.298 339.184 269.465L339.18 269.466C337.892 269.965 336.811 271.168 335.998 272.761C335.189 274.344 334.679 276.252 334.497 278.05Z" fill="#D9EAFB" stroke="#D4D4D4"/>
<path d="M329.562 305.382C330.464 305.209 331.255 304.925 331.704 304.597C332.162 304.259 332.364 303.909 332.459 303.527C332.561 303.116 332.544 302.644 332.501 302.035L332.501 302.034C332.408 300.648 331.609 299.137 330.361 297.76C329.121 296.39 327.48 295.202 325.797 294.457L325.797 294.457L325.795 294.456C322.826 293.121 319.754 292.879 316.357 292.611C316.094 292.59 315.828 292.57 315.56 292.548C316.097 296.517 319.094 301.193 323.247 303.566C323.57 303.749 323.893 303.957 324.208 304.161C324.225 304.172 324.242 304.183 324.259 304.194C324.561 304.389 324.856 304.581 325.157 304.758C325.796 305.134 326.419 305.419 327.065 305.504L327.065 305.504L327.069 305.505C327.745 305.6 328.669 305.553 329.562 305.382Z" fill="#D9EAFB" stroke="#D4D4D4"/>
<path d="M325.5 279.021L325.5 279.022C325.548 280.131 325.18 281.103 324.767 282.196C324.689 282.402 324.609 282.612 324.53 282.828M325.5 279.021L325 283M325.5 279.021C325.473 278.387 325.247 277.682 324.899 277.019C324.552 276.358 324.102 275.771 323.664 275.37M325.5 279.021L324 275M324.53 282.828C324.53 282.828 324.53 282.829 324.53 282.829L325 283M324.53 282.828C324.53 282.828 324.531 282.827 324.531 282.827L325 283M324.53 282.828C323.691 285.103 322.05 287.28 320.091 289.017C318.313 290.594 316.303 291.783 314.447 292.357M325 283C323.318 287.559 318.593 291.643 314.49 292.867C314.474 292.697 314.46 292.527 314.447 292.357M314.447 292.357C314.282 292.408 314.119 292.454 313.956 292.496C313.68 288.887 314.14 285.443 315 282M314.447 292.357C314.192 288.853 314.642 285.498 315.485 282.123M315.485 282.123C315.484 282.123 315.484 282.124 315.484 282.124L315 282M315.485 282.123C315.485 282.122 315.485 282.122 315.485 282.121L315 282M315.485 282.123C315.936 280.362 316.654 278.601 317.615 277.203C318.58 275.801 319.756 274.809 321.115 274.487C321.635 274.363 322.032 274.388 322.4 274.521C322.783 274.66 323.176 274.93 323.664 275.37M315 282C315.924 278.397 317.952 274.723 321 274C322.199 273.716 322.988 274.087 324 275M324 275L323.663 275.369C323.663 275.37 323.663 275.37 323.664 275.37M324 275L323.665 275.371C323.665 275.371 323.664 275.371 323.664 275.37" fill="#D9EAFB" stroke="#D4D4D4"/>
<path d="M303.173 305.531L303.172 305.53C302.185 305.169 301.144 304.356 300.335 303.629C298.935 302.361 297.866 300.521 297.202 298.577C296.619 296.873 296.359 295.126 296.44 293.667C299.049 294.54 301.559 295.804 303.701 297.401L303.703 297.403L303.703 297.403C304.878 298.268 305.911 299.135 306.611 300.059C307.303 300.972 307.644 301.906 307.504 302.932L303.173 305.531ZM303.173 305.531C304.158 305.895 305.031 305.907 305.785 305.549L305.787 305.548M303.173 305.531L305.787 305.548M305.787 305.548C306.13 305.386 306.535 304.966 306.883 304.417M305.787 305.548L306.883 304.417M306.883 304.417C307.227 303.875 307.453 303.305 307.504 302.932L306.883 304.417Z" fill="#D9EAFB" stroke="#D4D4D4"/>
<path d="M303.02 279.5L303.018 279.5C301.984 279.537 300.903 280.04 299.911 280.891C298.923 281.74 298.056 282.909 297.454 284.21C296.315 286.672 295.905 289.555 295.567 292.449C296.988 292.272 298.647 291.707 300.207 290.821C301.988 289.809 303.596 288.404 304.568 286.748C304.807 286.338 304.997 285.696 305.152 284.969C305.273 284.4 305.364 283.819 305.445 283.308C305.466 283.173 305.486 283.044 305.506 282.92C305.659 281.967 305.174 281.169 304.584 280.277C304.309 279.867 304.104 279.693 303.914 279.605C303.717 279.514 303.466 279.482 303.02 279.5Z" fill="#D9EAFB" stroke="#D4D4D4"/>
<path d="M313.627 280.667L313.627 280.666C338.33 253.098 351.865 216.355 351.505 179.441C345.669 178.757 339.754 180.312 334.18 182.466L334.179 182.467C312.495 190.796 292.912 205.259 278.389 223.313C263.873 241.359 254.89 263.2 251.494 286.073C251.023 289.285 250.435 294.177 250.135 299.058C249.844 303.773 249.826 308.424 250.418 311.543C262.367 312.8 274.033 309.139 284.769 303.556C295.597 297.926 305.486 289.763 313.627 280.667Z" fill="#E3E1FF" stroke="#D4D4D4"/>
<path d="M253.629 308.665L253.628 308.665C253.552 308.75 253.501 308.752 253.483 308.752C253.453 308.751 253.405 308.736 253.358 308.69C253.311 308.643 253.286 308.585 253.283 308.533C253.28 308.491 253.289 308.424 253.368 308.338L253.371 308.335C266.554 293.712 278.293 277.469 289.412 261.283L289 261L289.412 261.283C293.999 254.606 298.445 247.846 302.89 241.089C309.264 231.398 315.634 221.714 322.406 212.292L322.406 212.292C328.272 204.129 335.01 196.189 341.568 188.461C342.174 187.747 342.779 187.034 343.381 186.323L343.382 186.322L343.382 186.322C343.461 186.228 343.512 186.228 343.521 186.228L343.521 186.228C343.541 186.227 343.582 186.237 343.627 186.282C343.672 186.327 343.701 186.388 343.705 186.451C343.709 186.506 343.697 186.583 343.618 186.678L253.629 308.665ZM253.629 308.665C260.98 300.519 268.022 291.5 274.599 282.701L253.629 308.665Z" fill="#A4A4ED" stroke="#D4D4D4"/>
<path d="M305.243 275.437L305.241 275.438C299.611 278.546 294.181 281.178 288.178 283.467C282.209 285.756 276.434 287.06 270.252 288.456L270.116 288.486C270.006 288.515 269.82 288.607 269.669 288.741C269.536 288.859 269.507 288.935 269.501 288.956C269.503 288.963 269.505 288.972 269.509 288.982C269.52 289.011 269.536 289.047 269.559 289.088C269.604 289.171 269.668 289.26 269.739 289.338C269.811 289.418 269.878 289.47 269.925 289.496C269.929 289.498 269.933 289.5 269.936 289.502C273.503 288.685 277.353 287.618 280.85 286.523L280.851 286.523C287.036 284.593 292.94 282.331 298.785 279.549L298.785 279.548C304.631 276.771 310.279 273.184 315.723 269.583C315.779 269.546 315.801 269.519 315.808 269.506C315.805 269.497 315.796 269.476 315.766 269.447C315.664 269.346 315.466 269.292 315.276 269.417C312.23 271.437 308.423 273.669 305.243 275.437ZM269.955 289.51C269.955 289.51 269.954 289.509 269.953 289.509C269.954 289.51 269.955 289.51 269.955 289.51ZM315.812 269.497C315.811 269.497 315.81 269.499 315.81 269.503C315.812 269.499 315.812 269.497 315.812 269.497Z" fill="#A4A4ED" stroke="#D4D4D4"/>
<path d="M286.477 235.15L286.477 235.149C287.001 233.469 287.707 231.571 288.431 229.664C288.545 229.363 288.66 229.061 288.774 228.761C289.373 227.189 289.964 225.635 290.449 224.232C290.546 224.379 290.605 224.616 290.528 224.834L290.527 224.838L290.527 224.838C289.97 226.461 289.377 228.114 288.778 229.784C287.229 234.104 285.639 238.54 284.516 242.875C282.96 248.861 282.704 254.843 282.5 260.983M286.477 235.15L283 261M286.477 235.15C284.61 241.092 283.418 246.875 282.494 253.073M286.477 235.15L282.494 253.073M282.5 260.983C282.5 260.983 282.5 260.983 282.5 260.983L283 261M282.5 260.983C282.5 260.983 282.5 260.983 282.5 260.982L283 261M282.5 260.983C282.471 261.795 282.425 262.603 282.379 263.409C282.248 265.681 282.118 267.942 282.393 270.268M283 261C282.97 261.838 282.923 262.661 282.876 263.476C282.731 265.999 282.591 268.445 283 271M282.393 270.268C282.425 270.485 282.459 270.703 282.493 270.921C282.503 270.982 282.518 271.033 282.533 271.074L283 271M282.393 270.268C282.419 270.486 282.448 270.704 282.482 270.922L282.494 253.074C282.494 253.074 282.494 253.074 282.494 253.073M282.393 270.268C281.534 264.447 281.631 258.93 282.494 253.073M283 271C283.156 271.982 282.156 271.969 282 271L282.482 270.923C282.49 270.975 282.498 271.027 282.506 271.079L283 271ZM290.344 224.121C290.344 224.122 290.346 224.123 290.349 224.124C290.346 224.122 290.344 224.121 290.344 224.121ZM290.51 224.084C290.51 224.083 290.508 224.085 290.506 224.088C290.509 224.085 290.51 224.084 290.51 224.084Z" fill="#A4A4ED" stroke="#D4D4D4"/>
<path d="M302.229 243.449C310.269 240.516 318.284 236.418 325.29 231.407L302.229 243.449ZM302.229 243.449C302.373 243.548 302.609 243.609 302.83 243.53C304.915 242.774 307.137 241.759 309.214 240.809C309.408 240.72 309.601 240.632 309.792 240.545L309.793 240.545C317.589 237.007 325.048 232.138 331.679 226.616C331.772 226.539 331.772 226.491 331.771 226.485C331.771 226.484 331.771 226.484 331.771 226.484C331.772 226.467 331.763 226.428 331.717 226.382C331.671 226.336 331.607 226.306 331.542 226.301C331.486 226.297 331.41 226.31 331.32 226.384C330.749 226.861 330.137 227.395 329.504 227.947C328.123 229.15 326.645 230.439 325.291 231.407L302.229 243.449ZM302.092 243.507C302.092 243.507 302.094 243.506 302.096 243.504C302.093 243.506 302.092 243.507 302.092 243.507ZM302.13 243.355C302.129 243.352 302.128 243.35 302.128 243.35C302.128 243.35 302.129 243.352 302.13 243.355Z" fill="#A4A4ED" stroke="#D4D4D4"/>
<path d="M321.457 197.201C318.12 204.809 316.671 212.53 316.501 220.913C316.531 219.718 316.706 218.548 316.908 217.404C316.968 217.065 317.03 216.729 317.091 216.396C317.244 215.57 317.394 214.758 317.504 213.934C318.598 205.714 321.428 197.825 325.567 190.749C325.682 190.55 325.62 190.334 325.51 190.223C325.494 190.208 325.482 190.198 325.472 190.192C325.462 190.204 325.449 190.222 325.433 190.25L325.433 190.25L325.432 190.252C325.079 190.857 324.675 191.517 324.257 192.2C323.236 193.871 322.127 195.683 321.457 197.201ZM325.493 190.174C325.493 190.174 325.491 190.175 325.487 190.178C325.491 190.176 325.493 190.175 325.493 190.174Z" fill="#A4A4ED" stroke="#D4D4D4"/>
<path d="M271 371C278.513 371 285 364.559 285 357C285 349.429 278.501 344 271 344H104C103.023 344 102 342.984 102 342V342C102 341.064 103.071 340 104 340H274C283.587 340 291 348.339 291 358C291 367.661 283.587 375 274 375H104C102.879 375 102 374.13 102 373V373C102 371.943 102.951 371 104 371H271Z" fill="#FD9DFF"/>
<path d="M285 358C285 365.459 279.428 371 272 371H104V370C106.134 361.75 106.134 353.238 104 345V344H272C279.428 344.012 285 350.553 285 358Z" fill="#EDEDF9"/>
<path d="M281 360C281 352.494 275.427 347 268 347H105C104.867 346.41 104.157 345.59 104 345V344H272C279.439 344 285 350.506 285 358C285 363.554 281.726 367.892 277 370C279.508 367.542 281 363.819 281 360Z" fill="#DCDCEF"/>
<path d="M161 354H234V355H161V354Z" fill="#DCDCEF"/>
<path d="M115 364H188V365H115V364Z" fill="#DCDCEF"/>
<path d="M207 355V371L200 365L193 371L194 355H207Z" fill="#FEFA3A"/>
<path d="M92 341H256C262.276 341 267 336.347 267 330V326C267 319.653 262.276 315 256 315H92C85.7238 315 81 319.653 81 326V330C81 336.347 85.7238 341 92 341Z" fill="#FFFC59"/>
<path opacity="0.43" d="M107 315H110V341H107V315Z" fill="#505050"/>
<path opacity="0.43" d="M120 315H123V341H120V315Z" fill="#505050"/>
<path d="M267 322V326L121 315H258C262.873 315 267 319.299 267 322Z" fill="#EDEB79"/>
<path opacity="0.43" d="M242 315H245V341H242V315Z" fill="#505050"/>
<path opacity="0.43" d="M229 315H232V341H229V315Z" fill="#505050"/>
<path d="M257 298C257 305.459 250.934 311 244 311H88V310C89.9932 301.75 89.9932 293.238 88 285V284H244C250.934 284 257 290.541 257 298Z" fill="#EDEDF9"/>
<path d="M245 311C251.987 311 257 304.559 257 297C257 289.429 252 284 245 284H89C88.0964 284 87 282.984 87 282V282C87 281.064 88.1326 280 89 280H247C255.927 280 263 288.339 263 298C263 307.661 255.927 315 247 315H89C87.9519 315 87 314.13 87 313V313C87 311.943 88.0242 311 89 311H245V311Z" fill="#90A8FF"/>
<path d="M253 300C253 292.494 247.934 287 241 287H89C88.8792 286.41 88.1329 285.59 88 285V284H244C250.946 284 257 290.506 257 298C257 303.554 253.421 307.892 249 310C251.356 307.542 253 303.819 253 300Z" fill="#DCDCEF"/>
<path d="M161 294H234V295H161V294Z" fill="#DCDCEF"/>
<path d="M115 304H188V305H115V304Z" fill="#DCDCEF"/>
<path d="M124 208C117.44 208 112 202.494 112 196C112 189.506 117.44 184 124 184H270C270.847 184 272 182.839 272 182V182C272 181.197 271.811 181 271 181H122C113.624 181 107 187.721 107 196C107 204.291 113.636 211 122 211H270C270.98 211 272 209.97 272 209V209C272 208.089 270.92 208 270 208H124V208Z" fill="#FFFC59"/>
<path d="M112 196C112 202.63 117.513 208 124 208H270V207C268.136 199.673 268.136 192.327 270 185V184H124C117.501 184 112 189.37 112 196Z" fill="#EDEDF9"/>
<path d="M115 198C115 191.651 120.513 186 127 186H269C269.109 185.508 269.879 185.492 270 185V184H124C117.513 184 112 188.651 112 195C112 199.698 114.873 204.219 119 206C116.81 203.927 115 201.233 115 198Z" fill="#DCDCEF"/>
<path d="M157 193H221V194H157V193Z" fill="#DCDCEF"/>
<path d="M139 201H203V202H139V201Z" fill="#DCDCEF"/>
<path d="M101 280H265C271.276 280 276 275.229 276 269V257C276 250.771 271.276 246 265 246H101C94.7238 246 90 250.771 90 257V269C90 275.229 94.7117 280 101 280Z" fill="#FFFC59"/>
<path opacity="0.43" d="M116 246H119V280H116V246Z" fill="#15208A"/>
<path opacity="0.43" d="M129 246H132V280H129V246Z" fill="#15208A"/>
<path d="M276 255V260L130 246H267C271.885 246 276 250.286 276 255Z" fill="#EDEB79"/>
<path opacity="0.43" d="M251 246H254V280H251V246Z" fill="#15208A"/>
<path opacity="0.43" d="M238 246H241V280H238V246Z" fill="#15208A"/>
<path d="M269 241C275.122 241 280 235.343 280 228C280 220.645 275.122 214 269 214H132C131.205 214 131 213.956 131 213V213C131 212.091 131.241 211 132 211H271C278.81 211 285 218.615 285 228C285 237.385 278.81 245 271 245H133C132.084 245 131 244.098 131 243V243C131 241.973 132.144 241 133 241H269V241Z" fill="#FD9DFF"/>
<path d="M280 228C280 235.459 275.042 241 269 241H133V240C134.73 231.75 134.73 223.238 133 215V214H269C275.042 214.012 280 220.553 280 228Z" fill="#EDEDF9"/>
<path d="M277 230C277 222.494 272.042 217 266 217H134C133.892 216.41 133.132 215.59 133 215V214H269C275.042 214 280 220.506 280 228C280 233.554 276.844 237.892 273 240C275.042 237.542 277 233.819 277 230Z" fill="#DCDCEF"/>
<path d="M179 225H239V226H179V225Z" fill="#DCDCEF"/>
<path d="M141 234H201V235H141V234Z" fill="#DCDCEF"/>
<path d="M185 235V250L179 244L174 250L175 235H185Z" fill="#505050"/>
<path d="M152 45C153.167 51.2327 157.174 56.9132 162 61C162.168 61.1447 161.964 61.771 162 62C162.036 62.217 162.144 61.8312 162 62C161.422 62.6751 159.854 62.7348 159 63C155.811 63.9886 153.346 64.988 150 65C149.374 65 148.481 65.4099 148 65C147.651 64.6986 147.156 63.422 147 63C145.76 59.5642 144.794 56.5684 144 53C143.964 52.8433 143.964 52.1688 144 52C144.06 51.6745 144.723 52.1688 145 52C147.07 50.686 148.472 48.9168 150 47" fill="#FFBCB7"/>
<path d="M144 52C144.063 51.6721 144.711 52.17 145 52C147.161 50.6764 148.404 48.9308 150 47L153 45C153.113 45.5586 152.849 46.4536 153 47C152.786 47.5465 153.025 47.32 153 48C152.887 50.5137 149.993 53.6806 149 56C147.668 59.1087 147.957 62.0492 149 65C148.786 64.9393 148.176 65.1457 148 65C147.636 64.6964 147.163 64.425 147 64C145.706 60.5392 144.829 56.5944 144 53C143.962 52.8422 143.962 52.1579 144 52Z" fill="#EF7E7B"/>
<path d="M127 61C128.231 58.3781 128 55.7172 127 53C126.476 51.5699 125.244 49.5016 125 48C124.646 45.8072 125.903 43.9426 127 42C128.097 40.0574 129.561 38.1809 130 36C130.573 33.1159 129.28 29.9068 127 28L124 29C125.085 32.1105 125.536 36.0802 124 39C123.159 40.5851 121.451 42.26 121 44C120.244 46.9437 122.415 49.402 124 52C125.585 54.61 126.463 58.0087 126 61" fill="#06005A"/>
<path d="M138 14C134.306 14.3512 130.231 16.0214 128 19C125.769 21.9786 125.328 26.3312 126 30C126.336 31.8526 126.724 33.1354 127 35C127.276 36.8647 127.319 39.6681 126 41C125.496 41.4965 125.456 41.4551 125 42C124.544 42.5449 123.592 43.4188 124 44C124.528 44.7628 125.244 44.4551 126 45C126.42 45.3027 126.772 45.5399 127 46C128.919 49.9715 132.133 54.6582 135 58C135.156 58.1816 134.784 57.9153 135 58C135.336 58.1211 135.664 58.1453 136 58C139.682 56.4259 143.677 54.2521 147 52C150.323 49.7479 153.429 46.7172 155 43C156.487 39.5007 156.175 35.6204 155 32" fill="#FFBCB7"/>
<path d="M128 37C128 37.5455 128.726 38 129 38C129.274 38 129 37.5568 129 37C129 36.4432 129.274 36 129 36C128.726 36 128 36.4432 128 37Z" fill="#06005A"/>
<path opacity="0.51" d="M130 43C130 44.6576 131.342 46 133 46C134.658 46 136 44.6576 136 43C136 41.3424 134.658 40 133 40C131.342 40 130 41.3424 130 43Z" fill="#F96662"/>
<path d="M128 49L132 48C132 48 129.961 49.7491 129 50C128.039 50.2509 128 49 128 49Z" fill="#F96662"/>
<path d="M159 21C164.102 22.14 168.217 20.76 170 20C171.783 19.2281 173.126 17.7456 174 16C174.862 14.2663 175.402 11.9 175 10C173.878 4.76313 169.302 0.581889 164 1.27815e-05C160.953 -0.344363 157.291 0.969385 155 3.00001C152.697 5.03064 151.362 7.99563 152 11" fill="#06005A"/>
<path d="M124 17C125.998 14.4537 132.154 8.22822 141 8.00001C146.255 7.67571 150.386 8.77798 154 11C157.615 13.222 159.848 16.3246 162 20C164.58 24.396 166.178 26.8833 166 32C165.822 37.1167 163.971 41.8171 160 45C158.942 45.8528 155.356 47.8439 154 48C152.324 48.1922 152.249 49.1531 151 48C149.752 46.859 149.63 44.5855 149 43C148.311 41.2584 147.688 39.7927 146 39C144.621 38.3514 142.534 38.5916 141 39C141.012 39.3724 141.036 39.6277 141 40C140.762 42.7025 140.046 45.5017 139 48C137.954 50.4983 136.311 53.3816 137 56C137.476 57.7896 139.204 59.3305 140 61C141.51 64.1829 142.13 67.661 141 71H140C140.167 67.3006 138.2 63.9787 136 61C133.812 58.0333 131.477 54.6634 132 51C132.309 48.838 133.215 47.0299 134 45C134.737 43.1023 135.071 41.0419 135 39C134.762 38.8799 135.238 38.1201 135 38C130.934 35.8861 126.485 33.8796 124 30C121.551 26.1325 121.158 20.6153 124 17Z" fill="#06005A"/>
<path d="M164 23C164 23 164.712 23.49 162 20C159.288 16.51 152 9.00001 152 9.00001C152 9.00001 150.872 8.63462 153 13C155.128 17.3654 160.838 21.111 164 23Z" fill="#FEFA3A"/>
<path d="M152 9.00002C152 9.00002 150.52 8.84195 149 11C147.492 13.146 146 18 146 18C146 18 145.898 18.9884 148 17C150.102 15.0117 151.478 11.0975 152 9.00002Z" fill="#FEFA3A"/>
<path d="M152 9.00002C152 9.00002 151.947 7.77602 150 7.00002C148.053 6.22401 144 6.00002 144 6.00002C144 6.00002 143.974 5.7144 146 7.00002C148.015 8.28563 150.381 9.0116 152 9.00002Z" fill="#FEFA3A"/>
<path d="M151 9.00002C151 9.82379 151.176 11 152 11C152.824 11 154 9.82379 154 9.00002C154 8.17624 152.824 8.00002 152 8.00002C151.176 8.00002 151 8.17624 151 9.00002Z" fill="#FEFA3A"/>
<path d="M143 39C142.352 40.5201 142.388 44.6231 144 45C145.066 45.2387 146.149 44.691 147 44C147.838 43.3216 148.556 41.9925 149 41C149.571 39.7437 150.33 38.3443 150 37C149.657 35.6558 148.396 34.9246 147 35C146.022 35.0628 145.546 36.2085 145 37C144.441 37.8292 143.279 38.0703 143 39Z" fill="#FFBCB7"/>
<path d="M144 43C148.178 43 149.602 39.1587 149 36C149.32 36.3949 149.872 36.516 150 37C150.346 38.3628 149.577 39.7136 149 41C148.551 41.9935 147.846 43.2995 147 44C146.154 44.6878 145.076 45.242 144 45C143.257 44.8344 143.154 44.0572 143 43C143.269 43.0128 143.731 43 144 43Z" fill="#EF7E7B"/>
<path d="M89 231C88.3933 236.37 87.2411 242.61 92 251C92.5354 251.931 92.893 251.926 93 253C93.1904 254.921 91.8084 256.379 90 257C88.1798 257.609 85.7132 258.117 84 259C81.9418 260.062 80.6418 262.365 79 264C76.8228 266.172 74.0219 267.475 71 268C70.655 268.06 70.1071 268.346 70 268C69.9405 267.845 69.9405 267.155 70 267C70.7733 265.067 72.6913 264.611 74 263C75.2849 261.413 76.0007 258.79 77 257C77.809 255.544 79.3695 252.54 80 251C81.0232 248.506 80.5711 246.637 80 244C79.429 241.363 78.0232 234.757 77 232" fill="#FFBCB7"/>
<mask id="path-110-inside-2_18_37" fill="white">
<path d="M155 145C140.025 140.065 123.758 137.409 108 138C96.3021 138.446 84.4452 140.963 77 150C71.639 156.515 70.4939 159.579 70 168C69.5422 175.649 70.3254 188.363 71 196C72.1324 208.982 73.0966 222.295 76 235C76.0964 235.422 75.7109 236.686 76 237C76.3012 237.326 76.5663 236.891 77 237C80.6021 237.953 84.3497 238.748 88 238C88.5301 237.891 89.6386 237.386 90 237C90.3855 236.59 89.9277 235.567 90 235C91.1927 226.012 92.241 212.037 93 203C93.6144 195.713 93.6146 193.901 96 187C96.6385 185.154 97.6507 183.424 99 182C101.747 179.104 106.012 178.783 110 179C123.469 179.7 137.796 182.787 151 180"/>
</mask>
<path d="M155 145C140.025 140.065 123.758 137.409 108 138C96.3021 138.446 84.4452 140.963 77 150C71.639 156.515 70.4939 159.579 70 168C69.5422 175.649 70.3254 188.363 71 196C72.1324 208.982 73.0966 222.295 76 235C76.0964 235.422 75.7109 236.686 76 237C76.3012 237.326 76.5663 236.891 77 237C80.6021 237.953 84.3497 238.748 88 238C88.5301 237.891 89.6386 237.386 90 237C90.3855 236.59 89.9277 235.567 90 235C91.1927 226.012 92.241 212.037 93 203C93.6144 195.713 93.6146 193.901 96 187C96.6385 185.154 97.6507 183.424 99 182C101.747 179.104 106.012 178.783 110 179C123.469 179.7 137.796 182.787 151 180" fill="#666565"/>
<path d="M108 138L107.962 137.001L107.963 137.001L108 138ZM77 150L76.2278 149.365L76.2282 149.364L77 150ZM70 168L70.9983 168.059L70.9982 168.06L70 168ZM71 196L71.9961 195.912L71.9962 195.913L71 196ZM76 235L76.9749 234.777L76.9749 234.778L76 235ZM76 237L75.2657 237.679L75.2647 237.678L76 237ZM77 237L77.2429 236.03L77.2558 236.033L77 237ZM88 238L87.7992 237.02L87.7993 237.02L88 238ZM90 237L89.27 236.317L89.2713 236.315L90 237ZM90 235L89.008 234.874L89.0087 234.868L90 235ZM93 203L92.0035 202.916L92.0035 202.916L93 203ZM96 187L95.0549 186.673L95.0549 186.673L96 187ZM99 182L98.2742 181.312L98.2745 181.312L99 182ZM110 179L109.948 179.999L109.946 179.999L110 179ZM154.687 145.95C139.811 141.048 123.662 138.413 108.037 138.999L107.963 137.001C123.854 136.405 140.24 139.083 155.313 144.05L154.687 145.95ZM108.038 138.999C96.4025 139.443 84.9304 141.947 77.7718 150.636L76.2282 149.364C83.96 139.979 96.2017 137.45 107.962 137.001L108.038 138.999ZM77.7722 150.635C75.1119 153.868 73.5672 156.164 72.6075 158.646C71.6471 161.13 71.2437 163.874 70.9983 168.059L69.0017 167.941C69.2502 163.705 69.6663 160.707 70.7421 157.924C71.8188 155.14 73.5271 152.647 76.2278 149.365L77.7722 150.635ZM70.9982 168.06C70.5453 175.628 71.3216 188.277 71.9961 195.912L70.0039 196.088C69.3291 188.449 68.5392 175.67 69.0018 167.94L70.9982 168.06ZM71.9962 195.913C73.1311 208.923 74.0904 222.156 76.9749 234.777L75.0251 235.223C72.1028 222.435 71.1338 209.041 70.0038 196.087L71.9962 195.913ZM76.9749 234.778C77.04 235.063 77.012 235.375 76.9951 235.545C76.9765 235.734 76.9397 235.998 76.9208 236.158C76.8973 236.357 76.8878 236.492 76.8909 236.579C76.8924 236.621 76.896 236.617 76.8876 236.585C76.8804 236.558 76.8472 236.444 76.7353 236.322L75.2647 237.678C74.9268 237.311 74.8989 236.839 74.8922 236.65C74.8833 236.399 74.9099 236.133 74.9346 235.923C74.9639 235.675 74.9874 235.525 75.0049 235.348C75.0242 235.153 75.0082 235.148 75.0251 235.223L76.9749 234.778ZM76.7343 236.321C76.7095 236.294 76.659 236.247 76.5789 236.205C76.4951 236.161 76.4035 236.135 76.3137 236.126C76.1593 236.112 76.0589 236.159 76.1256 236.136C76.1371 236.132 76.15 236.127 76.1719 236.119C76.1913 236.112 76.2187 236.102 76.2477 236.092C76.3061 236.072 76.388 236.046 76.4838 236.024C76.6852 235.979 76.9464 235.956 77.2429 236.03L76.7571 237.97C76.895 238.005 77.0543 237.931 76.775 238.027C76.6835 238.059 76.4333 238.146 76.131 238.118C75.7723 238.085 75.4805 237.911 75.2657 237.679L76.7343 236.321ZM77.2558 236.033C80.8558 236.986 84.3998 237.717 87.7992 237.02L88.2008 238.98C84.2995 239.779 80.3484 238.92 76.7442 237.967L77.2558 236.033ZM87.7993 237.02C87.9477 236.99 88.2722 236.876 88.6274 236.704C88.796 236.622 88.9503 236.538 89.0741 236.459C89.1356 236.42 89.1842 236.386 89.2204 236.358C89.2583 236.329 89.2718 236.315 89.27 236.317L90.73 237.683C90.413 238.022 89.8974 238.311 89.4991 238.504C89.0772 238.708 88.5824 238.901 88.2007 238.98L87.7993 237.02ZM89.2713 236.315C89.1497 236.445 89.152 236.563 89.1554 236.518C89.1588 236.473 89.1549 236.381 89.1287 236.209C89.1164 236.127 89.1017 236.043 89.0847 235.945C89.0685 235.852 89.0499 235.746 89.0343 235.639C89.0056 235.444 88.9716 235.159 89.008 234.874L90.992 235.126C90.9922 235.124 90.9884 235.18 91.0131 235.349C91.0242 235.425 91.0382 235.506 91.055 235.602C91.0711 235.694 91.0899 235.802 91.1062 235.909C91.1373 236.114 91.171 236.391 91.1496 236.67C91.1281 236.951 91.043 237.35 90.7287 237.685L89.2713 236.315ZM89.0087 234.868C90.1972 225.911 91.2427 211.975 92.0035 202.916L93.9965 203.084C93.2393 212.099 92.1882 226.112 90.9913 235.132L89.0087 234.868ZM92.0035 202.916C92.3083 199.301 92.4659 196.968 92.8498 194.689C93.2377 192.386 93.8532 190.15 95.0549 186.673L96.9451 187.327C95.7615 190.751 95.1842 192.871 94.822 195.021C94.4558 197.195 94.3061 199.412 93.9965 203.084L92.0035 202.916ZM95.0549 186.673C95.7363 184.703 96.8194 182.847 98.2742 181.312L99.7258 182.688C98.482 184 97.5408 185.605 96.9451 187.327L95.0549 186.673ZM98.2745 181.312C101.359 178.06 106.057 177.784 110.054 178.002L109.946 179.999C105.968 179.782 102.134 180.149 99.7255 182.688L98.2745 181.312ZM110.052 178.001C113.445 178.178 116.887 178.504 120.331 178.848C123.782 179.193 127.232 179.556 130.673 179.81C137.557 180.319 144.329 180.386 150.793 179.022L151.207 180.978C144.467 182.401 137.474 182.318 130.526 181.805C127.051 181.548 123.568 181.182 120.132 180.838C116.689 180.494 113.289 180.172 109.948 179.999L110.052 178.001Z" fill="#4F4F4F" mask="url(#path-110-inside-2_18_37)"/>
<path d="M107 178C107.896 183.437 110.748 188.509 115 192C115.848 192.693 116.6 192.978 117 194C117.715 195.824 116.611 197.881 115 199C113.389 200.107 111.429 200.662 110 202C108.28 203.618 107.151 206.932 106 209C104.474 211.737 101.822 213.65 99.0001 215C98.673 215.158 98.206 215.292 98.0001 215C97.9032 214.854 97.9758 214.17 98.0001 214C98.2181 211.884 100.164 210.946 101 209C101.824 207.09 101.516 205.031 102 203C102.388 201.346 102.806 197.691 103 196C103.315 193.275 102.296 192.433 101 190C99.7161 187.58 96.7686 183.42 95.0001 181" fill="#FFBCB7"/>
<mask id="path-113-inside-3_18_37" fill="white">
<path d="M184 153C184.652 159.375 184.792 167.716 181 173C175.432 180.756 163.517 181.527 154 182C144.483 182.473 135.236 181.811 127 177C118.763 172.201 111.751 165.738 105 159C95.1572 149.196 85.9007 138.677 76.9999 128C91.4681 142.301 105.157 158.209 110 178C110.097 178.412 110.133 179.6 110 180C109.819 180.557 109.519 180.709 109 181C104.978 183.181 101.034 184.806 96.9999 187C96.4444 187.303 95.6279 188.073 94.9999 188C94.2512 187.903 93.4951 187.582 92.9999 187C86.4905 179.232 80.6157 170.435 74.9999 162C66.848 149.772 58.9782 136.676 57.9999 122C57.7463 118.267 58.4638 113.751 60.9999 111C63.8018 107.958 67.8696 107.964 71.9999 108C88.8715 108.133 106.916 118.413 122 126C137.072 133.599 155.251 153.784 166 131"/>
</mask>
<path d="M184 153C184.652 159.375 184.792 167.716 181 173C175.432 180.756 163.517 181.527 154 182C144.483 182.473 135.236 181.811 127 177C118.763 172.201 111.751 165.738 105 159C95.1572 149.196 85.9007 138.677 76.9999 128C91.4681 142.301 105.157 158.209 110 178C110.097 178.412 110.133 179.6 110 180C109.819 180.557 109.519 180.709 109 181C104.978 183.181 101.034 184.806 96.9999 187C96.4444 187.303 95.6279 188.073 94.9999 188C94.2512 187.903 93.4951 187.582 92.9999 187C86.4905 179.232 80.6157 170.435 74.9999 162C66.848 149.772 58.9782 136.676 57.9999 122C57.7463 118.267 58.4638 113.751 60.9999 111C63.8018 107.958 67.8696 107.964 71.9999 108C88.8715 108.133 106.916 118.413 122 126C137.072 133.599 155.251 153.784 166 131" fill="#797979"/>
<path d="M181 173L181.812 173.583L181.812 173.583L181 173ZM127 177L127.503 176.136L127.504 176.137L127 177ZM105 159L105.706 158.292L105.706 158.292L105 159ZM76.9999 128L76.2318 128.64L77.7029 127.289L76.9999 128ZM110 178L110.971 177.762L110.974 177.772L110 178ZM110 180L109.049 179.691L109.051 179.685L110 180ZM109 181L109.489 181.873L109.477 181.879L109 181ZM96.9999 187L96.5211 186.122L96.5222 186.122L96.9999 187ZM94.9999 188L94.8849 188.993L94.8715 188.992L94.9999 188ZM92.9999 187L92.2384 187.648L92.2335 187.642L92.9999 187ZM74.9999 162L75.832 161.445L75.8323 161.446L74.9999 162ZM57.9999 122L58.9977 121.932L58.9977 121.934L57.9999 122ZM60.9999 111L61.7355 111.677L61.7352 111.678L60.9999 111ZM71.9999 108L71.992 109L71.9911 109L71.9999 108ZM122 126L122.449 125.107L122.45 125.107L122 126ZM184.995 152.898C185.324 156.115 185.529 159.87 185.162 163.509C184.795 167.139 183.852 170.742 181.812 173.583L180.188 172.417C181.94 169.974 182.823 166.764 183.172 163.309C183.519 159.863 183.328 156.26 183.005 153.102L184.995 152.898ZM181.812 173.583C178.833 177.734 174.199 179.952 169.224 181.201C164.251 182.45 158.798 182.763 154.05 182.999L153.95 181.001C158.719 180.764 163.982 180.455 168.737 179.261C173.491 178.068 177.599 176.023 180.188 172.417L181.812 173.583ZM154.05 182.999C144.473 183.474 134.987 182.824 126.496 177.863L127.504 176.137C135.486 180.799 144.493 181.471 153.95 181.001L154.05 182.999ZM126.497 177.864C118.143 172.997 111.056 166.457 104.294 159.708L105.706 158.292C112.446 165.019 119.384 171.405 127.503 176.136L126.497 177.864ZM104.294 159.708C94.4214 149.874 85.143 139.33 76.2318 128.64L77.7681 127.36C86.6583 138.024 95.8931 148.517 105.706 158.292L104.294 159.708ZM77.7029 127.289C92.1859 141.604 106.057 157.681 110.971 177.762L109.029 178.238C104.257 158.738 90.7504 142.997 76.297 128.711L77.7029 127.289ZM110.974 177.772C111.048 178.088 111.081 178.578 111.086 178.993C111.088 179.214 111.083 179.444 111.066 179.656C111.051 179.848 111.022 180.096 110.949 180.315L109.051 179.685C109.045 179.704 109.06 179.654 109.073 179.498C109.083 179.361 109.088 179.194 109.086 179.016C109.082 178.634 109.049 178.324 109.026 178.228L110.974 177.772ZM110.951 180.309C110.812 180.738 110.6 181.073 110.29 181.348C110.028 181.581 109.708 181.75 109.489 181.872L108.511 180.128C108.652 180.049 108.744 179.998 108.826 179.947C108.904 179.9 108.942 179.871 108.964 179.852C108.981 179.836 108.989 179.826 108.996 179.815C109.005 179.8 109.025 179.765 109.049 179.691L110.951 180.309ZM109.477 181.879C107.44 182.984 105.425 183.946 103.436 184.898C101.44 185.852 99.4682 186.796 97.4777 187.879L96.5222 186.122C98.5654 185.01 100.583 184.045 102.573 183.093C104.57 182.139 106.538 181.198 108.523 180.121L109.477 181.879ZM97.4788 187.878C97.3929 187.925 97.279 188 97.1098 188.117C96.9563 188.223 96.7587 188.362 96.5592 188.488C96.3593 188.613 96.1185 188.75 95.8579 188.851C95.6015 188.949 95.2617 189.037 94.8849 188.993L95.115 187.007C95.0522 186.999 95.0499 187.018 95.1406 186.984C95.2271 186.95 95.3429 186.89 95.4951 186.794C95.6476 186.698 95.7975 186.593 95.973 186.472C96.1328 186.361 96.3292 186.227 96.5211 186.122L97.4788 187.878ZM94.8715 188.992C93.952 188.873 92.938 188.47 92.2384 187.648L93.7614 186.352C94.0522 186.693 94.5503 186.933 95.1284 187.008L94.8715 188.992ZM92.2335 187.642C85.6828 179.825 79.7784 170.982 74.1675 162.554L75.8323 161.446C81.4531 169.888 87.2982 178.638 93.7664 186.358L92.2335 187.642ZM74.1679 162.555C66.0212 150.334 58.0001 137.038 57.0022 122.067L58.9977 121.934C59.9563 136.315 67.6748 149.209 75.832 161.445L74.1679 162.555ZM57.0022 122.068C56.7414 118.228 57.4531 113.372 60.2647 110.322L61.7352 111.678C59.4745 114.13 58.7513 118.306 58.9977 121.932L57.0022 122.068ZM60.2644 110.323C63.4161 106.901 67.9778 106.965 72.0088 107L71.9911 109C67.7615 108.963 64.1875 109.015 61.7355 111.677L60.2644 110.323ZM72.0079 107C80.6317 107.068 89.4996 109.726 98.054 113.282C106.604 116.835 114.942 121.331 122.449 125.107L121.551 126.893C113.974 123.082 105.748 118.645 97.2864 115.128C88.8297 111.614 80.2398 109.065 71.992 109L72.0079 107ZM122.45 125.107C126.282 127.039 130.305 129.767 134.268 132.354C138.266 134.962 142.212 137.434 145.997 138.967C149.781 140.5 153.26 141.034 156.383 139.954C159.49 138.881 162.475 136.129 165.096 130.573L166.904 131.427C164.151 137.263 160.833 140.532 157.037 141.845C153.257 143.151 149.234 142.436 145.246 140.82C141.258 139.205 137.161 136.629 133.175 134.028C129.155 131.405 125.254 128.761 121.55 126.893L122.45 125.107Z" fill="#575555" mask="url(#path-113-inside-3_18_37)"/>
<path d="M60.0002 82L39.0002 55C38.464 54.2902 38.0717 55.1097 38.0002 56L36.0002 76L49.0002 96L60.0002 82Z" fill="#FEFA3A"/>
<path d="M70.0002 87L41.0002 54L36.0002 75L70.0002 87Z" fill="#ECEBF2"/>
<path d="M73.0002 87L58.0002 60L36.0002 75L73.0002 87Z" fill="white"/>
<path d="M87 99C83.2174 92.8785 69.5772 72.6506 66 67C65.4562 66.1428 64.9547 65.674 64 66L36 76L57 108C57.3142 108.483 57.4441 109.145 58 109L86 102C86.9668 101.734 87.5197 99.8573 87 99Z" fill="#FEFA3A"/>
<path d="M37.0001 75C37.3024 76.19 37.6458 77.1904 39.0001 78C42.6397 80.1714 45.6627 84.3134 49.0001 87C52.4221 89.7479 56.1427 91.9023 60.0001 94C67.7872 98.2446 77.2092 100.522 86.0001 101C85.9759 101.012 86.0363 100.988 86.0001 101L58.0001 109C57.4438 109.147 57.3144 108.491 57.0001 108L36.0001 75H37.0001Z" fill="#EAE632"/>
<path d="M184.502 159.05L184.502 159.051C184.539 159.403 184.498 159.764 184.381 160.039C184.276 160.285 184.126 160.436 183.929 160.501C183.918 160.485 183.904 160.463 183.887 160.433C183.861 160.389 183.835 160.341 183.803 160.28L183.801 160.275C183.769 160.216 183.731 160.145 183.69 160.074C183.607 159.933 183.492 159.762 183.324 159.619L183.316 159.612L183.316 159.612C177.147 154.59 170.093 151.146 162.86 148.049C160.813 147.172 158.754 146.325 156.697 145.477C151.464 143.323 146.238 141.171 141.231 138.557C141.122 138.499 141.002 138.438 140.874 138.372C140.499 138.18 140.058 137.954 139.633 137.701C139.044 137.35 138.599 137.011 138.422 136.732L138.421 136.731C138.416 136.722 138.411 136.715 138.407 136.708C138.436 136.651 138.481 136.552 138.506 136.436C138.542 136.267 138.537 136.084 138.485 135.879M184.502 159.05L138.485 135.878C138.485 135.878 138.485 135.878 138.485 135.879M184.502 159.05C183.667 150.656 183.637 141.876 183.607 133.249C183.594 129.458 183.581 125.697 183.5 122.011C183.234 109.905 182.427 98.5661 178.527 87.1618C174.67 75.8853 167.15 64.99 157.059 58.6262C154.529 60.9161 152.387 61.5752 150.483 62.0445C150.312 62.0866 150.144 62.1271 149.979 62.167C148.251 62.5835 146.815 62.9297 145.349 64.3581L145.347 64.3597C145.044 64.6524 144.526 65.3072 143.882 66.1887C143.248 67.0578 142.515 68.1139 141.791 69.1816C140.514 71.0633 139.269 72.9708 138.638 73.9371C138.554 74.0667 138.48 74.1793 138.419 74.2727C133.051 82.5229 131.128 90.1596 131.5 99.9811L131.5 99.9817M184.502 159.05L131.5 99.9817M138.485 135.879C138.209 134.767 137.843 133.557 137.481 132.363L137.478 132.355C137.114 131.152 136.754 129.965 136.485 128.88M138.485 135.879L136.485 128.88M136.485 128.88C134.097 119.235 131.861 109.841 131.5 99.9817M136.485 128.88L131.5 99.9817" fill="#FD9DFF" stroke="#A871A9"/>
<path d="M137 74C137.794 75.8045 139.783 77.1332 142 77C150.178 76.4914 158.798 76.2595 167 75C167.853 84.7007 166.369 94.8253 161 103C154.99 112.144 145.482 118.265 136 123C134.222 115.298 132.284 107.896 132 100C131.692 91.2076 133.065 81.7751 137 74Z" fill="#EF94F1"/>
<mask id="path-122-inside-4_18_37" fill="white">
<path d="M71.9998 101C70.4034 101.875 68.2646 101.294 66.9998 100C65.7226 98.7178 65.1295 97.4021 63.9998 96C62.6367 94.2983 59.7136 92.8096 56.9998 91C56.6805 90.7843 55.9015 91.6285 55.9998 92C56.4418 93.5819 58.5945 95.526 58.9998 97C59.0489 97.1678 59.1103 97.8682 58.9998 98C58.8892 98.1318 59.1717 98.024 58.9998 98C55.9666 97.7004 53.8364 95.0666 50.9998 94C50.5822 93.8442 49.4296 93.8802 48.9998 94C48.0788 94.2756 48.7664 96.0892 48.9998 97C49.4664 98.8935 51.5139 100.718 52.9998 102C58.4152 106.626 64.8774 107.971 71.9998 107"/>
</mask>
<path d="M71.9998 101C70.4034 101.875 68.2646 101.294 66.9998 100C65.7226 98.7178 65.1295 97.4021 63.9998 96C62.6367 94.2983 59.7136 92.8096 56.9998 91C56.6805 90.7843 55.9015 91.6285 55.9998 92C56.4418 93.5819 58.5945 95.526 58.9998 97C59.0489 97.1678 59.1103 97.8682 58.9998 98C58.8892 98.1318 59.1717 98.024 58.9998 98C55.9666 97.7004 53.8364 95.0666 50.9998 94C50.5822 93.8442 49.4296 93.8802 48.9998 94C48.0788 94.2756 48.7664 96.0892 48.9998 97C49.4664 98.8935 51.5139 100.718 52.9998 102C58.4152 106.626 64.8774 107.971 71.9998 107" fill="#FFBCB7"/>
<path d="M66.9998 100L67.7083 99.2943L67.7149 99.3011L66.9998 100ZM63.9998 96L63.2211 96.6274L63.2193 96.6252L63.9998 96ZM56.9998 91L56.445 91.832L56.4399 91.8286L56.9998 91ZM55.9998 92L55.0366 92.2692L55.033 92.2557L55.9998 92ZM58.9998 97L58.04 97.281L58.0377 97.2731L58.0355 97.2651L58.9998 97ZM58.9998 98L59.0981 97.0049L59.118 97.0068L59.1378 97.0096L58.9998 98ZM50.9998 94L51.3493 93.0631L51.3517 93.064L50.9998 94ZM48.9998 94L48.713 93.042L48.7221 93.0393L48.7312 93.0368L48.9998 94ZM48.9998 97L49.9685 96.7518L49.9707 96.7607L48.9998 97ZM52.9998 102L52.3503 102.76L52.3464 102.757L52.9998 102ZM72.4803 101.877C70.3925 103.021 67.7772 102.226 66.2846 100.699L67.7149 99.3011C68.752 100.362 70.4142 100.729 71.5192 100.123L72.4803 101.877ZM66.2912 100.706C65.5853 99.9969 65.0758 99.2852 64.616 98.605C64.1476 97.912 63.7516 97.2858 63.2211 96.6274L64.7784 95.3726C65.3777 96.1163 65.8431 96.849 66.273 97.4849C66.7115 98.1336 67.1371 98.7209 67.7083 99.2943L66.2912 100.706ZM63.2193 96.6252C62.6458 95.9093 61.6942 95.1851 60.459 94.3774C59.8509 93.9798 59.2006 93.5783 58.519 93.1548C57.8419 92.7341 57.1382 92.2942 56.445 91.832L57.5545 90.168C58.2183 90.6106 58.8976 91.0354 59.5745 91.456C60.2468 91.8737 60.9213 92.2901 61.5536 92.7035C62.7991 93.518 63.9906 94.3891 64.7802 95.3748L63.2193 96.6252ZM56.4399 91.8286C56.617 91.9483 56.7992 91.9715 56.9222 91.9639C57.0341 91.9571 57.1036 91.9259 57.1198 91.9183C57.1489 91.9046 57.1215 91.9134 57.0629 91.9741C57.009 92.03 56.9748 92.0825 56.9635 92.105C56.9583 92.1154 56.9693 92.0971 56.9791 92.0518C56.9879 92.0109 57.0067 91.8965 56.9665 91.7444L55.033 92.2557C54.9123 91.7991 55.0816 91.3962 55.1758 91.2084C55.2929 90.9749 55.455 90.7602 55.6235 90.5856C55.7873 90.4157 56.0083 90.2306 56.2702 90.1077C56.4897 90.0048 57.0336 89.816 57.5596 90.1714L56.4399 91.8286ZM56.9629 91.7309C57.035 91.989 57.1933 92.3115 57.4434 92.7071C57.6904 93.098 57.9909 93.5056 58.3166 93.9446C58.6327 94.3705 58.9761 94.8307 59.2639 95.2795C59.5477 95.7219 59.8225 96.2205 59.964 96.7349L58.0355 97.2651C57.9743 97.0425 57.8281 96.7454 57.5805 96.3593C57.3369 95.9796 57.0386 95.5785 56.7105 95.1364C56.3921 94.7073 56.0463 94.2402 55.7527 93.7756C55.4621 93.3157 55.1856 92.8019 55.0367 92.2692L56.9629 91.7309ZM59.9595 96.719C60.0204 96.927 60.0506 97.2464 60.059 97.4774C60.0637 97.6078 60.0636 97.764 60.0479 97.9151C60.0402 97.9899 60.0262 98.0873 59.9979 98.1906C59.9748 98.2746 59.9166 98.463 59.7661 98.6425L58.2334 97.3575C58.1658 97.4382 58.1274 97.5125 58.1072 97.5571C58.0862 97.6037 58.0748 97.641 58.0691 97.6616C58.0584 97.7007 58.0574 97.7204 58.0586 97.7084C58.061 97.6859 58.0632 97.6318 58.0603 97.5496C58.0575 97.4721 58.0509 97.3923 58.0431 97.3274C58.0393 97.2952 58.0357 97.2715 58.0332 97.257C58.0319 97.2499 58.0314 97.2477 58.0318 97.2496C58.032 97.2504 58.0345 97.2621 58.04 97.281L59.9595 96.719ZM59.7661 98.6425C59.7825 98.6229 59.8687 98.5211 59.9243 98.3536C59.9542 98.2632 59.9899 98.1099 59.9648 97.9199C59.9373 97.7122 59.8419 97.5055 59.6757 97.3433C59.5213 97.1927 59.3528 97.1256 59.2373 97.0955C59.1217 97.0654 59.0235 97.0626 58.9591 97.065C58.833 97.0697 58.7331 97.0986 58.666 97.1242C58.5992 97.1498 58.5045 97.1951 58.4063 97.2769C58.3562 97.3186 58.2836 97.3877 58.2169 97.4897C58.1499 97.592 58.0691 97.7587 58.058 97.9783C58.0461 98.2142 58.1192 98.431 58.2392 98.5997C58.3487 98.7538 58.4769 98.8407 58.5578 98.8858C58.7084 98.9697 58.8372 98.987 58.8617 98.9904L59.1378 97.0096C59.2053 97.019 59.3629 97.0449 59.5314 97.1388C59.6212 97.1889 59.7556 97.2812 59.8691 97.4407C59.993 97.6149 60.0677 97.8374 60.0555 98.079C60.0441 98.3044 59.9611 98.4768 59.8905 98.5847C59.8201 98.6923 59.7424 98.7669 59.6861 98.8138C59.5754 98.9059 59.464 98.9604 59.3795 98.9926C59.2948 99.025 59.1763 99.0582 59.0339 99.0636C58.9614 99.0663 58.8557 99.0628 58.7335 99.031C58.6114 98.9992 58.4374 98.9294 58.2789 98.7747C58.1086 98.6085 58.0104 98.3965 57.9821 98.1821C57.9561 97.9855 57.9927 97.8241 58.0259 97.7241C58.0878 97.5374 58.1894 97.4101 58.2334 97.3575L59.7661 98.6425ZM58.9015 98.9952C57.1254 98.8197 55.6593 97.9632 54.3782 97.1242C53.0385 96.2469 51.9314 95.4187 50.6478 94.936L51.3517 93.064C52.9048 93.6479 54.2811 94.6699 55.4739 95.4511C56.7254 96.2706 57.841 96.8807 59.0981 97.0049L58.9015 98.9952ZM50.6502 94.9369C50.6696 94.9442 50.6231 94.927 50.4759 94.9129C50.3463 94.9004 50.1865 94.8946 50.0158 94.8966C49.646 94.9008 49.3552 94.939 49.2683 94.9633L48.7312 93.0368C49.0741 92.9412 49.5746 92.9015 49.993 92.8967C50.2163 92.8942 50.4498 92.9011 50.6672 92.922C50.867 92.9412 51.1211 92.978 51.3493 93.0631L50.6502 94.9369ZM49.2865 94.958C49.455 94.9076 49.5333 94.7559 49.5425 94.7224C49.5426 94.7223 49.5402 94.731 49.5379 94.7509C49.5355 94.7707 49.5336 94.7982 49.5335 94.8345C49.5332 94.9085 49.5401 95.0034 49.5568 95.1204C49.633 95.6536 49.8219 96.1795 49.9685 96.7519L48.031 97.2482C47.9443 96.9097 47.6727 96.0735 47.5769 95.4033C47.5275 95.0575 47.4981 94.6135 47.6143 94.1915C47.7463 93.7121 48.084 93.2303 48.713 93.042L49.2865 94.958ZM49.9707 96.7607C50.1462 97.4728 50.6479 98.2557 51.366 99.066C52.0727 99.8635 52.9097 100.601 53.6531 101.243L52.3464 102.757C51.6039 102.116 50.6742 101.301 49.8691 100.392C49.0753 99.4967 48.32 98.4207 48.0288 97.2393L49.9707 96.7607ZM53.6492 101.24C58.804 105.643 64.9619 106.95 71.8647 106.009L72.1348 107.991C64.7929 108.991 58.0264 107.609 52.3503 102.76L53.6492 101.24Z" fill="#A871A9" mask="url(#path-122-inside-4_18_37)"/>
<path d="M108.233 94.4425L108.233 94.4424C111.977 92.4694 115.545 89.95 119.02 87.3083C120.426 86.2398 121.812 85.156 123.188 84.0791C125.23 82.4807 127.253 80.8977 129.295 79.4035L129 79L129.295 79.4035C136.634 74.0319 144.462 68.9977 153.086 67.4926L108.233 94.4425ZM108.233 94.4425C98.1873 99.7301 87.0599 100.838 75.9849 100.5C74.9424 100.47 73.6852 100.459 72.4637 100.583C71.2335 100.707 70.0882 100.963 69.2443 101.436C68.4389 101.888 67.7371 102.791 67.3667 103.83C66.9959 104.869 66.9893 105.949 67.4372 106.758L67.438 106.759L108.233 94.4425ZM124.865 117.518L124.865 117.519C115.917 120.026 106.204 119.58 97.1106 117.512C88.2227 115.492 80.3214 112.266 71.8015 108.787C71.598 108.704 71.3941 108.621 71.1898 108.538C71.1895 108.537 71.1891 108.537 71.1887 108.537L70.9998 109L124.865 117.518ZM124.865 117.518C137.195 114.071 147.307 105.25 156.641 95.6514L156.642 95.6512M124.865 117.518L156.642 95.6512M156.642 95.6512C157.341 94.9328 158.08 94.2354 158.817 93.543M156.642 95.6512L158.817 93.543M165.653 70.3669C161.92 67.7209 157.486 66.7262 153.086 67.4926L165.653 70.3669ZM165.653 70.3669C167.579 72.7949 167.79 75.9426 167.256 79.0048C166.72 82.0827 165.447 84.9835 164.553 86.7762L165.653 70.3669ZM158.817 93.543L158.919 93.4477M158.817 93.543L158.919 93.4477M158.919 93.4477C159.624 92.7851 160.325 92.1262 160.999 91.4457M158.919 93.4477L160.999 91.4457M160.999 91.4457C162.411 90.0196 163.678 88.523 164.552 86.7768L160.999 91.4457Z" fill="#FD9DFF" stroke="#A871A9"/>
<g opacity="0.46">
<path opacity="0.46" d="M152.998 75.5C152.801 75.5004 152.69 75.5694 152.623 75.6447C152.548 75.7294 152.5 75.8566 152.5 76C152.5 76.1435 152.548 76.2706 152.623 76.3553C152.691 76.4309 152.802 76.5 153 76.5C153.198 76.5 153.31 76.4308 153.377 76.356C153.452 76.272 153.5 76.1461 153.5 76.0037C153.5 75.8613 153.452 75.7341 153.376 75.6484C153.308 75.5718 153.195 75.5019 152.998 75.5Z" fill="#11827B" stroke="#A871A9"/>
</g>
<g opacity="0.46">
<path opacity="0.46" d="M133 101.5C132.803 101.5 132.692 101.569 132.625 101.644C132.55 101.729 132.502 101.856 132.502 102C132.502 102.144 132.55 102.271 132.625 102.356C132.692 102.431 132.803 102.5 133 102.5C133.2 102.5 133.312 102.43 133.379 102.355C133.454 102.271 133.502 102.144 133.502 102.001C133.501 101.858 133.453 101.731 133.377 101.645C133.309 101.569 133.197 101.5 133 101.5Z" fill="#11827B" stroke="#A871A9"/>
</g>
<g opacity="0.46">
<path opacity="0.46" d="M129.998 82.5C129.801 82.5004 129.69 82.5694 129.623 82.6447C129.548 82.7294 129.5 82.8566 129.5 83C129.5 83.1435 129.548 83.2706 129.623 83.3553C129.691 83.4309 129.802 83.5 130 83.5C130.198 83.5 130.31 83.4308 130.377 83.356C130.452 83.272 130.5 83.1461 130.5 83.0037C130.5 82.8613 130.452 82.7341 130.376 82.6484C130.308 82.5718 130.195 82.5019 129.998 82.5Z" fill="#11827B" stroke="#A871A9"/>
</g>
<g opacity="0.46">
<path opacity="0.46" d="M148 93.5C147.802 93.5 147.691 93.5692 147.623 93.6447C147.548 93.7294 147.5 93.8566 147.5 94C147.5 94.1435 147.548 94.2706 147.623 94.3553C147.691 94.4309 147.802 94.5 148 94.5C148.197 94.5 148.309 94.4309 148.376 94.3553C148.451 94.2706 148.5 94.1435 148.5 94C148.5 93.8566 148.451 93.7294 148.376 93.6447C148.309 93.5692 148.197 93.5 148 93.5Z" fill="#11827B" stroke="#A871A9"/>
</g>
<g opacity="0.46">
<path opacity="0.46" d="M110 100.5C109.802 100.5 109.691 100.569 109.623 100.645C109.548 100.729 109.5 100.857 109.5 101C109.5 101.143 109.548 101.271 109.623 101.355C109.691 101.431 109.802 101.5 110 101.5C110.197 101.5 110.309 101.431 110.376 101.355C110.451 101.271 110.5 101.143 110.5 101C110.5 100.857 110.451 100.729 110.376 100.645C110.309 100.569 110.197 100.5 110 100.5Z" fill="#11827B" stroke="#A871A9"/>
</g>
<g opacity="0.46">
<path opacity="0.46" d="M113.998 114.5C113.801 114.5 113.69 114.569 113.623 114.645C113.548 114.729 113.5 114.857 113.5 115C113.5 115.143 113.548 115.271 113.623 115.355C113.691 115.431 113.802 115.5 114 115.5C114.198 115.5 114.31 115.431 114.377 115.356C114.452 115.272 114.5 115.146 114.5 115.004C114.5 114.861 114.452 114.734 114.376 114.648C114.308 114.572 114.195 114.502 113.998 114.5Z" fill="#11827B" stroke="#A871A9"/>
</g>
<g opacity="0.46">
<path opacity="0.46" d="M84.9998 105.5C84.8021 105.5 84.6906 105.569 84.6235 105.645C84.5481 105.729 84.4998 105.857 84.4998 106C84.4998 106.143 84.5481 106.271 84.6235 106.355C84.6906 106.431 84.8021 106.5 84.9998 106.5C85.1974 106.5 85.3089 106.431 85.3761 106.355C85.4514 106.271 85.4998 106.143 85.4998 106C85.4998 105.857 85.4514 105.729 85.3761 105.645C85.3089 105.569 85.1974 105.5 84.9998 105.5Z" fill="#11827B" stroke="#A871A9"/>
</g>
<g opacity="0.46">
<path opacity="0.46" d="M143 132C141.667 132 141.667 130 143 130C144.333 130.01 144.333 132 143 132Z" fill="#11827B"/>
</g>
<g opacity="0.46">
<path opacity="0.46" d="M159 113C157.669 113 157.669 111 159 111C160.331 111 160.341 113 159 113Z" fill="#11827B"/>
</g>
<g opacity="0.46">
<path opacity="0.46" d="M163 138C161.667 138 161.667 136 163 136C164.333 136.01 164.333 138 163 138Z" fill="#11827B"/>
</g>
<g opacity="0.46">
<path opacity="0.46" d="M178 152C176.669 152 176.669 150 178 150C179.331 150 179.341 152 178 152Z" fill="#11827B"/>
</g>
<g opacity="0.46">
<path opacity="0.46" d="M177 121C175.667 121 175.667 119 177 119C178.333 119 178.333 121 177 121Z" fill="#11827B"/>
</g>
<g opacity="0.46">
<path opacity="0.46" d="M169 97C167.667 97 167.667 95 169 95C170.333 95 170.333 97 169 97Z" fill="#11827B"/>
</g>
<g opacity="0.46">
<path opacity="0.46" d="M169 79C167.667 79 167.667 77 169 77C170.333 77 170.333 79 169 79Z" fill="#11827B"/>
</g>
<g opacity="0.46">
<path opacity="0.46" d="M138 118C136.667 118 136.667 116 138 116C139.333 116 139.333 118 138 118Z" fill="#11827B"/>
</g>
<g opacity="0.46">
<path opacity="0.46" d="M180 102C178.667 102 178.667 100 180 100C181.333 100 181.333 102 180 102Z" fill="#11827B"/>
</g>
</svg>
