<svg width="292" height="53" viewBox="0 0 292 53" fill="none" xmlns="http://www.w3.org/2000/svg">
<path d="M0 26.5C0 11.8645 11.8645 0 26.5 0H265.5C280.136 0 292 11.8645 292 26.5V26.5C292 41.1355 280.136 53 265.5 53H26.5C11.8645 53 0 41.1355 0 26.5V26.5Z" fill="#F67DF9"/>
<path d="M42.4405 16.2H46.6105V16.5H46.4305C46.2105 16.5 46.0605 16.57 45.9805 16.71C45.9005 16.83 45.8605 16.96 45.8605 17.1C45.8605 17.2 45.8705 17.29 45.8905 17.37C45.9105 17.45 45.9305 17.51 45.9505 17.55L51.0805 28.77L55.6705 17.88C55.6905 17.84 55.7205 17.76 55.7605 17.64C55.8005 17.5 55.8205 17.37 55.8205 17.25C55.8205 16.97 55.7205 16.78 55.5205 16.68C55.3205 16.56 55.1705 16.5 55.0705 16.5V16.2H58.2805V16.5C57.9205 16.5 57.6405 16.6 57.4405 16.8C57.2605 16.98 57.1205 17.17 57.0205 17.37L49.8205 34.59C49.5805 35.17 49.2605 35.6 48.8605 35.88C48.4605 36.14 48.0305 36.27 47.5705 36.27C47.2705 36.27 47.0005 36.22 46.7605 36.12C46.5205 36.04 46.3105 35.94 46.1305 35.82C45.9505 35.7 45.8105 35.59 45.7105 35.49C45.6305 35.39 45.5905 35.34 45.5905 35.34L46.3405 33.69C46.5005 34.07 46.7105 34.37 46.9705 34.59C47.2305 34.79 47.5005 34.89 47.7805 34.89C47.9605 34.89 48.1405 34.83 48.3205 34.71C48.5205 34.57 48.6905 34.36 48.8305 34.08L50.0005 31.23L43.7605 17.46C43.4805 16.86 43.0405 16.54 42.4405 16.5V16.2ZM59.6588 16.74H59.9288C60.0888 16.74 60.2688 16.72 60.4688 16.68C60.6688 16.62 60.8788 16.55 61.0988 16.47C61.4788 16.35 61.9288 16.23 62.4488 16.11C62.9688 15.97 63.5988 15.9 64.3388 15.9C65.2788 15.9 66.1088 16.03 66.8288 16.29C67.5688 16.55 68.1888 16.9 68.6888 17.34C69.2088 17.78 69.5988 18.29 69.8588 18.87C70.1188 19.45 70.2488 20.07 70.2488 20.73C70.2488 21.67 69.9788 22.51 69.4388 23.25C68.9188 23.97 68.1788 24.58 67.2188 25.08C68.5788 25.68 69.5688 26.45 70.1888 27.39C70.8288 28.31 71.1488 29.31 71.1488 30.39C71.1488 31.17 70.9788 31.92 70.6388 32.64C70.3188 33.36 69.8488 33.99 69.2288 34.53C68.6088 35.07 67.8488 35.5 66.9488 35.82C66.0488 36.14 65.0188 36.3 63.8588 36.3C63.0188 36.3 62.3388 36.23 61.8188 36.09C61.2988 35.95 60.8488 35.8 60.4688 35.64C60.2288 35.54 59.9988 35.46 59.7788 35.4C59.5788 35.34 59.3688 35.31 59.1488 35.31H58.8788V31.98H59.1788C59.3588 32.54 59.5988 33.03 59.8988 33.45C60.2188 33.85 60.5788 34.18 60.9788 34.44C61.3788 34.7 61.8088 34.9 62.2688 35.04C62.7288 35.16 63.1988 35.22 63.6788 35.22C64.2988 35.22 64.9088 35.12 65.5088 34.92C66.1288 34.7 66.6688 34.4 67.1288 34.02C67.6088 33.64 67.9888 33.18 68.2688 32.64C68.5688 32.08 68.7188 31.46 68.7188 30.78C68.7188 30.1 68.5888 29.45 68.3288 28.83C68.0688 28.19 67.6988 27.64 67.2188 27.18C66.7588 26.72 66.2088 26.35 65.5688 26.07C64.9288 25.79 64.2288 25.65 63.4688 25.65H62.3888V24.63H63.6188C64.2188 24.63 64.7888 24.55 65.3288 24.39C65.8688 24.21 66.3388 23.96 66.7388 23.64C67.1588 23.3 67.4888 22.9 67.7288 22.44C67.9688 21.98 68.0888 21.45 68.0888 20.85C68.0888 20.25 67.9688 19.71 67.7288 19.23C67.4888 18.75 67.1688 18.35 66.7688 18.03C66.3888 17.69 65.9488 17.43 65.4488 17.25C64.9688 17.07 64.4688 16.98 63.9488 16.98C63.5288 16.98 63.1188 17.04 62.7188 17.16C62.3188 17.28 61.9388 17.47 61.5788 17.73C61.2188 17.99 60.8988 18.31 60.6188 18.69C60.3388 19.07 60.1188 19.53 59.9588 20.07H59.6588V16.74ZM85.7555 35.7H85.9055C86.0455 35.7 86.1755 35.65 86.2955 35.55C86.4155 35.43 86.5155 35.29 86.5955 35.13C86.6955 34.95 86.7655 34.77 86.8055 34.59C86.8455 34.39 86.8655 34.21 86.8655 34.05V25.89H77.2655V34.05C77.2655 34.21 77.2855 34.39 77.3255 34.59C77.3655 34.77 77.4255 34.94 77.5055 35.1C77.5855 35.26 77.6755 35.4 77.7755 35.52C77.8955 35.64 78.0355 35.7 78.1955 35.7H78.3455V36H74.1455V35.7H74.2955C74.4355 35.7 74.5655 35.65 74.6855 35.55C74.8055 35.43 74.9055 35.29 74.9855 35.13C75.0855 34.95 75.1555 34.77 75.1955 34.59C75.2355 34.39 75.2555 34.21 75.2555 34.05V18.06C75.2555 17.92 75.2355 17.76 75.1955 17.58C75.1555 17.4 75.0955 17.23 75.0155 17.07C74.9355 16.91 74.8355 16.78 74.7155 16.68C74.5955 16.56 74.4555 16.5 74.2955 16.5H74.1455V16.2H78.3455V16.5H78.1955C78.0355 16.5 77.8955 16.56 77.7755 16.68C77.6555 16.78 77.5555 16.91 77.4755 17.07C77.4155 17.23 77.3655 17.4 77.3255 17.58C77.2855 17.76 77.2655 17.92 77.2655 18.06V24.84H86.8655V18.06C86.8655 17.92 86.8455 17.76 86.8055 17.58C86.7655 17.4 86.7055 17.23 86.6255 17.07C86.5455 16.91 86.4455 16.78 86.3255 16.68C86.2055 16.56 86.0655 16.5 85.9055 16.5H85.7555V16.2H89.9555V16.5H89.8055C89.6455 16.5 89.5055 16.56 89.3855 16.68C89.2655 16.78 89.1655 16.91 89.0855 17.07C89.0255 17.23 88.9755 17.4 88.9355 17.58C88.8955 17.76 88.8755 17.92 88.8755 18.06V34.05C88.8755 34.21 88.8955 34.39 88.9355 34.59C88.9955 34.77 89.0655 34.94 89.1455 35.1C89.2255 35.26 89.3155 35.4 89.4155 35.52C89.5355 35.64 89.6655 35.7 89.8055 35.7H89.9555V36H85.7555V35.7ZM103.908 35.7H104.058C104.538 35.7 104.778 35.48 104.778 35.04C104.778 34.88 104.748 34.71 104.688 34.53L101.988 27.24H96.7377L94.1277 34.41C94.0677 34.57 94.0377 34.72 94.0377 34.86C94.0377 35.12 94.1077 35.33 94.2477 35.49C94.3877 35.63 94.5377 35.7 94.6977 35.7H94.8477V36H91.5177V35.7H91.6677C91.9277 35.7 92.1777 35.55 92.4177 35.25C92.6777 34.93 92.8877 34.56 93.0477 34.14L99.9177 15.84L106.638 33.96C106.778 34.36 106.968 34.75 107.208 35.13C107.468 35.51 107.798 35.7 108.198 35.7H108.348V36H103.908V35.7ZM97.0377 26.22H101.658L99.3477 19.95L97.0377 26.22ZM114.95 35.7H115.1V36H110.84V35.7H110.99C111.15 35.7 111.29 35.64 111.41 35.52C111.53 35.4 111.63 35.26 111.71 35.1C111.81 34.94 111.88 34.77 111.92 34.59C111.96 34.39 111.98 34.21 111.98 34.05V17.31H108.5C108.18 17.31 107.9 17.38 107.66 17.52C107.42 17.66 107.22 17.84 107.06 18.06C106.9 18.26 106.78 18.49 106.7 18.75C106.62 18.99 106.58 19.23 106.58 19.47H106.28V16.2H119.75V19.47H119.45C119.45 19.23 119.41 18.99 119.33 18.75C119.25 18.49 119.13 18.26 118.97 18.06C118.81 17.84 118.61 17.66 118.37 17.52C118.13 17.38 117.85 17.31 117.53 17.31H113.99V34.05C113.99 34.21 114.01 34.39 114.05 34.59C114.09 34.77 114.15 34.94 114.23 35.1C114.33 35.26 114.43 35.4 114.53 35.52C114.65 35.64 114.79 35.7 114.95 35.7ZM121.393 35.7H121.543C121.683 35.7 121.813 35.65 121.933 35.55C122.053 35.43 122.153 35.29 122.233 35.13C122.313 34.97 122.373 34.8 122.413 34.62C122.473 34.44 122.503 34.28 122.503 34.14V18.15C122.503 18.01 122.483 17.84 122.443 17.64C122.403 17.44 122.333 17.26 122.233 17.1C122.153 16.94 122.053 16.8 121.933 16.68C121.813 16.56 121.683 16.5 121.543 16.5H121.393V16.2H125.623V16.5H125.413C125.133 16.54 124.913 16.76 124.753 17.16C124.593 17.54 124.513 17.87 124.513 18.15V24.6H126.193C127.113 24.6 128.013 24.7 128.893 24.9C129.793 25.08 130.583 25.4 131.263 25.86C131.963 26.3 132.523 26.89 132.943 27.63C133.363 28.35 133.573 29.25 133.573 30.33C133.573 31.21 133.393 32 133.033 32.7C132.673 33.4 132.183 34 131.563 34.5C130.943 34.98 130.203 35.35 129.343 35.61C128.503 35.87 127.593 36 126.613 36H121.393V35.7ZM124.963 34.95C127.283 34.95 128.943 34.55 129.943 33.75C130.963 32.95 131.473 31.85 131.473 30.45C131.473 29.03 130.963 27.87 129.943 26.97C128.943 26.07 127.463 25.62 125.503 25.62H124.513V34.95H124.963ZM143.834 35.7H143.984C144.144 35.7 144.284 35.65 144.404 35.55C144.524 35.43 144.624 35.29 144.704 35.13C144.804 34.97 144.874 34.8 144.914 34.62C144.974 34.44 145.004 34.27 145.004 34.11V18.06C145.004 17.92 144.974 17.76 144.914 17.58C144.874 17.4 144.804 17.23 144.704 17.07C144.624 16.91 144.524 16.78 144.404 16.68C144.284 16.56 144.144 16.5 143.984 16.5H143.834V16.2H154.814V19.05H154.514C154.514 18.59 154.354 18.19 154.034 17.85C153.714 17.49 153.224 17.31 152.564 17.31H147.014V24.6H148.394C149.314 24.6 150.224 24.69 151.124 24.87C152.044 25.05 152.864 25.36 153.584 25.8C154.324 26.22 154.914 26.8 155.354 27.54C155.814 28.28 156.044 29.21 156.044 30.33C156.044 31.21 155.874 32 155.534 32.7C155.214 33.4 154.754 34 154.154 34.5C153.554 34.98 152.834 35.35 151.994 35.61C151.174 35.87 150.274 36 149.294 36H143.834V35.7ZM148.184 34.95C149.184 34.95 150.044 34.84 150.764 34.62C151.504 34.4 152.114 34.1 152.594 33.72C153.074 33.32 153.424 32.86 153.644 32.34C153.884 31.8 154.004 31.22 154.004 30.6C154.004 29.14 153.484 27.95 152.444 27.03C151.404 26.09 149.924 25.62 148.004 25.62H147.014V34.95H148.184ZM167.743 15.9C169.303 15.9 170.703 16.18 171.943 16.74C173.183 17.28 174.233 18.02 175.093 18.96C175.973 19.88 176.643 20.96 177.103 22.2C177.583 23.42 177.823 24.7 177.823 26.04C177.823 27.54 177.543 28.92 176.983 30.18C176.443 31.44 175.693 32.52 174.733 33.42C173.773 34.32 172.653 35.03 171.373 35.55C170.113 36.05 168.763 36.3 167.323 36.3C165.783 36.3 164.393 36.02 163.153 35.46C161.933 34.9 160.893 34.16 160.033 33.24C159.193 32.32 158.543 31.26 158.083 30.06C157.623 28.86 157.393 27.61 157.393 26.31C157.393 25.03 157.623 23.77 158.083 22.53C158.543 21.27 159.213 20.15 160.093 19.17C160.993 18.19 162.083 17.4 163.363 16.8C164.643 16.2 166.103 15.9 167.743 15.9ZM167.713 35.25C169.053 35.19 170.223 34.89 171.223 34.35C172.243 33.79 173.093 33.09 173.773 32.25C174.453 31.39 174.953 30.45 175.273 29.43C175.613 28.41 175.783 27.4 175.783 26.4C175.783 25.3 175.583 24.19 175.183 23.07C174.783 21.95 174.213 20.94 173.473 20.04C172.733 19.12 171.843 18.38 170.803 17.82C169.783 17.24 168.633 16.95 167.353 16.95C166.113 16.95 165.003 17.23 164.023 17.79C163.043 18.33 162.203 19.03 161.503 19.89C160.823 20.75 160.303 21.71 159.943 22.77C159.583 23.83 159.403 24.87 159.403 25.89C159.403 26.99 159.613 28.1 160.033 29.22C160.453 30.32 161.033 31.32 161.773 32.22C162.513 33.12 163.383 33.85 164.383 34.41C165.403 34.97 166.513 35.25 167.713 35.25ZM179.607 33.9C179.427 34.42 179.147 34.9 178.767 35.34C178.387 35.78 177.827 36 177.087 36H176.157V35.7C176.277 35.7 176.437 35.67 176.637 35.61C176.837 35.53 177.047 35.41 177.267 35.25C177.487 35.09 177.707 34.89 177.927 34.65C178.147 34.39 178.337 34.07 178.497 33.69L184.167 18.15C184.267 17.85 184.317 17.62 184.317 17.46C184.317 17.16 184.227 16.93 184.047 16.77C183.887 16.59 183.717 16.5 183.537 16.5V16.2H185.997L192.717 34.56C192.817 34.84 193.007 35.1 193.287 35.34C193.567 35.56 193.877 35.68 194.217 35.7V36H189.927V35.7C190.087 35.7 190.247 35.64 190.407 35.52C190.587 35.38 190.677 35.2 190.677 34.98C190.677 34.92 190.657 34.83 190.617 34.71L184.977 19.17L179.607 33.9ZM196.452 35.7H196.602C196.742 35.7 196.872 35.65 196.992 35.55C197.112 35.43 197.212 35.29 197.292 35.13C197.372 34.97 197.432 34.8 197.472 34.62C197.532 34.44 197.562 34.28 197.562 34.14V18.15C197.562 18.01 197.542 17.84 197.502 17.64C197.462 17.44 197.392 17.26 197.292 17.1C197.212 16.94 197.112 16.8 196.992 16.68C196.872 16.56 196.742 16.5 196.602 16.5H196.452V16.2H200.682V16.5H200.472C200.192 16.54 199.972 16.76 199.812 17.16C199.652 17.54 199.572 17.87 199.572 18.15V24.6H201.252C202.172 24.6 203.072 24.7 203.952 24.9C204.852 25.08 205.642 25.4 206.322 25.86C207.022 26.3 207.582 26.89 208.002 27.63C208.422 28.35 208.632 29.25 208.632 30.33C208.632 31.21 208.452 32 208.092 32.7C207.732 33.4 207.242 34 206.622 34.5C206.002 34.98 205.262 35.35 204.402 35.61C203.562 35.87 202.652 36 201.672 36H196.452V35.7ZM200.022 34.95C202.342 34.95 204.002 34.55 205.002 33.75C206.022 32.95 206.532 31.85 206.532 30.45C206.532 29.03 206.022 27.87 205.002 26.97C204.002 26.07 202.522 25.62 200.562 25.62H199.572V34.95H200.022ZM220.34 16.2H224.45V16.5H224.3C224.14 16.5 224 16.56 223.88 16.68C223.76 16.78 223.66 16.91 223.58 17.07C223.52 17.23 223.47 17.4 223.43 17.58C223.39 17.74 223.37 17.88 223.37 18V34.92H230.57V18.15C230.57 18.01 230.55 17.85 230.51 17.67C230.49 17.47 230.45 17.29 230.39 17.13C230.33 16.97 230.24 16.83 230.12 16.71C230.02 16.59 229.89 16.52 229.73 16.5H229.52V16.2H233.63V16.5H233.48C233.3 16.5 233.15 16.56 233.03 16.68C232.93 16.8 232.84 16.94 232.76 17.1C232.68 17.26 232.62 17.44 232.58 17.64C232.56 17.84 232.55 18.01 232.55 18.15V34.14C232.55 34.28 232.57 34.44 232.61 34.62C232.67 34.8 232.74 34.97 232.82 35.13C232.9 35.29 232.99 35.43 233.09 35.55C233.21 35.65 233.34 35.7 233.48 35.7H233.63V36H211.13V35.7H211.28C211.42 35.7 211.55 35.65 211.67 35.55C211.79 35.43 211.89 35.29 211.97 35.13C212.05 34.97 212.11 34.8 212.15 34.62C212.19 34.44 212.21 34.28 212.21 34.14V18.15C212.21 18.01 212.19 17.84 212.15 17.64C212.13 17.44 212.08 17.26 212 17.1C211.92 16.94 211.82 16.8 211.7 16.68C211.6 16.56 211.46 16.5 211.28 16.5H211.13V16.2H215.24V16.5H215.03C214.87 16.52 214.73 16.59 214.61 16.71C214.51 16.83 214.43 16.97 214.37 17.13C214.31 17.29 214.26 17.47 214.22 17.67C214.2 17.85 214.19 18.01 214.19 18.15V34.92H221.39V18.15C221.39 18.01 221.37 17.84 221.33 17.64C221.29 17.44 221.23 17.26 221.15 17.1C221.09 16.94 221 16.8 220.88 16.68C220.76 16.56 220.63 16.5 220.49 16.5H220.34V16.2ZM236.559 35.7H236.709C236.869 35.7 237.009 35.65 237.129 35.55C237.249 35.43 237.349 35.29 237.429 35.13C237.529 34.97 237.599 34.8 237.639 34.62C237.699 34.44 237.729 34.27 237.729 34.11V18.06C237.729 17.92 237.699 17.76 237.639 17.58C237.599 17.4 237.529 17.23 237.429 17.07C237.349 16.91 237.249 16.78 237.129 16.68C237.009 16.56 236.869 16.5 236.709 16.5H236.559V16.2H248.109V18.99H247.809C247.769 18.53 247.589 18.13 247.269 17.79C246.949 17.43 246.449 17.25 245.769 17.25H239.739V24.84H244.719C245.179 24.84 245.559 24.7 245.859 24.42C246.179 24.14 246.339 23.81 246.339 23.43H246.639V27.18H246.339C246.339 26.82 246.189 26.51 245.889 26.25C245.589 25.99 245.199 25.86 244.719 25.86H239.739V34.95H246.309C246.689 34.95 247.019 34.86 247.299 34.68C247.579 34.5 247.809 34.29 247.989 34.05C248.189 33.79 248.329 33.52 248.409 33.24C248.509 32.94 248.559 32.69 248.559 32.49H248.859V36H236.559V35.7Z" fill="black"/>
</svg>
