<svg width="153" height="167" viewBox="0 0 153 167" fill="none" xmlns="http://www.w3.org/2000/svg">
<path d="M145 74H8C6.121 74 5 75.1555 5 76V167H148V76C148 75.1555 146.879 74 145 74V74Z" fill="#DDBD7C"/>
<path d="M146 63H7.00007C6.54277 63 6.37144 62.7335 6.00007 63C5.62871 63.2665 5.14593 63.5672 5.00007 64L1.00007 76C0.523574 77.4133 1.50664 79 3.00007 79H150C151.494 79 152.477 77.4137 152 76L148 64C147.854 63.5672 147.371 63.2665 147 63C146.629 62.7335 146.457 63 146 63V63Z" fill="#5B666B"/>
<path d="M125 14H29C27.686 14 27 15.6104 27 17V167H127V17C127 15.6107 126.314 14 125 14Z" fill="#FFE1AB"/>
<path d="M122 1.4134e-09H30.9998C29.8847 -2.19437e-05 28.8321 0.255502 27.9998 1C27.1675 1.7445 26.127 2.8887 25.9998 4L21.9998 42C21.6902 44.705 24.2854 47 26.9998 47H126C128.714 47 131.309 44.705 131 42L127 4C126.873 2.88873 125.832 1.74448 125 1C124.168 0.255516 123.115 5.17724e-05 122 1.4134e-09Z" fill="#2B3B47"/>
<path d="M52.0003 139V158C52.0003 158.322 52.2273 158.772 52.0003 159C51.7733 159.228 51.3213 159 51.0003 159H41.0003C40.6793 159 40.2273 159.228 40.0003 159C39.7733 158.772 40.0003 158.322 40.0003 158V139C40.0003 135.603 42.6116 132 46.0003 132C49.389 132 52.0003 135.603 52.0003 139V139ZM66.0003 132C62.6116 132 60.0003 135.603 60.0003 139V158C60.0003 158.322 60.7733 158.772 61.0003 159C61.2273 159.228 60.6793 159 61.0003 159H71.0003C71.3213 159 71.7733 159.228 72.0003 159C72.2273 158.772 73.0003 158.322 73.0003 158V139C73.0006 135.603 69.389 132 66.0003 132V132ZM87.0003 132C83.6116 132 80.0003 135.603 80.0003 139V158C80.0003 158.159 80.9395 157.853 81.0003 158C81.0611 158.147 80.8879 158.887 81.0003 159C81.1127 159.113 80.8534 158.939 81.0003 159C81.1471 159.061 81.8413 159 82.0003 159H92.0003C92.3213 159 91.7733 159.228 92.0003 159C92.2273 158.772 93.0003 158.322 93.0003 158V139C93.0006 135.603 90.389 132 87.0003 132V132ZM107 132C103.612 132 101 135.603 101 139V158C101 158.159 100.939 157.853 101 158C101.061 158.147 100.888 158.887 101 159C101.113 159.113 100.853 158.939 101 159C101.147 159.061 101.841 159 102 159H112C112.321 159 112.773 159.228 113 159C113.227 158.772 113 158.322 113 158V139C113 135.603 110.389 132 107 132V132ZM49.0003 69C44.4046 69 41.0003 72.3939 41.0003 77V96C41.0003 96.3218 40.7733 96.7725 41.0003 97C41.2273 97.2275 41.6793 97 42.0003 97H56.0003C56.3213 97 56.7733 97.2275 57.0003 97C57.2273 96.7725 57.0003 96.3218 57.0003 96V77C57.0003 72.3939 53.596 69 49.0003 69ZM77.0003 56C72.4046 56 68.0003 59.3939 68.0003 64V96C68.0003 96.3218 68.7733 96.7725 69.0003 97C69.2273 97.2275 69.6793 97 70.0003 97H84.0003C84.3213 97 84.7733 97.2275 85.0003 97C85.2273 96.7725 85.0003 96.3218 85.0003 96V64C85 59.3939 81.596 56 77.0003 56ZM105 69C100.405 69 96.0003 72.3939 96.0003 77V96C96.0003 96.1593 95.9395 95.8528 96.0003 96C96.0611 96.1472 96.8879 96.8873 97.0003 97C97.1127 97.1127 96.8534 96.939 97.0003 97C97.1471 97.061 97.8413 97 98.0003 97H112C112.321 97 112.773 97.2275 113 97C113.227 96.7725 113 96.3218 113 96V77C113 72.3939 109.596 69 105 69Z" fill="#374954"/>
<path d="M53 160H40C39.7496 160 39.177 160.177 39 160C38.823 159.823 39 159.251 39 159V156C39 155.749 38.823 156.177 39 156C39.177 155.823 39.7496 156 40 156H53C53.2504 156 52.823 155.823 53 156C53.177 156.177 54 155.749 54 156V159C54 159.251 53.177 159.823 53 160C52.823 160.177 53.2504 160 53 160V160ZM74 159V156C74 155.749 74.177 156.177 74 156C73.823 155.823 73.2504 156 73 156H60C59.7496 156 59.177 155.823 59 156C58.823 156.177 59 155.749 59 156V159C59 159.251 58.823 159.823 59 160C59.177 160.177 59.7496 160 60 160H73C73.2504 160 73.823 160.177 74 160C74.177 159.823 74 159.251 74 159V159ZM94 159V156C94 155.749 94.177 156.177 94 156C93.823 155.823 93.2504 156 93 156H80C79.7496 156 80.177 155.823 80 156C79.823 156.177 79 155.749 79 156V159C79 159.251 79.823 159.823 80 160C80.177 160.177 79.7496 160 80 160H93C93.2504 160 93.823 160.177 94 160C94.177 159.823 94 159.251 94 159V159ZM114 159V156C114 155.749 114.177 156.177 114 156C113.823 155.823 114.25 156 114 156H101C100.75 156 100.177 155.823 100 156C99.823 156.177 100 155.749 100 156V159C100 159.251 99.823 159.823 100 160C100.177 160.177 100.75 160 101 160H114C114.25 160 113.823 160.177 114 160C114.177 159.823 114 159.251 114 159V159ZM129 118V113C129 111.686 127.603 110 126 110H28C26.3973 110 25 111.686 25 113V118C25 119.314 26.3973 121 28 121H126C127.602 121 129 119.314 129 118V118ZM87 99V95C87 94.7491 87.177 94.1774 87 94C86.823 93.8226 86.2504 94 86 94H68C67.7496 94 67.177 93.8226 67 94C66.823 94.1774 67 94.7491 67 95V99C67 99.1242 66.9526 98.8853 67 99C67.0474 99.1148 66.9123 99.9122 67 100C67.0877 100.088 67.8855 99.9525 68 100C68.1145 100.048 67.876 100 68 100H86C86.124 100 85.8855 100.048 86 100C86.1145 99.9525 86.9123 100.088 87 100C87.0877 99.9122 86.9526 99.1148 87 99C87.0474 98.8853 87 99.1242 87 99V99ZM115 99V95C115 94.7491 114.177 94.1774 114 94C113.823 93.8226 114.25 94 114 94H96C95.7496 94 95.177 93.8226 95 94C94.823 94.1774 95 94.7491 95 95V99C95 99.1242 94.9526 98.8853 95 99C95.0474 99.1148 94.9123 99.9122 95 100C95.0877 100.088 95.8855 99.9525 96 100C96.1145 100.048 95.876 100 96 100H114C114.124 100 113.885 100.048 114 100C114.115 99.9525 113.912 100.088 114 100C114.088 99.9122 114.953 99.1148 115 99C115.047 98.8853 115 99.1242 115 99V99ZM59 99V95C59 94.7491 59.177 94.1774 59 94C58.823 93.8226 58.2504 94 58 94H40C39.876 94 40.1145 93.9525 40 94C39.8855 94.0476 40.0877 93.9122 40 94C39.9123 94.0878 39.0474 94.8853 39 95C38.9526 95.1148 39 94.8758 39 95V99C39 99.1242 38.9526 98.8853 39 99C39.0474 99.1148 39.9123 99.9122 40 100C40.0877 100.088 39.8855 99.9525 40 100C40.1145 100.048 39.876 100 40 100H58C58.124 100 57.8855 100.048 58 100C58.1145 99.9525 58.9123 100.088 59 100C59.0877 99.9122 58.9526 99.1148 59 99C59.0474 98.8853 59 99.1242 59 99V99Z" fill="#D19B61"/>
<path d="M30.7648 14.8H33.6048C35.0848 14.8 36.2048 15.0867 36.9648 15.66C37.7381 16.22 38.1248 17.02 38.1248 18.06C38.1248 18.62 37.9914 19.12 37.7248 19.56C37.4581 20 37.1048 20.3733 36.6648 20.68C36.2381 20.9733 35.7514 21.2 35.2048 21.36C34.6714 21.52 34.1381 21.6 33.6048 21.6H32.8448V26.7C32.8448 26.8067 32.8581 26.9267 32.8848 27.06C32.9114 27.18 32.9514 27.2933 33.0048 27.4C33.0714 27.5067 33.1381 27.6 33.2048 27.68C33.2848 27.76 33.3781 27.8 33.4848 27.8H33.5848V28H30.7648V27.8H30.8648C30.9581 27.8 31.0448 27.76 31.1248 27.68C31.2048 27.6 31.2714 27.5067 31.3248 27.4C31.3781 27.2933 31.4181 27.18 31.4448 27.06C31.4714 26.9267 31.4848 26.8067 31.4848 26.7V16.04C31.4848 15.8533 31.4314 15.64 31.3248 15.4C31.2181 15.16 31.0648 15.0267 30.8648 15H30.7648V14.8ZM32.8448 15.5V20.9H33.4448C33.9781 20.9 34.4514 20.8267 34.8648 20.68C35.2914 20.5333 35.6448 20.34 35.9248 20.1C36.2048 19.86 36.4181 19.5867 36.5648 19.28C36.7114 18.9733 36.7848 18.66 36.7848 18.34C36.7848 17.9533 36.7181 17.5933 36.5848 17.26C36.4648 16.9133 36.2581 16.6133 35.9648 16.36C35.6848 16.0933 35.3114 15.8867 34.8448 15.74C34.3781 15.58 33.8048 15.5 33.1248 15.5H32.8448ZM42.7621 28.14C42.0954 28.14 41.4954 28.0333 40.9621 27.82C40.4288 27.5933 39.9688 27.2933 39.5821 26.92C39.2088 26.5333 38.9154 26.08 38.7021 25.56C38.5021 25.04 38.4021 24.4733 38.4021 23.86C38.4021 23.2067 38.5154 22.6133 38.7421 22.08C38.9688 21.5333 39.2821 21.0667 39.6821 20.68C40.0821 20.2933 40.5554 19.9933 41.1021 19.78C41.6488 19.5667 42.2421 19.46 42.8821 19.46C43.5221 19.46 44.1088 19.5667 44.6421 19.78C45.1754 19.98 45.6354 20.2667 46.0221 20.64C46.4088 21.0133 46.7088 21.46 46.9221 21.98C47.1354 22.4867 47.2421 23.0467 47.2421 23.66C47.2421 24.2333 47.1421 24.7933 46.9421 25.34C46.7554 25.8733 46.4688 26.3467 46.0821 26.76C45.7088 27.1733 45.2421 27.5067 44.6821 27.76C44.1354 28.0133 43.4954 28.14 42.7621 28.14ZM42.6421 20.12C42.1621 20.1467 41.7354 20.2667 41.3621 20.48C41.0021 20.68 40.6954 20.9467 40.4421 21.28C40.2021 21.6 40.0154 21.9667 39.8821 22.38C39.7621 22.7933 39.7021 23.2133 39.7021 23.64C39.7021 24.1333 39.7754 24.6133 39.9221 25.08C40.0821 25.5333 40.3021 25.94 40.5821 26.3C40.8754 26.66 41.2221 26.9467 41.6221 27.16C42.0221 27.3733 42.4688 27.48 42.9621 27.48C43.4554 27.48 43.8888 27.3733 44.2621 27.16C44.6488 26.9467 44.9688 26.6733 45.2221 26.34C45.4754 25.9933 45.6621 25.6067 45.7821 25.18C45.9154 24.7533 45.9821 24.3267 45.9821 23.9C45.9821 23.46 45.9154 23.02 45.7821 22.58C45.6488 22.1267 45.4421 21.72 45.1621 21.36C44.8821 20.9867 44.5288 20.6867 44.1021 20.46C43.6888 20.2333 43.2021 20.12 42.6421 20.12ZM56.5309 25.72C56.5309 26.0667 56.4442 26.3867 56.2709 26.68C56.0975 26.9733 55.8575 27.2333 55.5509 27.46C55.2575 27.6733 54.9109 27.8467 54.5109 27.98C54.1109 28.1 53.6775 28.16 53.2109 28.16C52.6375 28.16 52.1709 28.0867 51.8109 27.94C51.4509 27.78 51.1442 27.62 50.8909 27.46C50.7175 27.3533 50.5575 27.2667 50.4109 27.2C50.2642 27.12 50.1042 27.08 49.9309 27.08V25.56H50.1309C50.1709 25.7467 50.2842 25.9533 50.4709 26.18C50.6709 26.3933 50.9042 26.5933 51.1709 26.78C51.4509 26.9667 51.7509 27.1267 52.0709 27.26C52.4042 27.38 52.7375 27.44 53.0709 27.44C53.3109 27.44 53.5575 27.4133 53.8109 27.36C54.0642 27.3067 54.2909 27.22 54.4909 27.1C54.7042 26.98 54.8775 26.8333 55.0109 26.66C55.1575 26.4733 55.2309 26.2533 55.2309 26C55.2309 25.7467 55.1575 25.5267 55.0109 25.34C54.8642 25.1533 54.6775 24.9933 54.4509 24.86C54.2242 24.7133 53.9642 24.5867 53.6709 24.48C53.3775 24.3733 53.0842 24.2733 52.7909 24.18C52.4442 24.0733 52.0909 23.9533 51.7309 23.82C51.3842 23.6867 51.0709 23.5333 50.7909 23.36C50.5109 23.1733 50.2842 22.9533 50.1109 22.7C49.9375 22.4333 49.8509 22.12 49.8509 21.76C49.8509 21.4533 49.9042 21.16 50.0109 20.88C50.1309 20.6 50.3175 20.36 50.5709 20.16C50.8375 19.9467 51.1775 19.78 51.5909 19.66C52.0042 19.5267 52.5042 19.46 53.0909 19.46C53.6109 19.46 54.0109 19.5067 54.2909 19.6C54.5842 19.68 54.8242 19.7667 55.0109 19.86C55.1309 19.9267 55.2509 19.98 55.3709 20.02C55.4909 20.0467 55.6242 20.06 55.7709 20.06V21.46H55.6109C55.3709 21.02 55.0042 20.6867 54.5109 20.46C54.0175 20.2333 53.5109 20.12 52.9909 20.12C52.6575 20.12 52.3709 20.1667 52.1309 20.26C51.8909 20.34 51.6909 20.4467 51.5309 20.58C51.3842 20.7 51.2709 20.84 51.1909 21C51.1242 21.16 51.0909 21.32 51.0909 21.48C51.0909 21.7067 51.1509 21.9 51.2709 22.06C51.4042 22.22 51.5775 22.36 51.7909 22.48C52.0175 22.6 52.2642 22.7133 52.5309 22.82C52.8109 22.9267 53.1042 23.0267 53.4109 23.12C53.7842 23.24 54.1575 23.3733 54.5309 23.52C54.9042 23.6533 55.2375 23.82 55.5309 24.02C55.8242 24.22 56.0642 24.46 56.2509 24.74C56.4375 25.0067 56.5309 25.3333 56.5309 25.72ZM61.2135 20.28V25.1C61.2135 25.4467 61.2202 25.76 61.2335 26.04C61.2468 26.32 61.2802 26.5533 61.3335 26.74C61.3868 26.9267 61.4668 27.0733 61.5735 27.18C61.6802 27.2733 61.8268 27.32 62.0135 27.32C62.2935 27.32 62.5535 27.1867 62.7935 26.92C63.0468 26.6533 63.2068 26.3333 63.2735 25.96H63.4535V27.42C63.3335 27.42 63.2335 27.46 63.1535 27.54C63.0468 27.6333 62.8935 27.7333 62.6935 27.84C62.5068 27.9467 62.2202 28 61.8335 28C61.3535 28 60.9802 27.9067 60.7135 27.72C60.4468 27.5333 60.2535 27.2867 60.1335 26.98C60.0135 26.6733 59.9402 26.3333 59.9135 25.96C59.9002 25.5867 59.8935 25.2067 59.8935 24.82V20.28H58.7735V19.6H59.8935V17.82C59.8935 17.5933 59.8602 17.3867 59.7935 17.2C59.7402 17 59.5468 16.8933 59.2135 16.88V16.68L61.2135 16.04V19.6H63.4535V20.28H61.2135ZM78.892 14.6C79.932 14.6 80.8653 14.7867 81.692 15.16C82.5186 15.52 83.2186 16.0133 83.792 16.64C84.3786 17.2533 84.8253 17.9733 85.132 18.8C85.452 19.6133 85.612 20.4667 85.612 21.36C85.612 22.36 85.4253 23.28 85.052 24.12C84.692 24.96 84.192 25.68 83.552 26.28C82.912 26.88 82.1653 27.3533 81.312 27.7C80.472 28.0333 79.572 28.2 78.612 28.2C77.5853 28.2 76.6586 28.0133 75.832 27.64C75.0186 27.2667 74.3253 26.7733 73.752 26.16C73.192 25.5467 72.7586 24.84 72.452 24.04C72.1453 23.24 71.992 22.4067 71.992 21.54C71.992 20.6867 72.1453 19.8467 72.452 19.02C72.7586 18.18 73.2053 17.4333 73.792 16.78C74.392 16.1267 75.1186 15.6 75.972 15.2C76.8253 14.8 77.7986 14.6 78.892 14.6ZM78.872 27.5C79.7653 27.46 80.5453 27.26 81.212 26.9C81.892 26.5267 82.4586 26.06 82.912 25.5C83.3653 24.9267 83.6986 24.3 83.912 23.62C84.1386 22.94 84.252 22.2667 84.252 21.6C84.252 20.8667 84.1186 20.1267 83.852 19.38C83.5853 18.6333 83.2053 17.96 82.712 17.36C82.2186 16.7467 81.6253 16.2533 80.932 15.88C80.252 15.4933 79.4853 15.3 78.632 15.3C77.8053 15.3 77.0653 15.4867 76.412 15.86C75.7586 16.22 75.1986 16.6867 74.732 17.26C74.2786 17.8333 73.932 18.4733 73.692 19.18C73.452 19.8867 73.332 20.58 73.332 21.26C73.332 21.9933 73.472 22.7333 73.752 23.48C74.032 24.2133 74.4186 24.88 74.912 25.48C75.4053 26.08 75.9853 26.5667 76.652 26.94C77.332 27.3133 78.072 27.5 78.872 27.5ZM90.2268 20.28V26.7C90.2268 26.8067 90.2401 26.9267 90.2668 27.06C90.2935 27.18 90.3335 27.2933 90.3868 27.4C90.4535 27.5067 90.5201 27.6 90.5868 27.68C90.6668 27.76 90.7601 27.8 90.8668 27.8V28H88.2668V27.8C88.3601 27.8 88.4468 27.76 88.5268 27.68C88.6068 27.6 88.6735 27.5067 88.7268 27.4C88.7935 27.2933 88.8401 27.18 88.8668 27.06C88.8935 26.9267 88.9068 26.8067 88.9068 26.7V20.28H87.9068V19.6H88.9068V17.98C88.9068 17.5667 88.9201 17.1667 88.9468 16.78C88.9735 16.3933 89.0535 16.0467 89.1868 15.74C89.3201 15.4333 89.5201 15.1867 89.7868 15C90.0668 14.8133 90.4468 14.72 90.9268 14.72C91.1935 14.72 91.4201 14.7533 91.6068 14.82C91.8068 14.8733 91.9735 14.94 92.1068 15.02C92.2535 15.0867 92.3735 15.1533 92.4668 15.22C92.5601 15.2733 92.6401 15.3 92.7068 15.3V16.76H92.5268C92.4601 16.3733 92.2868 16.0533 92.0068 15.8C91.7268 15.5333 91.4468 15.4 91.1668 15.4C90.7801 15.4 90.5268 15.6067 90.4068 16.02C90.2868 16.42 90.2268 16.98 90.2268 17.7V19.6H92.4868V20.28H90.2268ZM96.8323 20.28V26.7C96.8323 26.8067 96.8456 26.9267 96.8723 27.06C96.8989 27.18 96.9389 27.2933 96.9923 27.4C97.0589 27.5067 97.1256 27.6 97.1923 27.68C97.2723 27.76 97.3656 27.8 97.4723 27.8V28H94.8723V27.8C94.9656 27.8 95.0523 27.76 95.1323 27.68C95.2123 27.6 95.2789 27.5067 95.3323 27.4C95.3989 27.2933 95.4456 27.18 95.4723 27.06C95.4989 26.9267 95.5123 26.8067 95.5123 26.7V20.28H94.5123V19.6H95.5123V17.98C95.5123 17.5667 95.5256 17.1667 95.5523 16.78C95.5789 16.3933 95.6589 16.0467 95.7923 15.74C95.9256 15.4333 96.1256 15.1867 96.3923 15C96.6723 14.8133 97.0523 14.72 97.5323 14.72C97.7989 14.72 98.0256 14.7533 98.2123 14.82C98.4123 14.8733 98.5789 14.94 98.7123 15.02C98.8589 15.0867 98.9789 15.1533 99.0723 15.22C99.1656 15.2733 99.2456 15.3 99.3123 15.3V16.76H99.1323C99.0656 16.3733 98.8923 16.0533 98.6123 15.8C98.3323 15.5333 98.0523 15.4 97.7723 15.4C97.3856 15.4 97.1323 15.6067 97.0123 16.02C96.8923 16.42 96.8323 16.98 96.8323 17.7V19.6H99.0923V20.28H96.8323ZM101.858 28V27.8C101.964 27.8 102.058 27.76 102.138 27.68C102.218 27.6 102.284 27.5067 102.338 27.4C102.391 27.2933 102.431 27.18 102.458 27.06C102.484 26.9267 102.498 26.8067 102.498 26.7V21.16C102.498 20.9333 102.464 20.72 102.398 20.52C102.331 20.3067 102.138 20.1933 101.818 20.18V20L103.818 19.36V26.7C103.818 26.8067 103.831 26.9267 103.858 27.06C103.884 27.18 103.924 27.2933 103.978 27.4C104.031 27.5067 104.098 27.6 104.178 27.68C104.258 27.76 104.351 27.8 104.458 27.8V28H101.858ZM101.958 17.44C101.958 17.1733 102.044 16.9467 102.218 16.76C102.404 16.5733 102.631 16.48 102.898 16.48C103.164 16.48 103.391 16.5733 103.578 16.76C103.764 16.9467 103.858 17.1733 103.858 17.44C103.858 17.7067 103.764 17.9267 103.578 18.1C103.391 18.2733 103.164 18.36 102.898 18.36C102.631 18.36 102.404 18.2733 102.218 18.1C102.044 17.9267 101.958 17.7067 101.958 17.44ZM114.977 27.28C114.871 27.28 114.771 27.3067 114.677 27.36C114.584 27.4 114.477 27.4533 114.357 27.52C114.131 27.6533 113.844 27.7933 113.497 27.94C113.151 28.0733 112.697 28.14 112.137 28.14C111.457 28.14 110.824 28.0333 110.237 27.82C109.664 27.5933 109.164 27.2867 108.737 26.9C108.324 26.5 107.997 26.04 107.757 25.52C107.531 24.9867 107.417 24.4133 107.417 23.8C107.417 23.2267 107.517 22.68 107.717 22.16C107.931 21.64 108.231 21.18 108.617 20.78C109.004 20.38 109.477 20.06 110.037 19.82C110.611 19.58 111.257 19.46 111.977 19.46C112.471 19.46 112.871 19.52 113.177 19.64C113.484 19.7467 113.744 19.8533 113.957 19.96C114.077 20.0267 114.191 20.08 114.297 20.12C114.417 20.16 114.537 20.18 114.657 20.18V21.7H114.457C114.391 21.4467 114.271 21.2267 114.097 21.04C113.924 20.84 113.724 20.6733 113.497 20.54C113.271 20.4067 113.024 20.3067 112.757 20.24C112.491 20.1733 112.231 20.14 111.977 20.14C111.431 20.14 110.951 20.24 110.537 20.44C110.124 20.6267 109.784 20.88 109.517 21.2C109.251 21.5067 109.051 21.86 108.917 22.26C108.784 22.66 108.717 23.0733 108.717 23.5C108.717 23.9933 108.797 24.48 108.957 24.96C109.117 25.4267 109.344 25.8467 109.637 26.22C109.944 26.5933 110.311 26.8933 110.737 27.12C111.164 27.3467 111.644 27.46 112.177 27.46C112.551 27.46 112.891 27.4067 113.197 27.3C113.517 27.1933 113.784 27.0533 113.997 26.88C114.224 26.7067 114.404 26.52 114.537 26.32C114.671 26.1067 114.751 25.9067 114.777 25.72H114.977V27.28ZM118.408 23.96C118.462 24.4267 118.575 24.8733 118.748 25.3C118.922 25.7133 119.148 26.08 119.428 26.4C119.722 26.72 120.075 26.98 120.488 27.18C120.902 27.3667 121.382 27.46 121.928 27.46C122.222 27.46 122.528 27.42 122.848 27.34C123.182 27.2467 123.488 27.12 123.768 26.96C124.048 26.8 124.295 26.6067 124.508 26.38C124.735 26.14 124.888 25.8733 124.968 25.58H125.148V27.08C125.068 27.08 124.975 27.1067 124.868 27.16C124.775 27.2133 124.662 27.28 124.528 27.36C124.262 27.52 123.902 27.6933 123.448 27.88C122.995 28.0533 122.395 28.14 121.648 28.14C121.048 28.14 120.475 28.0533 119.928 27.88C119.395 27.7067 118.922 27.44 118.508 27.08C118.095 26.72 117.762 26.26 117.508 25.7C117.268 25.14 117.148 24.4733 117.148 23.7C117.148 23.2067 117.228 22.7067 117.388 22.2C117.562 21.6933 117.815 21.24 118.148 20.84C118.495 20.4267 118.935 20.0933 119.468 19.84C120.002 19.5867 120.642 19.46 121.388 19.46C122.055 19.46 122.635 19.5733 123.128 19.8C123.635 20.0267 124.048 20.34 124.368 20.74C124.702 21.14 124.948 21.6133 125.108 22.16C125.268 22.7067 125.348 23.3067 125.348 23.96H118.408ZM121.308 20.12C120.842 20.12 120.435 20.2133 120.088 20.4C119.755 20.5867 119.468 20.8267 119.228 21.12C118.988 21.4133 118.802 21.7467 118.668 22.12C118.535 22.4933 118.448 22.8667 118.408 23.24H124.108C124.095 22.8533 124.022 22.4733 123.888 22.1C123.768 21.7267 123.595 21.3933 123.368 21.1C123.142 20.8067 122.855 20.5733 122.508 20.4C122.162 20.2133 121.762 20.12 121.308 20.12Z" fill="#FFE1AB"/>
</svg>
