<svg width="48" height="44" viewBox="0 0 48 44" fill="none" xmlns="http://www.w3.org/2000/svg">
<path d="M46.7799 0.847824C46.2889 0.430056 45.6942 0.153682 45.0592 0.0480775C44.4242 -0.0575265 43.7726 0.0115858 43.1735 0.248069L2.3303 16.3526C1.61392 16.6266 1.00711 17.1295 0.603325 17.7837C0.199537 18.438 0.0211563 19.2073 0.0956485 19.9733C0.162107 20.7391 0.474024 21.4625 0.984624 22.0352C1.49522 22.6079 2.17699 22.999 2.92768 23.1498L13.3044 25.2156V38.2325C13.3041 38.9367 13.5121 39.6252 13.902 40.2105C14.292 40.7958 14.8464 41.2516 15.4948 41.5201C15.924 41.6935 16.3819 41.7839 16.8445 41.7866C17.3094 41.7883 17.77 41.6968 18.1993 41.5175C18.6286 41.3383 19.018 41.0748 19.3446 40.7426L25.0972 34.9894L33.7924 42.6752C34.4344 43.2436 35.2597 43.5592 36.1156 43.5637C36.492 43.5715 36.8667 43.5113 37.2218 43.386C37.8057 43.2005 38.3312 42.8652 38.7464 42.4133C39.1616 41.9614 39.4522 41.4085 39.5892 40.8093L47.9083 4.33529C48.0537 3.70591 48.0255 3.04865 47.8267 2.43418C47.6279 1.8197 47.266 1.27126 46.7799 0.847824ZM14.6541 21.8615L3.63569 19.6624L34.5226 7.46734L14.6541 21.8615ZM16.8445 38.2325V27.7035L22.42 32.6348L16.8445 38.2325ZM36.1377 40.0096L17.9065 23.9051L44.1692 4.8684L36.1377 40.0096Z" fill="white"/>
</svg>
