<svg width="190" height="179" viewBox="0 0 190 179" fill="none" xmlns="http://www.w3.org/2000/svg">
<path d="M9 74H181V160H9V74Z" fill="#CFD8DC"/>
<path d="M9 160H181V178H9V160Z" fill="#B0BEC5"/>
<path d="M109 97H163V179H109V97Z" fill="#455A64"/>
<path d="M27 97H90V147H27V97Z" fill="#E3F2FD"/>
<path d="M32 101H86V142H32V101Z" fill="#1E88E5"/>
<path d="M152 140C150.5 140 149 140.6 149 142V152C149 153.4 150.5 154 152 154C153.5 154 154 153.4 154 152V142C154 140.6 153.5 140 152 140Z" fill="#90A4AE"/>
<path d="M95 87C102.456 87 108 81.4558 108 74C108 66.5442 102.456 60 95 60C87.5442 60 81 66.5442 81 74C81 81.4558 87.5442 87 95 87Z" fill="#558B2F"/>
<path d="M150 87C157.456 87 163 81.4558 163 74C163 66.5442 157.456 60 150 60C142.544 60 136 66.5442 136 74C136 81.4558 142.544 87 150 87Z" fill="#558B2F"/>
<path d="M41 87C48.4558 87 54 81.4558 54 74C54 66.5442 48.4558 60 41 60C33.5442 60 27 66.5442 27 74C27 81.4558 33.5442 87 41 87Z" fill="#558B2F"/>
<path d="M168 15H23C18.0194 15 14 19.0077 14 24V38H177V24C177 19.0077 172.981 15 168 15ZM82 38H109V74H82V38ZM154 38H132L136 74H163L154 38ZM37 38H59L55 74H28L37 38Z" fill="#7CB342"/>
<path d="M123 87C130.456 87 136 81.4558 136 74C136 66.5442 130.456 60 123 60C115.544 60 109 66.5442 109 74C109 81.4558 115.544 87 123 87Z" fill="#FFA000"/>
<path d="M190 74C190 81.65 184.65 87 177 87C169.35 87 163 81.65 163 74C163 66.35 169.35 60 177 60L190 74Z" fill="#FFA000"/>
<path d="M68 87C75.4558 87 81 81.4558 81 74C81 66.5442 75.4558 60 68 60C60.5442 60 54 66.5442 54 74C54 81.4558 60.5442 87 68 87Z" fill="#FFA000"/>
<path d="M0 74C0 81.65 6.35 87 14 87C21.65 87 27 81.65 27 74C27 66.35 21.65 60 14 60L0 74Z" fill="#FFA000"/>
<path d="M131 38H109V74H136L131 38ZM176 38H154L163 74H190L176 38ZM59 38H81V74H54L59 38ZM14 38H36L27 74H0L14 38Z" fill="#FFC107"/>
<path d="M51.1971 33.78H51.3071C51.4097 33.78 51.5051 33.736 51.5931 33.648C51.6811 33.56 51.7544 33.4573 51.8131 33.34C51.8864 33.2227 51.9377 33.098 51.9671 32.966C51.9964 32.8193 52.0111 32.6873 52.0111 32.57V20.866C52.0111 20.7633 51.9964 20.646 51.9671 20.514C51.9377 20.382 51.8864 20.2573 51.8131 20.14C51.7544 20.008 51.6737 19.9053 51.5711 19.832C51.4831 19.744 51.3804 19.7 51.2631 19.7H51.1531V19.48H54.7611C56.1251 19.48 57.1884 19.7807 57.9511 20.382C58.7284 20.9833 59.1171 21.7827 59.1171 22.78C59.1171 23.2053 59.0437 23.5867 58.8971 23.924C58.7504 24.2613 58.5597 24.562 58.3251 24.826C58.1051 25.09 57.8631 25.3173 57.5991 25.508C57.3351 25.684 57.0857 25.8307 56.8511 25.948C57.4671 26.0653 57.9804 26.2633 58.3911 26.542C58.8017 26.8207 59.1317 27.1433 59.3811 27.51C59.6451 27.862 59.8284 28.2433 59.9311 28.654C60.0337 29.0647 60.0851 29.468 60.0851 29.864C60.0851 30.6267 59.9457 31.272 59.6671 31.8C59.3884 32.3133 59.0144 32.7387 58.5451 33.076C58.0904 33.3987 57.5624 33.6333 56.9611 33.78C56.3744 33.9267 55.7657 34 55.1351 34H51.1971V33.78ZM58.5891 29.996C58.4717 28.8667 58.0904 27.994 57.4451 27.378C56.7997 26.762 55.8904 26.454 54.7171 26.454H53.4851V33.274H54.7611C55.9491 33.274 56.8804 33.01 57.5551 32.482C58.2444 31.9393 58.5891 31.1913 58.5891 30.238V29.996ZM57.6871 22.978C57.6431 22.1273 57.3424 21.4527 56.7851 20.954C56.2424 20.4553 55.5091 20.206 54.5851 20.206H53.4851V25.75H54.6291C55.2451 25.75 55.7437 25.6693 56.1251 25.508C56.5211 25.3467 56.8364 25.1413 57.0711 24.892C57.3057 24.628 57.4671 24.342 57.5551 24.034C57.6431 23.726 57.6871 23.4253 57.6871 23.132V22.978ZM67.0207 34.154C66.2874 34.154 65.6274 34.0367 65.0407 33.802C64.4541 33.5527 63.9481 33.2227 63.5227 32.812C63.1121 32.3867 62.7894 31.888 62.5547 31.316C62.3347 30.744 62.2247 30.1207 62.2247 29.446C62.2247 28.7273 62.3494 28.0747 62.5987 27.488C62.8481 26.8867 63.1927 26.3733 63.6327 25.948C64.0727 25.5227 64.5934 25.1927 65.1947 24.958C65.7961 24.7233 66.4487 24.606 67.1527 24.606C67.8567 24.606 68.5021 24.7233 69.0887 24.958C69.6754 25.178 70.1814 25.4933 70.6067 25.904C71.0321 26.3147 71.3621 26.806 71.5967 27.378C71.8314 27.9353 71.9487 28.5513 71.9487 29.226C71.9487 29.8567 71.8387 30.4727 71.6187 31.074C71.4134 31.6607 71.0981 32.1813 70.6727 32.636C70.2621 33.0907 69.7487 33.4573 69.1327 33.736C68.5314 34.0147 67.8274 34.154 67.0207 34.154ZM66.8887 25.332C66.3607 25.3613 65.8914 25.4933 65.4807 25.728C65.0847 25.948 64.7474 26.2413 64.4687 26.608C64.2047 26.96 63.9994 27.3633 63.8527 27.818C63.7207 28.2727 63.6547 28.7347 63.6547 29.204C63.6547 29.7467 63.7354 30.2747 63.8967 30.788C64.0727 31.2867 64.3147 31.734 64.6227 32.13C64.9454 32.526 65.3267 32.8413 65.7667 33.076C66.2067 33.3107 66.6981 33.428 67.2407 33.428C67.7834 33.428 68.2601 33.3107 68.6707 33.076C69.0961 32.8413 69.4481 32.5407 69.7267 32.174C70.0054 31.7927 70.2107 31.3673 70.3427 30.898C70.4894 30.4287 70.5627 29.9593 70.5627 29.49C70.5627 29.006 70.4894 28.522 70.3427 28.038C70.1961 27.5393 69.9687 27.092 69.6607 26.696C69.3527 26.2853 68.9641 25.9553 68.4947 25.706C68.0401 25.4567 67.5047 25.332 66.8887 25.332ZM78.9764 34.154C78.243 34.154 77.583 34.0367 76.9964 33.802C76.4097 33.5527 75.9037 33.2227 75.4784 32.812C75.0677 32.3867 74.745 31.888 74.5104 31.316C74.2904 30.744 74.1804 30.1207 74.1804 29.446C74.1804 28.7273 74.305 28.0747 74.5544 27.488C74.8037 26.8867 75.1484 26.3733 75.5884 25.948C76.0284 25.5227 76.549 25.1927 77.1504 24.958C77.7517 24.7233 78.4044 24.606 79.1084 24.606C79.8124 24.606 80.4577 24.7233 81.0444 24.958C81.631 25.178 82.137 25.4933 82.5624 25.904C82.9877 26.3147 83.3177 26.806 83.5524 27.378C83.787 27.9353 83.9044 28.5513 83.9044 29.226C83.9044 29.8567 83.7944 30.4727 83.5744 31.074C83.369 31.6607 83.0537 32.1813 82.6284 32.636C82.2177 33.0907 81.7044 33.4573 81.0884 33.736C80.487 34.0147 79.783 34.154 78.9764 34.154ZM78.8444 25.332C78.3164 25.3613 77.847 25.4933 77.4364 25.728C77.0404 25.948 76.703 26.2413 76.4244 26.608C76.1604 26.96 75.955 27.3633 75.8084 27.818C75.6764 28.2727 75.6104 28.7347 75.6104 29.204C75.6104 29.7467 75.691 30.2747 75.8524 30.788C76.0284 31.2867 76.2704 31.734 76.5784 32.13C76.901 32.526 77.2824 32.8413 77.7224 33.076C78.1624 33.3107 78.6537 33.428 79.1964 33.428C79.739 33.428 80.2157 33.3107 80.6264 33.076C81.0517 32.8413 81.4037 32.5407 81.6824 32.174C81.961 31.7927 82.1664 31.3673 82.2984 30.898C82.445 30.4287 82.5184 29.9593 82.5184 29.49C82.5184 29.006 82.445 28.522 82.2984 28.038C82.1517 27.5393 81.9244 27.092 81.6164 26.696C81.3084 26.2853 80.9197 25.9553 80.4504 25.706C79.9957 25.4567 79.4604 25.332 78.8444 25.332ZM93.638 34C93.3887 34 93.154 33.9487 92.934 33.846C92.7287 33.7287 92.5453 33.604 92.384 33.472C92.1933 33.3107 92.0173 33.1347 91.856 32.944L89.018 29.292L88.556 29.754V32.614C88.556 32.7167 88.5707 32.834 88.6 32.966C88.6293 33.098 88.6733 33.23 88.732 33.362C88.8053 33.4793 88.886 33.582 88.974 33.67C89.062 33.7433 89.1647 33.78 89.282 33.78V34H86.422V33.78C86.5247 33.78 86.62 33.7433 86.708 33.67C86.796 33.582 86.8693 33.4793 86.928 33.362C86.9867 33.2447 87.0307 33.12 87.06 32.988C87.0893 32.856 87.104 32.7313 87.104 32.614V21.416C87.104 21.2107 87.038 21.0053 86.906 20.8C86.774 20.5947 86.598 20.4847 86.378 20.47V20.25L88.556 19.568V28.742L92.12 25.398C92.1933 25.3247 92.23 25.2367 92.23 25.134C92.23 25.0313 92.1787 24.98 92.076 24.98V24.76H94.056V24.98C93.968 24.98 93.8727 25.002 93.77 25.046C93.682 25.09 93.594 25.1413 93.506 25.2C93.4033 25.2587 93.3007 25.332 93.198 25.42L90.074 28.324L93.33 32.438C93.5207 32.702 93.7113 32.9293 93.902 33.12C94.0633 33.2813 94.232 33.4353 94.408 33.582C94.5987 33.714 94.76 33.78 94.892 33.78V34H93.638ZM104.021 31.492C104.021 31.8733 103.926 32.2253 103.735 32.548C103.544 32.8707 103.28 33.1567 102.943 33.406C102.62 33.6407 102.239 33.8313 101.799 33.978C101.359 34.11 100.882 34.176 100.369 34.176C99.7385 34.176 99.2251 34.0953 98.8291 33.934C98.4331 33.758 98.0958 33.582 97.8171 33.406C97.6265 33.2887 97.4505 33.1933 97.2891 33.12C97.1278 33.032 96.9518 32.988 96.7611 32.988V31.316H96.9811C97.0251 31.5213 97.1498 31.7487 97.3551 31.998C97.5751 32.2327 97.8318 32.4527 98.1251 32.658C98.4331 32.8633 98.7631 33.0393 99.1151 33.186C99.4818 33.318 99.8485 33.384 100.215 33.384C100.479 33.384 100.75 33.3547 101.029 33.296C101.308 33.2373 101.557 33.142 101.777 33.01C102.012 32.878 102.202 32.7167 102.349 32.526C102.51 32.3207 102.591 32.0787 102.591 31.8C102.591 31.5213 102.51 31.2793 102.349 31.074C102.188 30.8687 101.982 30.6927 101.733 30.546C101.484 30.3847 101.198 30.2453 100.875 30.128C100.552 30.0107 100.23 29.9007 99.9071 29.798C99.5258 29.6807 99.1371 29.5487 98.7411 29.402C98.3598 29.2553 98.0151 29.0867 97.7071 28.896C97.3991 28.6907 97.1498 28.4487 96.9591 28.17C96.7685 27.8767 96.6731 27.532 96.6731 27.136C96.6731 26.7987 96.7318 26.476 96.8491 26.168C96.9811 25.86 97.1865 25.596 97.4651 25.376C97.7585 25.1413 98.1325 24.958 98.5871 24.826C99.0418 24.6793 99.5918 24.606 100.237 24.606C100.809 24.606 101.249 24.6573 101.557 24.76C101.88 24.848 102.144 24.9433 102.349 25.046C102.481 25.1193 102.613 25.178 102.745 25.222C102.877 25.2513 103.024 25.266 103.185 25.266V26.806H103.009C102.745 26.322 102.342 25.9553 101.799 25.706C101.256 25.4567 100.699 25.332 100.127 25.332C99.7605 25.332 99.4451 25.3833 99.1811 25.486C98.9171 25.574 98.6971 25.6913 98.5211 25.838C98.3598 25.97 98.2351 26.124 98.1471 26.3C98.0738 26.476 98.0371 26.652 98.0371 26.828C98.0371 27.0773 98.1031 27.29 98.2351 27.466C98.3818 27.642 98.5725 27.796 98.8071 27.928C99.0565 28.06 99.3278 28.1847 99.6211 28.302C99.9291 28.4193 100.252 28.5293 100.589 28.632C101 28.764 101.41 28.9107 101.821 29.072C102.232 29.2187 102.598 29.402 102.921 29.622C103.244 29.842 103.508 30.106 103.713 30.414C103.918 30.7073 104.021 31.0667 104.021 31.492ZM115.2 32.57C115.2 32.6873 115.215 32.8193 115.244 32.966C115.273 33.098 115.317 33.2227 115.376 33.34C115.449 33.4573 115.523 33.56 115.596 33.648C115.684 33.736 115.787 33.78 115.904 33.78V34H113.066V33.78C113.169 33.78 113.264 33.736 113.352 33.648C113.44 33.56 113.513 33.4573 113.572 33.34C113.645 33.2227 113.697 33.098 113.726 32.966C113.755 32.8193 113.77 32.6873 113.77 32.57V28.478C113.77 27.95 113.697 27.488 113.55 27.092C113.403 26.696 113.205 26.366 112.956 26.102C112.707 25.838 112.421 25.6473 112.098 25.53C111.79 25.398 111.475 25.332 111.152 25.332C110.829 25.332 110.507 25.398 110.184 25.53C109.876 25.6473 109.597 25.816 109.348 26.036C109.113 26.256 108.915 26.5273 108.754 26.85C108.607 27.158 108.534 27.5027 108.534 27.884V32.57C108.534 32.6873 108.549 32.8193 108.578 32.966C108.607 33.098 108.651 33.2227 108.71 33.34C108.783 33.4573 108.857 33.56 108.93 33.648C109.018 33.736 109.121 33.78 109.238 33.78V34H106.378V33.78C106.481 33.78 106.576 33.736 106.664 33.648C106.752 33.56 106.825 33.4573 106.884 33.34C106.957 33.2227 107.009 33.098 107.038 32.966C107.067 32.8193 107.082 32.6873 107.082 32.57V21.328C107.082 21.0787 107.045 20.844 106.972 20.624C106.899 20.404 106.686 20.2867 106.334 20.272V20.052L108.534 19.37V25.728C108.637 25.6107 108.769 25.486 108.93 25.354C109.091 25.2073 109.282 25.0753 109.502 24.958C109.737 24.826 110.001 24.7233 110.294 24.65C110.602 24.562 110.961 24.518 111.372 24.518C112.061 24.518 112.648 24.6353 113.132 24.87C113.616 25.1047 114.012 25.4127 114.32 25.794C114.628 26.1607 114.848 26.5713 114.98 27.026C115.127 27.466 115.2 27.8987 115.2 28.324V32.57ZM123.125 34.154C122.392 34.154 121.732 34.0367 121.145 33.802C120.558 33.5527 120.052 33.2227 119.627 32.812C119.216 32.3867 118.894 31.888 118.659 31.316C118.439 30.744 118.329 30.1207 118.329 29.446C118.329 28.7273 118.454 28.0747 118.703 27.488C118.952 26.8867 119.297 26.3733 119.737 25.948C120.177 25.5227 120.698 25.1927 121.299 24.958C121.9 24.7233 122.553 24.606 123.257 24.606C123.961 24.606 124.606 24.7233 125.193 24.958C125.78 25.178 126.286 25.4933 126.711 25.904C127.136 26.3147 127.466 26.806 127.701 27.378C127.936 27.9353 128.053 28.5513 128.053 29.226C128.053 29.8567 127.943 30.4727 127.723 31.074C127.518 31.6607 127.202 32.1813 126.777 32.636C126.366 33.0907 125.853 33.4573 125.237 33.736C124.636 34.0147 123.932 34.154 123.125 34.154ZM122.993 25.332C122.465 25.3613 121.996 25.4933 121.585 25.728C121.189 25.948 120.852 26.2413 120.573 26.608C120.309 26.96 120.104 27.3633 119.957 27.818C119.825 28.2727 119.759 28.7347 119.759 29.204C119.759 29.7467 119.84 30.2747 120.001 30.788C120.177 31.2867 120.419 31.734 120.727 32.13C121.05 32.526 121.431 32.8413 121.871 33.076C122.311 33.3107 122.802 33.428 123.345 33.428C123.888 33.428 124.364 33.3107 124.775 33.076C125.2 32.8413 125.552 32.5407 125.831 32.174C126.11 31.7927 126.315 31.3673 126.447 30.898C126.594 30.4287 126.667 29.9593 126.667 29.49C126.667 29.006 126.594 28.522 126.447 28.038C126.3 27.5393 126.073 27.092 125.765 26.696C125.457 26.2853 125.068 25.9553 124.599 25.706C124.144 25.4567 123.609 25.332 122.993 25.332ZM135.147 24.606C135.939 24.606 136.621 24.7453 137.193 25.024C137.779 25.288 138.263 25.64 138.645 26.08C139.041 26.52 139.334 27.026 139.525 27.598C139.715 28.17 139.811 28.7567 139.811 29.358C139.811 29.9447 139.715 30.524 139.525 31.096C139.349 31.668 139.07 32.1813 138.689 32.636C138.322 33.0907 137.86 33.4573 137.303 33.736C136.745 34.0147 136.085 34.154 135.323 34.154C134.868 34.154 134.399 34.0367 133.915 33.802C133.445 33.5527 133.02 33.2447 132.639 32.878V37.19C132.639 37.3073 132.653 37.432 132.683 37.564C132.712 37.7107 132.756 37.8427 132.815 37.96C132.888 38.0773 132.961 38.18 133.035 38.268C133.123 38.356 133.225 38.4 133.343 38.4V38.62H130.483V38.4C130.585 38.4 130.681 38.356 130.769 38.268C130.857 38.18 130.93 38.0773 130.989 37.96C131.062 37.8427 131.113 37.7107 131.143 37.564C131.172 37.432 131.187 37.3073 131.187 37.19V26.058C131.187 25.926 131.179 25.8013 131.165 25.684C131.165 25.552 131.143 25.442 131.099 25.354C131.055 25.2513 130.981 25.1707 130.879 25.112C130.791 25.0387 130.659 24.9947 130.483 24.98V24.76H132.639V25.728C132.932 25.376 133.284 25.1047 133.695 24.914C134.12 24.7087 134.604 24.606 135.147 24.606ZM135.345 33.406C135.858 33.3913 136.305 33.274 136.687 33.054C137.068 32.834 137.383 32.548 137.633 32.196C137.882 31.844 138.065 31.4553 138.183 31.03C138.3 30.59 138.359 30.1353 138.359 29.666C138.359 29.138 138.285 28.6173 138.139 28.104C137.992 27.5907 137.779 27.136 137.501 26.74C137.222 26.3293 136.877 25.9993 136.467 25.75C136.071 25.486 135.616 25.354 135.103 25.354C134.795 25.354 134.487 25.4127 134.179 25.53C133.885 25.6473 133.621 25.816 133.387 26.036C133.167 26.256 132.983 26.52 132.837 26.828C132.705 27.1213 132.639 27.4513 132.639 27.818V30.7C132.639 31.096 132.719 31.4627 132.881 31.8C133.042 32.1227 133.247 32.4087 133.497 32.658C133.761 32.8927 134.054 33.076 134.377 33.208C134.699 33.34 135.022 33.406 135.345 33.406Z" fill="black"/>
</svg>
