<svg width="186" height="191" viewBox="0 0 186 191" fill="none" xmlns="http://www.w3.org/2000/svg">
<path d="M167 191L19 191C8.77 191 -2.23327e-07 182.249 -2.10769e-07 172L-9.19049e-08 75C-8.44838e-08 68.9439 2.885 63.7268 8 60L93 1.34445e-06L178 60C183.115 63.261 186 68.9439 186 75L186 172C186 182.249 177.23 191 167 191Z" fill="#78909C"/>
<path d="M47 5L140 5L140 149L47 149L47 5Z" fill="#AED581"/>
<path d="M42 0L42 154L144 154L144 1.47456e-06L42 0ZM135 145L51 145L51 9L135 9L135 145Z" fill="#558B2F"/>
<path d="M140 14C140 21.82 138.905 28 131 28C123.095 28 117 21.82 117 14C117 6.18 123.095 5 131 5C138.905 5 140 6.18 140 14ZM56 5C63.905 5 70 6.18 70 14C70 21.82 63.905 28 56 28C48.095 28 47 21.82 47 14C47 6.18 48.095 5 56 5Z" fill="#558B2F"/>
<path d="M94 47C99.2467 47 103 43.2467 103 38C103 32.7533 99.2467 28 94 28C88.7533 28 84 32.7533 84 38C84 43.2467 88.7533 47 94 47Z" fill="#558B2F"/>
<path d="M93 121C108.464 121 121 108.464 121 93C121 77.536 108.464 65 93 65C77.536 65 65 77.536 65 93C65 108.464 77.536 121 93 121Z" fill="#558B2F"/>
<path d="M167 191L19 191C8.77 191 -1.26543e-07 182.267 -1.13962e-07 172L0 79L93 140L186 79L186 172C186 182.267 177.23 191 167 191Z" fill="#CFD8DC"/>
</svg>
