<svg width="46" height="46" viewBox="0 0 46 46" fill="none" xmlns="http://www.w3.org/2000/svg">
<path d="M22.8712 0C16.7237 0 15.9506 0.0283168 13.5352 0.135921C11.1198 0.249188 9.47455 0.628634 8.03322 1.18931C6.52137 1.75796 5.15196 2.64996 4.02072 3.80295C2.86844 4.93476 1.97655 6.30401 1.40708 7.81545C0.846407 9.25394 0.46413 10.902 0.353694 13.3089C0.24609 15.73 0.217773 16.5002 0.217773 22.6563C0.217773 28.8067 0.24609 29.5769 0.353694 31.9924C0.466962 34.405 0.846407 36.0502 1.40708 37.4915C1.98758 38.9809 2.76063 40.2439 4.02072 41.504C5.27799 42.7641 6.54092 43.54 8.03039 44.1176C9.47455 44.6783 11.1169 45.0606 13.5295 45.171C15.9478 45.2786 16.718 45.3069 22.8712 45.3069C29.0245 45.3069 29.7919 45.2786 32.2101 45.171C34.6199 45.0577 36.2708 44.6783 37.7121 44.1176C39.223 43.5487 40.5914 42.6567 41.7218 41.504C42.9818 40.2439 43.7549 38.9809 44.3354 37.4915C44.8932 36.0502 45.2755 34.405 45.3888 31.9924C45.4964 29.5769 45.5247 28.8067 45.5247 22.6535C45.5247 16.5002 45.4964 15.73 45.3888 13.3117C45.2755 10.902 44.8932 9.25394 44.3354 7.81545C43.766 6.30396 42.8741 4.93471 41.7218 3.80295C40.5909 2.64954 39.2214 1.75747 37.7093 1.18931C36.2651 0.628634 34.6171 0.246356 32.2073 0.135921C29.789 0.0283168 29.0217 0 22.8656 0H22.8741H22.8712ZM20.8409 4.08329H22.8741C28.9225 4.08329 29.639 4.10311 32.0261 4.21354C34.2348 4.31265 35.4354 4.6836 36.234 4.99226C37.2902 5.40285 38.0462 5.89556 38.8391 6.68844C39.632 7.48131 40.1219 8.23454 40.5324 9.29358C40.8439 10.0893 41.2121 11.2899 41.3112 13.4986C41.4216 15.8857 41.4442 16.6022 41.4442 22.6478C41.4442 28.6934 41.4216 29.4127 41.3112 31.7998C41.2121 34.0085 40.8411 35.2063 40.5324 36.0049C40.1693 36.9885 39.5896 37.8778 38.8363 38.6072C38.0434 39.4 37.2902 39.8899 36.2311 40.3005C35.4383 40.612 34.2376 40.9801 32.0261 41.0821C29.639 41.1897 28.9225 41.2151 22.8741 41.2151C16.8256 41.2151 16.1063 41.1897 13.7192 41.0821C11.5105 40.9801 10.3127 40.612 9.51419 40.3005C8.53018 39.9378 7.63997 39.3592 6.90904 38.6072C6.15511 37.8767 5.57453 36.9865 5.21003 36.002C4.90138 35.2063 4.53043 34.0057 4.43132 31.797C4.32371 29.4099 4.30106 28.6934 4.30106 22.6421C4.30106 16.5937 4.32371 15.8801 4.43132 13.493C4.53326 11.2843 4.90138 10.0836 5.21286 9.28509C5.62346 8.22887 6.11617 7.47281 6.90904 6.67994C7.70191 5.88707 8.45514 5.39719 9.51419 4.98659C10.3127 4.67511 11.5105 4.30699 13.7192 4.20505C15.809 4.10877 16.6189 4.08046 20.8409 4.07762V4.08329ZM34.9654 7.84376C34.6084 7.84376 34.2549 7.91408 33.9251 8.05069C33.5952 8.1873 33.2956 8.38754 33.0431 8.63997C32.7907 8.8924 32.5905 9.19207 32.4539 9.52189C32.3173 9.8517 32.2469 10.2052 32.2469 10.5622C32.2469 10.9192 32.3173 11.2727 32.4539 11.6025C32.5905 11.9323 32.7907 12.232 33.0431 12.4844C33.2956 12.7368 33.5952 12.9371 33.9251 13.0737C34.2549 13.2103 34.6084 13.2806 34.9654 13.2806C35.6863 13.2806 36.3778 12.9942 36.8876 12.4844C37.3974 11.9746 37.6838 11.2831 37.6838 10.5622C37.6838 9.84121 37.3974 9.14977 36.8876 8.63997C36.3778 8.13017 35.6863 7.84376 34.9654 7.84376ZM22.8741 11.0209C21.331 10.9968 19.7986 11.28 18.366 11.8538C16.9334 12.4277 15.6293 13.2808 14.5295 14.3635C13.4298 15.4462 12.5564 16.7369 11.9603 18.1603C11.3642 19.5838 11.0572 21.1116 11.0572 22.6549C11.0572 24.1981 11.3642 25.726 11.9603 27.1494C12.5564 28.5729 13.4298 29.8636 14.5295 30.9463C15.6293 32.029 16.9334 32.8821 18.366 33.4559C19.7986 34.0298 21.331 34.3129 22.8741 34.2889C25.9282 34.2412 28.841 32.9945 30.9839 30.8179C33.1269 28.6413 34.3279 25.7093 34.3279 22.6549C34.3279 19.6004 33.1269 16.6685 30.9839 14.4918C28.841 12.3152 25.9282 11.0686 22.8741 11.0209ZM22.8741 15.1014C24.877 15.1014 26.7979 15.897 28.2142 17.3133C29.6305 18.7296 30.4262 20.6505 30.4262 22.6535C30.4262 24.6564 29.6305 26.5773 28.2142 27.9936C26.7979 29.4099 24.877 30.2056 22.8741 30.2056C20.8711 30.2056 18.9502 29.4099 17.5339 27.9936C16.1176 26.5773 15.322 24.6564 15.322 22.6535C15.322 20.6505 16.1176 18.7296 17.5339 17.3133C18.9502 15.897 20.8711 15.1014 22.8741 15.1014Z" fill="white"/>
</svg>
