<svg width="136" height="105" viewBox="0 0 136 105" fill="none" xmlns="http://www.w3.org/2000/svg">
<path d="M25 105V98C25 95.2936 22.8116 93 20 93C18.5944 93 17.0544 93.4705 16 95C15.1804 93.7057 14.7572 93 13 93C11.8282 93 9.93757 93.7057 9 95V93H7V105H9V99C9 97.0005 10.3597 96 12 96C13.6393 96 15 97.1178 15 99V105H17V99C17 97.0005 18.477 96 20 96C21.6403 96 22 97.1178 22 99V105H25V105ZM61 93H57V90H55V93H53V96H55V101C55 103.589 56.1884 105 59 105C60.0544 105 61.1793 104.471 62 104L61 102C60.2972 102.471 59.5859 103 59 103C57.8287 103 57 102.177 57 101V96H61V93V93ZM82 93C80.5944 93 79.5859 94.0589 79 95V93H77V105H79V98C79 96.1178 80.477 95 82 95C82.4685 95 82.5315 95.8826 83 96L84 93C83.5315 92.8821 82.4685 93 82 93V93ZM51 94C49.8282 93.1763 47.7572 93 46 93C43.1889 93 41 94.7647 41 97C41 98.8827 42.54 99.6468 45 100H46C47.2887 100.235 48 100.412 48 101C48 101.823 47.6403 103 46 103C44.3602 103 42.8202 102.588 42 102L41 104C42.2887 104.941 44.2433 105 46 105C49.2802 105 51 103.118 51 101C51 98.9999 49.3431 98.3526 47 98H46C44.9456 97.8821 44 97.7058 44 97C44 96.1763 44.7113 95 46 95C47.4061 95 49.2972 95.6468 50 96L51 94V94ZM116 93C114.594 93 113.586 94.0589 113 95V93H111V105H113V98C113 96.1178 113.478 95 115 95C115.469 95 116.531 95.8826 117 96L118 93C117.531 92.8821 116.469 93 116 93V93ZM85 99C85 102.412 87.3682 105 91 105C92.6398 105 93.8287 104.941 95 104L93 102C92.063 102.706 92.0544 103 91 103C89.0085 103 87 101.235 87 99C87 96.8826 89.0085 95.1174 91 95C92.0544 95 92.063 96.2937 93 97L95 95C93.8287 94.0584 92.6398 93 91 93C87.3682 93 85 95.5883 85 99ZM107 99V93H105V95C104.18 93.9416 102.523 93 101 93C97.8372 93 96 95.5883 96 99C96 102.412 97.8372 105 101 105C102.64 105 104.297 104.059 105 103V105H107V99V99ZM98 99C98 96.9999 99.8917 95 102 95C103.991 95 105 96.8826 105 99C105 101 103.991 103 102 103C99.8917 102.882 98 101 98 99V99ZM69 93C65.7198 93 63 95.4704 63 99C63 102.53 65.6024 105 69 105C70.6398 105 72.7113 104.058 74 103L72 102C71.063 102.706 70.1713 103 69 103C67.477 103 66.3517 102.001 66 100H74V99C74.1174 95.3525 72.1633 93 69 93V93ZM69 95C70.5224 95 71.7663 96.2352 72 98H66C66.2343 96.4705 67.2428 95 69 95ZM130 99V89H128V95C127.18 93.9416 125.523 93 124 93C120.837 93 118 95.5883 118 99C118 102.412 120.837 105 124 105C125.64 105 127.297 104.059 128 103V105H130V99V99ZM121 99C121 96.9999 121.891 95 124 95C125.991 95 128 96.8826 128 99C128 101 125.991 103 124 103C121.891 102.882 121 101 121 99V99ZM39 99V93H36V95C35.1798 93.9416 34.523 93 33 93C29.8372 93 27 95.5883 27 99C27 102.412 29.8372 105 33 105C34.6403 105 35.2972 104.059 36 103V105H39V99V99ZM30 99C30 96.9999 30.8917 95 33 95C34.9915 95 36 96.8826 36 99C36 101 34.9915 103 33 103C30.8917 102.882 30 101 30 99V99Z" fill="black"/>
<path d="M50 9H87V75H50V9Z" fill="#FF5F00"/>
<path d="M52 42C52 28.5835 58.3027 16.7002 68 9C60.8734 3.40011 51.8144 0 42 0C18.7482 0 0 18.7831 0 42C0 65.2164 18.7488 84 42 84C51.8144 84 60.8728 80.6004 68 75C58.3027 67.4167 52 55.4165 52 42V42Z" fill="#EB001B"/>
<path d="M136 42C136 65.2164 117.251 84 94 84C84.1857 84 75.1271 80.6004 68 75C77.8143 67.3003 84 55.4165 84 42C84 28.5835 77.6973 16.7002 68 9C75.1266 3.40011 84.1857 0 94 0C117.251 0 136 18.9 136 42V42Z" fill="#F79E1B"/>
</svg>
