<svg width="515" height="74" viewBox="0 0 515 74" fill="none" xmlns="http://www.w3.org/2000/svg">
<path d="M38.099 50.4H38.399C38.679 50.4 38.939 50.3 39.179 50.1C39.419 49.86 39.619 49.58 39.779 49.26C39.979 48.9 40.119 48.54 40.199 48.18C40.279 47.78 40.319 47.42 40.319 47.1V30.78H21.119V47.1C21.119 47.42 21.159 47.78 21.239 48.18C21.319 48.54 21.439 48.88 21.599 49.2C21.759 49.52 21.939 49.8 22.139 50.04C22.379 50.28 22.659 50.4 22.979 50.4H23.279V51H14.879V50.4H15.179C15.459 50.4 15.719 50.3 15.959 50.1C16.199 49.86 16.399 49.58 16.559 49.26C16.759 48.9 16.899 48.54 16.979 48.18C17.059 47.78 17.099 47.42 17.099 47.1V15.12C17.099 14.84 17.059 14.52 16.979 14.16C16.899 13.8 16.779 13.46 16.619 13.14C16.459 12.82 16.259 12.56 16.019 12.36C15.779 12.12 15.499 12 15.179 12H14.879V11.4H23.279V12H22.979C22.659 12 22.379 12.12 22.139 12.36C21.899 12.56 21.699 12.82 21.539 13.14C21.419 13.46 21.319 13.8 21.239 14.16C21.159 14.52 21.119 14.84 21.119 15.12V28.68H40.319V15.12C40.319 14.84 40.279 14.52 40.199 14.16C40.119 13.8 39.999 13.46 39.839 13.14C39.679 12.82 39.479 12.56 39.239 12.36C38.999 12.12 38.719 12 38.399 12H38.099V11.4H46.499V12H46.199C45.879 12 45.599 12.12 45.359 12.36C45.119 12.56 44.919 12.82 44.759 13.14C44.639 13.46 44.539 13.8 44.459 14.16C44.379 14.52 44.339 14.84 44.339 15.12V47.1C44.339 47.42 44.379 47.78 44.459 48.18C44.579 48.54 44.719 48.88 44.879 49.2C45.039 49.52 45.219 49.8 45.419 50.04C45.659 50.28 45.919 50.4 46.199 50.4H46.499V51H38.099V50.4ZM71.7032 10.8C74.8232 10.8 77.6232 11.36 80.1032 12.48C82.5832 13.56 84.6832 15.04 86.4032 16.92C88.1632 18.76 89.5032 20.92 90.4232 23.4C91.3832 25.84 91.8632 28.4 91.8632 31.08C91.8632 34.08 91.3032 36.84 90.1832 39.36C89.1032 41.88 87.6032 44.04 85.6832 45.84C83.7632 47.64 81.5232 49.06 78.9632 50.1C76.4432 51.1 73.7432 51.6 70.8632 51.6C67.7832 51.6 65.0032 51.04 62.5232 49.92C60.0832 48.8 58.0032 47.32 56.2832 45.48C54.6032 43.64 53.3032 41.52 52.3832 39.12C51.4632 36.72 51.0032 34.22 51.0032 31.62C51.0032 29.06 51.4632 26.54 52.3832 24.06C53.3032 21.54 54.6432 19.3 56.4032 17.34C58.2032 15.38 60.3832 13.8 62.9432 12.6C65.5032 11.4 68.4232 10.8 71.7032 10.8ZM71.6432 49.5C74.3232 49.38 76.6632 48.78 78.6632 47.7C80.7032 46.58 82.4032 45.18 83.7632 43.5C85.1232 41.78 86.1232 39.9 86.7632 37.86C87.4432 35.82 87.7832 33.8 87.7832 31.8C87.7832 29.6 87.3832 27.38 86.5832 25.14C85.7832 22.9 84.6432 20.88 83.1632 19.08C81.6832 17.24 79.9032 15.76 77.8232 14.64C75.7832 13.48 73.4832 12.9 70.9232 12.9C68.4432 12.9 66.2232 13.46 64.2632 14.58C62.3032 15.66 60.6232 17.06 59.2232 18.78C57.8632 20.5 56.8232 22.42 56.1032 24.54C55.3832 26.66 55.0232 28.74 55.0232 30.78C55.0232 32.98 55.4432 35.2 56.2832 37.44C57.1232 39.64 58.2832 41.64 59.7632 43.44C61.2432 45.24 62.9832 46.7 64.9832 47.82C67.0232 48.94 69.2432 49.5 71.6432 49.5ZM97.1277 50.4H97.4277C97.7077 50.4 97.9677 50.28 98.2077 50.04C98.4477 49.8 98.6477 49.52 98.8077 49.2C99.0077 48.88 99.1477 48.54 99.2277 48.18C99.3077 47.78 99.3477 47.42 99.3477 47.1V15.18C99.3477 14.9 99.3077 14.58 99.2277 14.22C99.1477 13.86 99.0077 13.52 98.8077 13.2C98.6477 12.84 98.4277 12.56 98.1477 12.36C97.9077 12.12 97.6277 12 97.3077 12H97.0077V11.4H106.848C110.568 11.4 113.468 12.22 115.548 13.86C117.668 15.5 118.728 17.68 118.728 20.4C118.728 21.56 118.528 22.6 118.128 23.52C117.728 24.44 117.208 25.26 116.568 25.98C115.968 26.7 115.308 27.32 114.588 27.84C113.868 28.32 113.188 28.72 112.548 29.04C114.228 29.36 115.628 29.9 116.748 30.66C117.868 31.42 118.768 32.3 119.448 33.3C120.168 34.26 120.668 35.3 120.948 36.42C121.228 37.54 121.368 38.64 121.368 39.72C121.368 41.8 120.988 43.56 120.228 45C119.468 46.4 118.448 47.56 117.168 48.48C115.928 49.36 114.488 50 112.848 50.4C111.248 50.8 109.588 51 107.868 51H97.1277V50.4ZM117.288 40.08C116.968 37 115.928 34.62 114.168 32.94C112.408 31.26 109.928 30.42 106.728 30.42H103.368V49.02H106.848C110.088 49.02 112.628 48.3 114.468 46.86C116.348 45.38 117.288 43.34 117.288 40.74V40.08ZM114.828 20.94C114.708 18.62 113.888 16.78 112.368 15.42C110.888 14.06 108.888 13.38 106.368 13.38H103.368V28.5H106.488C108.168 28.5 109.528 28.28 110.568 27.84C111.648 27.4 112.508 26.84 113.148 26.16C113.788 25.44 114.228 24.66 114.468 23.82C114.708 22.98 114.828 22.16 114.828 21.36V20.94ZM150.363 50.4H150.663C150.983 50.4 151.263 50.3 151.503 50.1C151.743 49.86 151.943 49.58 152.103 49.26C152.303 48.9 152.443 48.54 152.523 48.18C152.603 47.78 152.643 47.42 152.643 47.1V19.62L132.723 46.56V47.1C132.723 47.42 132.763 47.78 132.843 48.18C132.963 48.54 133.103 48.88 133.263 49.2C133.423 49.52 133.623 49.8 133.863 50.04C134.103 50.28 134.383 50.4 134.703 50.4H135.003V51H126.483V50.4H126.783C127.103 50.4 127.383 50.3 127.623 50.1C127.863 49.86 128.063 49.58 128.223 49.26C128.423 48.9 128.563 48.54 128.643 48.18C128.723 47.78 128.763 47.42 128.763 47.1V15.12C128.763 14.84 128.723 14.52 128.643 14.16C128.563 13.8 128.423 13.46 128.223 13.14C128.063 12.82 127.863 12.56 127.623 12.36C127.383 12.12 127.103 12 126.783 12H126.483V11.4H135.003V12H134.523C134.243 12.04 133.983 12.18 133.743 12.42C133.543 12.66 133.363 12.94 133.203 13.26C133.043 13.54 132.923 13.86 132.843 14.22C132.763 14.54 132.723 14.84 132.723 15.12V42.84L152.643 15.9V15.12C152.643 14.84 152.603 14.52 152.523 14.16C152.443 13.8 152.303 13.46 152.103 13.14C151.943 12.82 151.743 12.56 151.503 12.36C151.263 12.12 150.983 12 150.663 12H150.363V11.4H158.883V12H158.583C158.263 12 157.983 12.12 157.743 12.36C157.503 12.56 157.303 12.82 157.143 13.14C156.983 13.46 156.843 13.8 156.723 14.16C156.643 14.52 156.603 14.84 156.603 15.12V47.1C156.603 47.42 156.643 47.76 156.723 48.12C156.843 48.48 156.983 48.84 157.143 49.2C157.303 49.52 157.503 49.8 157.743 50.04C157.983 50.28 158.263 50.4 158.583 50.4H158.883V51H150.363V50.4ZM188.509 50.4H188.809C189.089 50.4 189.349 50.3 189.589 50.1C189.829 49.86 190.029 49.58 190.189 49.26C190.389 48.9 190.529 48.54 190.609 48.18C190.689 47.78 190.729 47.42 190.729 47.1V30.78H171.529V47.1C171.529 47.42 171.569 47.78 171.649 48.18C171.729 48.54 171.849 48.88 172.009 49.2C172.169 49.52 172.349 49.8 172.549 50.04C172.789 50.28 173.069 50.4 173.389 50.4H173.689V51H165.289V50.4H165.589C165.869 50.4 166.129 50.3 166.369 50.1C166.609 49.86 166.809 49.58 166.969 49.26C167.169 48.9 167.309 48.54 167.389 48.18C167.469 47.78 167.509 47.42 167.509 47.1V15.12C167.509 14.84 167.469 14.52 167.389 14.16C167.309 13.8 167.189 13.46 167.029 13.14C166.869 12.82 166.669 12.56 166.429 12.36C166.189 12.12 165.909 12 165.589 12H165.289V11.4H173.689V12H173.389C173.069 12 172.789 12.12 172.549 12.36C172.309 12.56 172.109 12.82 171.949 13.14C171.829 13.46 171.729 13.8 171.649 14.16C171.569 14.52 171.529 14.84 171.529 15.12V28.68H190.729V15.12C190.729 14.84 190.689 14.52 190.609 14.16C190.529 13.8 190.409 13.46 190.249 13.14C190.089 12.82 189.889 12.56 189.649 12.36C189.409 12.12 189.129 12 188.809 12H188.509V11.4H196.909V12H196.609C196.289 12 196.009 12.12 195.769 12.36C195.529 12.56 195.329 12.82 195.169 13.14C195.049 13.46 194.949 13.8 194.869 14.16C194.789 14.52 194.749 14.84 194.749 15.12V47.1C194.749 47.42 194.789 47.78 194.869 48.18C194.989 48.54 195.129 48.88 195.289 49.2C195.449 49.52 195.629 49.8 195.829 50.04C196.069 50.28 196.329 50.4 196.609 50.4H196.909V51H188.509V50.4ZM201.893 50.4H202.193C202.513 50.4 202.793 50.28 203.033 50.04C203.273 49.8 203.473 49.52 203.633 49.2C203.833 48.88 203.973 48.54 204.053 48.18C204.133 47.78 204.173 47.42 204.173 47.1V15.12C204.173 14.84 204.133 14.52 204.053 14.16C203.973 13.8 203.833 13.46 203.633 13.14C203.473 12.82 203.273 12.56 203.033 12.36C202.793 12.12 202.533 12 202.253 12H201.953V11.4H210.473V12H210.173C209.853 12 209.573 12.12 209.333 12.36C209.093 12.56 208.873 12.82 208.673 13.14C208.513 13.46 208.373 13.8 208.253 14.16C208.173 14.52 208.133 14.84 208.133 15.12V27.54L222.053 13.68C222.373 13.36 222.533 12.98 222.533 12.54C222.533 12.18 222.373 12 222.053 12V11.4H228.533V12C227.733 12.04 227.013 12.28 226.373 12.72C225.773 13.16 225.113 13.74 224.393 14.46L210.173 28.68C212.773 28.76 214.873 29.32 216.473 30.36C218.073 31.4 219.333 32.84 220.253 34.68L224.993 44.28C225.273 44.88 225.633 45.54 226.073 46.26C226.553 46.94 227.073 47.6 227.633 48.24C228.233 48.84 228.893 49.36 229.613 49.8C230.333 50.2 231.093 50.4 231.893 50.4V51H228.893C227.733 51 226.733 50.84 225.893 50.52C225.053 50.16 224.313 49.7 223.673 49.14C223.073 48.54 222.533 47.88 222.053 47.16C221.613 46.44 221.213 45.72 220.853 45L215.993 35.34C215.233 33.86 214.173 32.74 212.813 31.98C211.493 31.18 209.933 30.74 208.133 30.66V47.1C208.133 47.42 208.173 47.76 208.253 48.12C208.333 48.48 208.453 48.84 208.613 49.2C208.773 49.52 208.973 49.8 209.213 50.04C209.453 50.24 209.713 50.36 209.993 50.4H210.413V51H201.893V50.4ZM258.388 50.4H258.688C259.648 50.4 260.128 49.96 260.128 49.08C260.128 48.76 260.068 48.42 259.948 48.06L254.548 33.48H244.048L238.828 47.82C238.708 48.14 238.648 48.44 238.648 48.72C238.648 49.24 238.788 49.66 239.068 49.98C239.348 50.26 239.648 50.4 239.968 50.4H240.268V51H233.608V50.4H233.908C234.428 50.4 234.928 50.1 235.408 49.5C235.928 48.86 236.348 48.12 236.668 47.28L250.408 10.68L263.848 46.92C264.128 47.72 264.508 48.5 264.988 49.26C265.508 50.02 266.168 50.4 266.968 50.4H267.268V51H258.388V50.4ZM244.648 31.44H253.888L249.268 18.9L244.648 31.44ZM318.724 50.4H319.024C319.304 50.4 319.564 50.28 319.804 50.04C320.044 49.8 320.244 49.52 320.404 49.2C320.604 48.88 320.744 48.54 320.824 48.18C320.904 47.78 320.944 47.42 320.944 47.1V15.54L305.464 51.66L290.764 17.4V47.1C290.764 47.42 290.804 47.78 290.884 48.18C290.964 48.54 291.084 48.88 291.244 49.2C291.444 49.52 291.664 49.8 291.904 50.04C292.144 50.28 292.424 50.4 292.744 50.4H293.044V51H286.504V50.4H286.804C287.084 50.4 287.344 50.28 287.584 50.04C287.824 49.8 288.024 49.52 288.184 49.2C288.344 48.88 288.464 48.54 288.544 48.18C288.624 47.78 288.664 47.42 288.664 47.1V15.12C288.664 14.84 288.624 14.52 288.544 14.16C288.464 13.8 288.344 13.46 288.184 13.14C288.024 12.82 287.824 12.56 287.584 12.36C287.344 12.12 287.084 12 286.804 12H286.504V11.4H292.624L306.544 44.22L320.464 11.4H327.244V12H326.944C326.624 12 326.344 12.12 326.104 12.36C325.864 12.56 325.644 12.82 325.444 13.14C325.284 13.46 325.164 13.8 325.084 14.16C325.004 14.52 324.964 14.84 324.964 15.12V47.1C324.964 47.42 325.004 47.78 325.084 48.18C325.164 48.54 325.284 48.88 325.444 49.2C325.644 49.52 325.864 49.8 326.104 50.04C326.344 50.28 326.624 50.4 326.944 50.4H327.244V51H318.724V50.4ZM333.085 50.4H333.385C333.705 50.4 333.985 50.3 334.225 50.1C334.465 49.86 334.665 49.58 334.825 49.26C335.025 48.94 335.165 48.6 335.245 48.24C335.365 47.88 335.425 47.54 335.425 47.22V15.12C335.425 14.84 335.365 14.52 335.245 14.16C335.165 13.8 335.025 13.46 334.825 13.14C334.665 12.82 334.465 12.56 334.225 12.36C333.985 12.12 333.705 12 333.385 12H333.085V11.4H356.185V16.98H355.585C355.505 16.06 355.145 15.26 354.505 14.58C353.865 13.86 352.865 13.5 351.505 13.5H339.445V28.68H349.405C350.325 28.68 351.085 28.4 351.685 27.84C352.325 27.28 352.645 26.62 352.645 25.86H353.245V33.36H352.645C352.645 32.64 352.345 32.02 351.745 31.5C351.145 30.98 350.365 30.72 349.405 30.72H339.445V48.9H352.585C353.345 48.9 354.005 48.72 354.565 48.36C355.125 48 355.585 47.58 355.945 47.1C356.345 46.58 356.625 46.04 356.785 45.48C356.985 44.88 357.085 44.38 357.085 43.98H357.685V51H333.085V50.4ZM381.334 12.96C378.374 12.96 375.794 13.5 373.594 14.58C371.434 15.62 369.634 17 368.194 18.72C366.754 20.4 365.674 22.3 364.954 24.42C364.274 26.54 363.934 28.64 363.934 30.72C363.934 33.08 364.394 35.4 365.314 37.68C366.234 39.92 367.494 41.92 369.094 43.68C370.734 45.4 372.634 46.8 374.794 47.88C376.954 48.92 379.294 49.44 381.814 49.44C382.534 49.44 383.374 49.36 384.334 49.2C385.334 49.04 386.314 48.74 387.274 48.3C388.234 47.82 389.114 47.16 389.914 46.32C390.754 45.48 391.394 44.38 391.834 43.02H392.434V49.68C391.834 49.68 391.194 49.76 390.514 49.92C389.874 50.08 389.154 50.26 388.354 50.46C387.314 50.74 386.154 51 384.874 51.24C383.634 51.48 382.314 51.6 380.914 51.6C377.434 51.6 374.374 51 371.734 49.8C369.094 48.6 366.894 47.04 365.134 45.12C363.374 43.2 362.054 41.04 361.174 38.64C360.294 36.2 359.854 33.74 359.854 31.26C359.854 28.78 360.294 26.32 361.174 23.88C362.054 21.44 363.394 19.26 365.194 17.34C366.994 15.38 369.254 13.8 371.974 12.6C374.694 11.4 377.894 10.8 381.574 10.8C382.894 10.8 384.074 10.92 385.114 11.16C386.194 11.4 387.154 11.64 387.994 11.88C388.594 12.08 389.134 12.24 389.614 12.36C390.134 12.44 390.634 12.48 391.114 12.48V19.14H390.514C390.274 17.9 389.834 16.88 389.194 16.08C388.554 15.24 387.794 14.6 386.914 14.16C386.074 13.72 385.154 13.42 384.154 13.26C383.194 13.06 382.254 12.96 381.334 12.96ZM416.215 50.4H416.515C416.795 50.4 417.055 50.28 417.295 50.04C417.575 49.8 417.795 49.52 417.955 49.2C418.115 48.88 418.235 48.54 418.315 48.18C418.435 47.78 418.495 47.42 418.495 47.1V30.84C417.615 30.92 416.775 31.2 415.975 31.68C415.215 32.16 414.475 32.8 413.755 33.6C413.075 34.4 412.415 35.3 411.775 36.3C411.175 37.3 410.595 38.34 410.035 39.42C409.595 40.22 409.115 41.08 408.595 42C408.075 42.88 407.555 43.78 407.035 44.7C406.075 46.46 404.815 47.96 403.255 49.2C401.695 50.4 399.895 51 397.855 51H394.675V50.4C395.595 50.4 396.455 50.2 397.255 49.8C398.095 49.4 398.855 48.9 399.535 48.3C400.215 47.7 400.815 47.04 401.335 46.32C401.895 45.6 402.355 44.92 402.715 44.28L407.455 35.76C408.015 34.8 408.615 33.88 409.255 33C409.935 32.08 410.955 31.34 412.315 30.78C410.635 30.66 409.135 30.34 407.815 29.82C406.495 29.3 405.375 28.62 404.455 27.78C403.535 26.94 402.835 26 402.355 24.96C401.875 23.88 401.635 22.76 401.635 21.6C401.635 20.12 401.975 18.76 402.655 17.52C403.335 16.24 404.295 15.16 405.535 14.28C406.775 13.36 408.275 12.66 410.035 12.18C411.835 11.66 413.835 11.4 416.035 11.4H424.675V12H424.375C424.095 12 423.835 12.12 423.595 12.36C423.355 12.56 423.155 12.82 422.995 13.14C422.835 13.46 422.715 13.8 422.635 14.16C422.555 14.52 422.515 14.84 422.515 15.12V47.1C422.515 47.42 422.555 47.78 422.635 48.18C422.715 48.54 422.835 48.88 422.995 49.2C423.155 49.52 423.355 49.8 423.595 50.04C423.835 50.28 424.095 50.4 424.375 50.4H424.675V51H416.215V50.4ZM405.415 20.7C405.415 21.86 405.655 22.94 406.135 23.94C406.615 24.9 407.275 25.74 408.115 26.46C408.955 27.18 409.935 27.74 411.055 28.14C412.175 28.54 413.395 28.74 414.715 28.74H418.495V13.44H417.595C413.715 13.44 410.715 14.08 408.595 15.36C406.475 16.64 405.415 18.42 405.415 20.7ZM430.29 50.4H430.59C430.95 50.4 431.25 50.28 431.49 50.04C431.73 49.8 431.91 49.52 432.03 49.2C432.19 48.88 432.29 48.54 432.33 48.18C432.41 47.78 432.45 47.42 432.45 47.1V15.3C432.45 15.02 432.41 14.68 432.33 14.28C432.29 13.88 432.19 13.52 432.03 13.2C431.91 12.88 431.73 12.6 431.49 12.36C431.25 12.12 430.95 12 430.59 12H430.29V11.4H438.75V12H438.15C437.83 12.04 437.55 12.18 437.31 12.42C437.11 12.66 436.95 12.94 436.83 13.26C436.71 13.58 436.61 13.94 436.53 14.34C436.49 14.7 436.47 15.02 436.47 15.3V48.9H454.53V15.3C454.53 15.02 454.49 14.7 454.41 14.34C454.37 13.94 454.27 13.58 454.11 13.26C453.99 12.94 453.81 12.66 453.57 12.42C453.33 12.18 453.05 12.04 452.73 12H452.37V11.4H460.71V12H460.17C459.85 12.04 459.59 12.18 459.39 12.42C459.19 12.66 459.03 12.94 458.91 13.26C458.79 13.58 458.69 13.94 458.61 14.34C458.57 14.7 458.55 15.02 458.55 15.3V45.66C458.55 46.46 458.75 47.2 459.15 47.88C459.59 48.56 460.29 48.9 461.25 48.9H464.25V56.4H463.65C463.61 55.88 463.47 55.3 463.23 54.66C463.03 54.06 462.71 53.48 462.27 52.92C461.87 52.4 461.35 51.94 460.71 51.54C460.11 51.18 459.39 51 458.55 51H430.29V50.4ZM490.77 50.4H491.07C492.03 50.4 492.51 49.96 492.51 49.08C492.51 48.76 492.45 48.42 492.33 48.06L486.93 33.48H476.43L471.21 47.82C471.09 48.14 471.03 48.44 471.03 48.72C471.03 49.24 471.17 49.66 471.45 49.98C471.73 50.26 472.03 50.4 472.35 50.4H472.65V51H465.99V50.4H466.29C466.81 50.4 467.31 50.1 467.79 49.5C468.31 48.86 468.73 48.12 469.05 47.28L482.79 10.68L496.23 46.92C496.51 47.72 496.89 48.5 497.37 49.26C497.89 50.02 498.55 50.4 499.35 50.4H499.65V51H490.77V50.4ZM477.03 31.44H486.27L481.65 18.9L477.03 31.44Z" fill="black"/>
<line x1="1.5" y1="72.5" x2="513.5" y2="72.5" stroke="#F67DF9" stroke-width="3" stroke-linecap="round"/>
</svg>
