<svg width="171" height="30" viewBox="0 0 171 30" fill="none" xmlns="http://www.w3.org/2000/svg">
<path d="M31.3636 11.4828H19.3932L15.6818 0L11.9705 11.4828H0L9.67045 18.569L6.01136 30L15.6818 22.9138L25.3523 30L21.6409 18.5172L31.3636 11.4828Z" fill="#FFCE31"/>
<path d="M66.1363 11.4828H54.1659L50.4545 0L46.7432 11.4828H34.7727L44.4432 18.569L40.7841 30L50.4545 22.9138L60.125 30L56.4136 18.5172L66.1363 11.4828Z" fill="#FFCE31"/>
<path d="M100.909 11.4828H88.9386L85.2272 0L81.5159 11.4828H69.5454L79.2159 18.569L75.5568 30L85.2272 22.9138L94.8977 30L91.1863 18.5172L100.909 11.4828Z" fill="#FFCE31"/>
<path d="M135.682 11.4828H123.711L120 0L116.289 11.4828H104.318L113.989 18.569L110.329 30L120 22.9138L129.67 30L125.959 18.5172L135.682 11.4828Z" fill="#FFCE31"/>
<path d="M170.455 11.4828H158.484L154.773 0L151.061 11.4828H139.091L148.761 18.569L145.102 30L154.773 22.9138L164.443 30L160.732 18.5172L170.455 11.4828Z" fill="#FFCE31"/>
</svg>
