<svg width="37" height="39" viewBox="0 0 37 39" fill="none" xmlns="http://www.w3.org/2000/svg">
<path d="M35.1866 10.6113C32.9469 10.6113 30.7989 9.69686 29.2152 8.06912C27.6315 6.44138 26.7418 4.23368 26.7418 1.93171C26.7418 1.54805 26.5935 1.1801 26.3296 0.908807C26.0656 0.637517 25.7076 0.485107 25.3343 0.485107H18.297C17.9237 0.485107 17.5658 0.637517 17.3018 0.908807C17.0379 1.1801 16.8896 1.54805 16.8896 1.93171V25.0773C16.8882 25.724 16.7182 26.3584 16.3972 26.9145C16.0762 27.4707 15.6161 27.9282 15.0646 28.2394C14.5132 28.5507 13.8906 28.7043 13.2618 28.6842C12.6329 28.6642 12.0209 28.4712 11.4892 28.1254C10.9576 27.7796 10.5259 27.2936 10.2391 26.7181C9.95234 26.1426 9.82092 25.4985 9.85856 24.8531C9.8962 24.2076 10.1015 23.5843 10.4532 23.0481C10.8048 22.5119 11.2899 22.0824 11.8579 21.8044C12.1 21.69 12.3051 21.5064 12.4485 21.2756C12.592 21.0447 12.6679 20.7764 12.6672 20.5025V12.9801C12.6707 12.7657 12.6265 12.5532 12.5381 12.359C12.4497 12.1647 12.3193 11.9937 12.157 11.859C11.9994 11.7256 11.8156 11.629 11.6181 11.5759C11.4206 11.5229 11.2143 11.5146 11.0134 11.5516C8.50951 12.0126 6.1855 13.1981 4.31416 14.969C2.44281 16.7399 1.10179 19.0227 0.448492 21.5495C-0.204809 24.0763 -0.143279 26.7422 0.62586 29.2343C1.395 31.7264 2.83983 33.9413 4.79077 35.619C6.74171 37.2968 9.11779 38.3677 11.6401 38.7061C14.1625 39.0445 16.7264 38.6364 19.031 37.5297C21.3356 36.4229 23.2852 34.6635 24.651 32.4578C26.0168 30.2521 26.7421 27.6918 26.7418 25.0773V18.6219C29.3486 20.0194 32.2465 20.7455 35.1866 20.7375C35.5599 20.7375 35.9179 20.5851 36.1818 20.3138C36.4458 20.0425 36.5941 19.6746 36.5941 19.2909V12.0579C36.5941 11.6743 36.4458 11.3063 36.1818 11.035C35.9179 10.7637 35.5599 10.6113 35.1866 10.6113ZM33.7791 17.772C31.0317 17.5214 28.4005 16.5158 26.1612 14.8607C25.9494 14.7104 25.7019 14.6219 25.445 14.6045C25.1882 14.5872 24.9315 14.6417 24.7024 14.7622C24.4732 14.8828 24.2801 15.0649 24.1436 15.2892C24.007 15.5134 23.9322 15.7716 23.9269 16.0361V25.0773C23.9259 27.0662 23.393 29.0164 22.3865 30.715C21.38 32.4136 19.9386 33.7952 18.2198 34.7088C16.501 35.6223 14.571 36.0327 12.6406 35.8952C10.7102 35.7576 8.85379 35.0773 7.27415 33.9286C5.69451 32.7799 4.45246 31.2071 3.68371 29.3819C2.91497 27.5568 2.64912 25.5496 2.91522 23.5797C3.18131 21.6097 3.96911 19.7529 5.19252 18.212C6.41594 16.6712 8.0279 15.5056 9.85225 14.8426V19.6707C8.94222 20.2956 8.20529 21.1523 7.71331 22.1571C7.22132 23.1619 6.99108 24.2806 7.04502 25.4042C7.09896 26.5277 7.43525 27.6177 8.02109 28.5679C8.60694 29.518 9.42234 30.296 10.3878 30.8258C11.3533 31.3556 12.4358 31.6192 13.53 31.591C14.6241 31.5627 15.6924 31.2436 16.6308 30.6646C17.5691 30.0856 18.3455 29.2666 18.8842 28.2874C19.4229 27.3082 19.7055 26.2022 19.7045 25.0773V3.37831H24.0149C24.3302 5.92675 25.4604 8.29531 27.2278 10.1118C28.9952 11.9284 31.2996 13.09 33.7791 13.4141V17.772Z" fill="white"/>
</svg>
