<svg width="149" height="48" viewBox="0 0 149 48" fill="none" xmlns="http://www.w3.org/2000/svg">
<path d="M57 1L37 47H24L15 10C14.418 7.72346 13.7711 6.96264 12 6C9.10498 4.43122 4.20227 2.9127 0 2V1H21C23.6075 1 25.4028 3.0012 26 6L31 32L44 1H57ZM74 1L64 47H52L62 1H74ZM106 32C106.05 19.7499 89.8888 19.4733 90 14C90.0407 12.336 91.5218 10.4529 95 10C96.7228 9.77763 101.609 9.522 107 12L109 2C106.103 0.954919 101.637 0 97 0C85.0975 0 77.0669 5.96237 77 15C76.922 21.685 83.4439 25.7734 88 28C92.6929 30.2736 94.0215 31.9679 94 34C93.9662 37.1149 90.4532 37.9489 87 38C80.9445 38.0958 76.8002 36.3011 74 35L72 46C74.817 47.2878 79.6226 47.9431 85 48C97.6534 48 105.963 41.6513 106 32ZM138 47H149L139 1H129C126.684 1 124.864 1.93829 124 4L106 47H118L121 40H136L138 47ZM124 31L131 13L134 31H124Z" fill="#1A1F71"/>
</svg>
