<svg width="46" height="46" viewBox="0 0 46 46" fill="none" xmlns="http://www.w3.org/2000/svg">
<path d="M8.55493 0C6.32806 0.00867762 4.19488 0.897146 2.62023 2.47179C1.04558 4.04644 0.157115 6.17963 0.148438 8.4065V36.9004C0.157115 39.1273 1.04558 41.2605 2.62023 42.8351C4.19488 44.4098 6.32806 45.2983 8.55493 45.3069H37.0489C39.2757 45.2983 41.4089 44.4098 42.9836 42.8351C44.5582 41.2605 45.4467 39.1273 45.4554 36.9004V8.4065C45.4467 6.17963 44.5582 4.04644 42.9836 2.47179C41.4089 0.897146 39.2757 0.00867762 37.0489 0H8.55493ZM8.55493 4.11881H37.0489C37.6129 4.11553 38.1719 4.2242 38.6936 4.43851C39.2153 4.65283 39.6892 4.96853 40.088 5.36734C40.4868 5.76614 40.8025 6.24011 41.0169 6.7618C41.2312 7.28348 41.3398 7.84251 41.3366 8.4065V36.9004C41.3398 37.4644 41.2312 38.0234 41.0169 38.5451C40.8025 39.0668 40.4868 39.5408 40.088 39.9396C39.6892 40.3384 39.2153 40.6541 38.6936 40.8684C38.1719 41.0827 37.6129 41.1914 37.0489 41.1881H8.55493C7.99087 41.1917 7.43172 41.0832 6.90991 40.869C6.3881 40.6548 5.91402 40.3391 5.51516 39.9402C5.1163 39.5414 4.80061 39.0673 4.58639 38.5455C4.37217 38.0237 4.26369 37.4645 4.26725 36.9004V8.4065C4.26397 7.84251 4.37264 7.28348 4.58695 6.7618C4.80127 6.24011 5.11697 5.76614 5.51577 5.36734C5.91458 4.96853 6.38855 4.65283 6.91024 4.43851C7.43192 4.2242 7.99095 4.11553 8.55493 4.11881ZM22.2232 14.8895C20.7095 14.8751 19.4224 14.8895 18.6996 15.2437C18.2156 15.4785 17.847 16.0078 18.0714 16.0325C18.3536 16.0737 18.9879 16.2096 19.3277 16.6688C19.7602 17.2558 19.7457 18.5841 19.7457 18.5841C19.7457 18.5841 19.9867 22.2354 19.1568 22.6947C18.5863 23.0077 17.8058 22.3713 16.1171 19.4676C15.2562 17.9724 14.6055 16.3229 14.6055 16.3229C14.6055 16.3229 14.4819 16.016 14.2595 15.8554C13.9856 15.6556 13.6067 15.5897 13.6067 15.5897L9.5764 15.6144C9.5764 15.6144 8.97299 15.6391 8.75676 15.8966C8.55493 16.1375 8.74028 16.6112 8.74028 16.6112C8.74028 16.6112 11.8932 23.988 15.4642 27.7052C18.7387 31.1176 22.4559 30.8911 22.4559 30.8911H24.1446C24.1446 30.8911 24.6513 30.8355 24.9087 30.5616C25.1517 30.3042 25.1434 29.8202 25.1434 29.8202C25.1434 29.8202 25.1105 27.561 26.1567 27.2233C27.1946 26.9 28.5126 29.4104 29.9213 30.3762C30.9922 31.1073 31.8036 30.9467 31.8036 30.9467L35.5702 30.8911C35.5702 30.8911 37.5328 30.7696 36.5999 29.2168C36.5278 29.0973 36.0604 28.0759 33.8094 25.9835C31.4432 23.7964 31.7583 24.1507 34.6044 20.3613C36.3343 18.0528 37.0262 16.6441 36.8079 16.0325C36.602 15.462 35.3293 15.6144 35.3293 15.6144L31.089 15.6391C31.089 15.6391 30.7759 15.5979 30.5432 15.7359C30.3832 15.8548 30.2557 16.012 30.1725 16.1931C30.1725 16.1931 29.497 17.9786 28.6033 19.5005C26.721 22.7008 25.9569 22.8779 25.6521 22.6782C24.9354 22.2107 25.1126 20.8103 25.1126 19.8218C25.1126 16.708 25.5862 15.4208 24.1961 15.0851C23.7369 14.9719 23.3991 14.8998 22.2253 14.8895H22.2232Z" fill="white"/>
</svg>
